{
.appVersion = "895";
copyright = "Copyright 2016 Google Inc. All Rights Reserved.";
customParameters = (
{
name = description;
value = "Designed by Monotype design team.";
},
{
name = license;
value = "This Font Software is licensed under the SIL Open Font License, Version 1.1. This Font Software is distributed on an \"AS IS\" BASIS, WITHOUT WARRANTIES OR CONDITIONS OF ANY KIND, either express or implied. See the SIL Open Font License for the specific language, permissions and limitations governing your use of this Font Software.";
},
{
name = licenseURL;
value = "http://scripts.sil.org/OFL";
},
{
name = vendorID;
value = GOOG;
},
{
name = trademark;
value = "Noto is a trademark of Google Inc.";
},
{
name = fsType;
value = ();
},
{
name = panose;
value = (
2,
11,
5,
2,
4,
5,
4,
2,
2,
4
);
},
{
name = codePageRanges;
value = (
1252
);
}
);
date = "2016-11-10 14:44:00 +0000";
designer = "Monotype Design Team";
designerURL = "http://www.monotype.com/studio";
familyName = "Noto Sans Tai Viet";
fontMaster = (
{
ascender = 2189;
capHeight = 1434;
customParameters = (
{
name = typoAscender;
value = 2189;
},
{
name = typoDescender;
value = -600;
},
{
name = typoLineGap;
value = 0;
},
{
name = winAscent;
value = 2189;
},
{
name = winDescent;
value = 600;
},
{
name = hheaAscender;
value = 2189;
},
{
name = hheaDescender;
value = -600;
},
{
name = underlinePosition;
value = -205;
},
{
name = underlineThickness;
value = 102;
}
);
descender = -600;
id = "BE16C792-0DFB-4FCD-B142-35321F01CEFF";
weightValue = 400;
widthValue = 5;
xHeight = 1024;
}
);
glyphs = (
{
glyphname = saltillo;
lastChange = "2016-11-10 14:43:43 +0000";
layers = (
{
layerId = "BE16C792-0DFB-4FCD-B142-35321F01CEFF";
paths = (
{
closed = 1;
nodes = (
"411 965 LINE",
"462 1493 LINE",
"235 1493 LINE",
"286 965 LINE"
);
}
);
width = 668;
}
);
note = uniA78C;
unicode = A78C;
},
{
glyphname = zerowidthjoiner;
lastChange = "2016-11-10 14:43:43 +0000";
layers = (
{
layerId = "BE16C792-0DFB-4FCD-B142-35321F01CEFF";
paths = (
{
closed = 1;
nodes = (
"54 -338 LINE",
"54 1199 LINE",
"224 1030 LINE",
"299 1103 LINE",
"74 1323 LINE",
"299 1539 LINE",
"224 1613 LINE",
"0 1393 LINE",
"-224 1613 LINE",
"-299 1540 LINE",
"-74 1323 LINE",
"-299 1103 LINE",
"-224 1030 LINE",
"-54 1199 LINE",
"-54 -338 LINE"
);
}
);
width = 0;
}
);
note = afii301;
unicode = 200D;
},
{
glyphname = zerowidthnonjoiner;
lastChange = "2016-11-10 14:43:43 +0000";
layers = (
{
layerId = "BE16C792-0DFB-4FCD-B142-35321F01CEFF";
paths = (
{
closed = 1;
nodes = (
"54 -339 LINE",
"54 1613 LINE",
"-54 1613 LINE",
"-54 -339 LINE"
);
}
);
width = 0;
}
);
note = afii61664;
unicode = 200C;
},
{
glyphname = .notdef;
lastChange = "2016-11-10 14:43:43 +0000";
layers = (
{
layerId = "BE16C792-0DFB-4FCD-B142-35321F01CEFF";
paths = (
{
closed = 1;
nodes = (
"1034 0 LINE",
"1034 1462 LINE",
"193 1462 LINE",
"193 0 LINE"
);
},
{
closed = 1;
nodes = (
"297 1358 LINE",
"930 1358 LINE",
"930 104 LINE",
"297 104 LINE"
);
}
);
width = 1229;
}
);
note = .notdef;
},
{
glyphname = dottedCircle;
lastChange = "2016-11-10 14:43:43 +0000";
layers = (
{
layerId = "BE16C792-0DFB-4FCD-B142-35321F01CEFF";
paths = (
{
closed = 1;
nodes = (
"918 579 OFFCURVE",
"938 599 OFFCURVE",
"938 638 CURVE SMOOTH",
"938 677 OFFCURVE",
"918 697 OFFCURVE",
"878 697 CURVE SMOOTH",
"839 697 OFFCURVE",
"819 677 OFFCURVE",
"819 638 CURVE SMOOTH",
"819 599 OFFCURVE",
"839 579 OFFCURVE",
"878 579 CURVE SMOOTH"
);
},
{
closed = 1;
nodes = (
"296 324 OFFCURVE",
"316 344 OFFCURVE",
"316 383 CURVE SMOOTH",
"316 422 OFFCURVE",
"296 442 OFFCURVE",
"257 442 CURVE SMOOTH",
"218 442 OFFCURVE",
"198 422 OFFCURVE",
"198 383 CURVE SMOOTH",
"198 344 OFFCURVE",
"218 324 OFFCURVE",
"257 324 CURVE SMOOTH"
);
},
{
closed = 1;
nodes = (
"204 579 OFFCURVE",
"224 599 OFFCURVE",
"224 638 CURVE SMOOTH",
"224 677 OFFCURVE",
"204 697 OFFCURVE",
"165 697 CURVE SMOOTH",
"126 697 OFFCURVE",
"106 677 OFFCURVE",
"106 638 CURVE SMOOTH",
"106 599 OFFCURVE",
"126 579 OFFCURVE",
"165 579 CURVE SMOOTH"
);
},
{
closed = 1;
nodes = (
"562 222 OFFCURVE",
"581 241 OFFCURVE",
"581 281 CURVE SMOOTH",
"581 321 OFFCURVE",
"562 340 OFFCURVE",
"521 340 CURVE SMOOTH",
"482 340 OFFCURVE",
"463 320 OFFCURVE",
"463 281 CURVE SMOOTH",
"463 242 OFFCURVE",
"482 222 OFFCURVE",
"521 222 CURVE SMOOTH"
);
},
{
closed = 1;
nodes = (
"296 834 OFFCURVE",
"316 854 OFFCURVE",
"316 893 CURVE SMOOTH",
"316 932 OFFCURVE",
"296 952 OFFCURVE",
"257 952 CURVE SMOOTH",
"218 952 OFFCURVE",
"198 932 OFFCURVE",
"198 893 CURVE SMOOTH",
"198 854 OFFCURVE",
"218 834 OFFCURVE",
"257 834 CURVE SMOOTH"
);
},
{
closed = 1;
nodes = (
"826 324 OFFCURVE",
"846 344 OFFCURVE",
"846 383 CURVE SMOOTH",
"846 422 OFFCURVE",
"826 442 OFFCURVE",
"787 442 CURVE SMOOTH",
"748 442 OFFCURVE",
"728 422 OFFCURVE",
"728 383 CURVE SMOOTH",
"728 344 OFFCURVE",
"748 324 OFFCURVE",
"787 324 CURVE SMOOTH"
);
},
{
closed = 1;
nodes = (
"562 936 OFFCURVE",
"581 955 OFFCURVE",
"581 995 CURVE SMOOTH",
"581 1035 OFFCURVE",
"562 1053 OFFCURVE",
"521 1053 CURVE SMOOTH",
"481 1053 OFFCURVE",
"463 1035 OFFCURVE",
"463 995 CURVE SMOOTH",
"463 956 OFFCURVE",
"482 936 OFFCURVE",
"521 936 CURVE SMOOTH"
);
},
{
closed = 1;
nodes = (
"826 834 OFFCURVE",
"846 854 OFFCURVE",
"846 893 CURVE SMOOTH",
"846 932 OFFCURVE",
"826 952 OFFCURVE",
"787 952 CURVE SMOOTH",
"748 952 OFFCURVE",
"728 932 OFFCURVE",
"728 893 CURVE SMOOTH",
"728 854 OFFCURVE",
"748 834 OFFCURVE",
"787 834 CURVE SMOOTH"
);
}
);
width = 1044;
}
);
note = uni25CC;
unicode = 25CC;
},
{
glyphname = uniAA80;
lastChange = "2016-11-10 14:43:39 +0000";
layers = (
{
layerId = "BE16C792-0DFB-4FCD-B142-35321F01CEFF";
paths = (
{
closed = 1;
nodes = (
"1203 50 LINE",
"1175 109 OFFCURVE",
"1161 187 OFFCURVE",
"1161 284 CURVE SMOOTH",
"1161 351 OFFCURVE",
"1163 420 OFFCURVE",
"1168 491 CURVE SMOOTH",
"1172 562 OFFCURVE",
"1174 632 OFFCURVE",
"1174 699 CURVE SMOOTH",
"1174 978 OFFCURVE",
"1087 1118 OFFCURVE",
"919 1118 CURVE SMOOTH",
"863 1118 OFFCURVE",
"805 1098 OFFCURVE",
"744 1057 CURVE SMOOTH",
"623 976 OFFCURVE",
"506 823 OFFCURVE",
"435 658 CURVE",
"416 881 OFFCURVE",
"341 1030 OFFCURVE",
"186 1118 CURVE",
"120 1028 LINE",
"216 973 OFFCURVE",
"261 867 OFFCURVE",
"261 610 CURVE SMOOTH",
"261 397 OFFCURVE",
"222 140 OFFCURVE",
"166 -5 CURVE",
"358 50 LINE",
"385 129 OFFCURVE",
"406 211 OFFCURVE",
"421 294 CURVE",
"459 419 OFFCURVE",
"506 535 OFFCURVE",
"563 641 CURVE SMOOTH",
"676 853 OFFCURVE",
"803 978 OFFCURVE",
"895 978 CURVE SMOOTH",
"961 978 OFFCURVE",
"994 881 OFFCURVE",
"994 687 CURVE SMOOTH",
"994 598 OFFCURVE",
"992 519 OFFCURVE",
"988 448 CURVE SMOOTH",
"983 377 OFFCURVE",
"981 312 OFFCURVE",
"981 253 CURVE SMOOTH",
"981 142 OFFCURVE",
"996 55 OFFCURVE",
"1026 -10 CURVE"
);
}
);
width = 1323;
}
);
note = uniAA80;
unicode = AA80;
},
{
glyphname = uniAA81;
lastChange = "2016-11-10 14:43:39 +0000";
layers = (
{
layerId = "BE16C792-0DFB-4FCD-B142-35321F01CEFF";
paths = (
{
closed = 1;
nodes = (
"1149 49 LINE",
"1121 108 OFFCURVE",
"1107 187 OFFCURVE",
"1107 284 CURVE SMOOTH",
"1107 351 OFFCURVE",
"1109 420 OFFCURVE",
"1114 491 CURVE SMOOTH",
"1118 562 OFFCURVE",
"1120 632 OFFCURVE",
"1120 699 CURVE SMOOTH",
"1120 759 OFFCURVE",
"1115 815 OFFCURVE",
"1104 867 CURVE",
"1241 957 OFFCURVE",
"1354 1020 OFFCURVE",
"1445 1055 CURVE",
"1417 1137 LINE",
"1305 1095 OFFCURVE",
"1189 1039 OFFCURVE",
"1070 968 CURVE",
"1020 1068 OFFCURVE",
"931 1118 OFFCURVE",
"802 1118 CURVE SMOOTH",
"432 1118 OFFCURVE",
"198 744 OFFCURVE",
"100 -5 CURVE",
"286 49 LINE",
"286 50 LINE",
"405 266 OFFCURVE",
"652 531 OFFCURVE",
"939 748 CURVE",
"940 718 LINE",
"940 687 LINE SMOOTH",
"940 598 OFFCURVE",
"938 519 OFFCURVE",
"934 448 CURVE SMOOTH",
"929 377 OFFCURVE",
"927 312 OFFCURVE",
"927 253 CURVE SMOOTH",
"927 144 OFFCURVE",
"942 57 OFFCURVE",
"972 -8 CURVE"
);
},
{
closed = 1;
nodes = (
"402 760 OFFCURVE",
"562 978 OFFCURVE",
"786 978 CURVE SMOOTH",
"857 978 OFFCURVE",
"902 943 OFFCURVE",
"923 874 CURVE",
"685 713 OFFCURVE",
"484 533 OFFCURVE",
"321 332 CURVE"
);
}
);
width = 1465;
}
);
note = uniAA81;
unicode = AA81;
},
{
glyphname = uniAA82;
lastChange = "2016-11-10 14:43:39 +0000";
layers = (
{
layerId = "BE16C792-0DFB-4FCD-B142-35321F01CEFF";
paths = (
{
closed = 1;
nodes = (
"1864 -380 OFFCURVE",
"1989 -275 OFFCURVE",
"1989 -104 CURVE SMOOTH",
"1989 59 OFFCURVE",
"1848 163 OFFCURVE",
"1604 166 CURVE",
"1611 326 OFFCURVE",
"1632 486 OFFCURVE",
"1667 646 CURVE SMOOTH",
"1735 965 OFFCURVE",
"1841 1199 OFFCURVE",
"1964 1322 CURVE",
"1916 1385 LINE",
"1645 1125 OFFCURVE",
"1477 710 OFFCURVE",
"1430 157 CURVE",
"1344 146 LINE",
"1241 129 OFFCURVE",
"1153 120 OFFCURVE",
"1080 120 CURVE SMOOTH",
"1011 120 OFFCURVE",
"992 147 OFFCURVE",
"992 192 CURVE SMOOTH",
"992 217 OFFCURVE",
"995 248 OFFCURVE",
"1000 285 CURVE SMOOTH",
"1005 322 OFFCURVE",
"1018 399 OFFCURVE",
"1040 514 CURVE SMOOTH",
"1072 682 OFFCURVE",
"1088 801 OFFCURVE",
"1088 870 CURVE SMOOTH",
"1088 916 OFFCURVE",
"1078 958 OFFCURVE",
"1058 996 CURVE SMOOTH",
"1018 1071 OFFCURVE",
"940 1118 OFFCURVE",
"832 1118 CURVE SMOOTH",
"710 1118 OFFCURVE",
"599 1073 OFFCURVE",
"498 982 CURVE SMOOTH",
"296 800 OFFCURVE",
"156 451 OFFCURVE",
"100 -5 CURVE",
"296 49 LINE",
"317 189 OFFCURVE",
"339 340 OFFCURVE",
"372 477 CURVE SMOOTH",
"405 614 OFFCURVE",
"451 740 OFFCURVE",
"517 831 CURVE SMOOTH",
"583 922 OFFCURVE",
"670 978 OFFCURVE",
"790 978 CURVE SMOOTH",
"855 978 OFFCURVE",
"908 926 OFFCURVE",
"908 854 CURVE SMOOTH",
"908 734 OFFCURVE",
"884 608 OFFCURVE",
"860 493 CURVE SMOOTH",
"836 378 OFFCURVE",
"812 273 OFFCURVE",
"812 196 CURVE SMOOTH",
"812 59 OFFCURVE",
"892 -20 OFFCURVE",
"1047 -20 CURVE SMOOTH",
"1136 -20 OFFCURVE",
"1231 -12 OFFCURVE",
"1330 3 CURVE SMOOTH",
"1430 18 OFFCURVE",
"1522 26 OFFCURVE",
"1607 26 CURVE SMOOTH",
"1752 26 OFFCURVE",
"1839 -33 OFFCURVE",
"1839 -121 CURVE SMOOTH",
"1839 -217 OFFCURVE",
"1780 -270 OFFCURVE",
"1637 -270 CURVE SMOOTH",
"1570 -270 OFFCURVE",
"1491 -249 OFFCURVE",
"1440 -210 CURVE",
"1395 -274 LINE",
"1476 -345 OFFCURVE",
"1563 -380 OFFCURVE",
"1655 -380 CURVE SMOOTH"
);
}
);
width = 2089;
}
);
note = uniAA82;
unicode = AA82;
},
{
glyphname = uniAA83;
lastChange = "2016-11-10 14:43:39 +0000";
layers = (
{
layerId = "BE16C792-0DFB-4FCD-B142-35321F01CEFF";
paths = (
{
closed = 1;
nodes = (
"1364 -533 OFFCURVE",
"1513 -440 OFFCURVE",
"1664 -321 CURVE SMOOTH",
"1964 -85 OFFCURVE",
"2115 148 OFFCURVE",
"2115 345 CURVE SMOOTH",
"2115 492 OFFCURVE",
"2024 588 OFFCURVE",
"1895 588 CURVE SMOOTH",
"1874 588 OFFCURVE",
"1854 586 OFFCURVE",
"1833 582 CURVE",
"1879 656 OFFCURVE",
"1902 735 OFFCURVE",
"1902 820 CURVE SMOOTH",
"1902 1016 OFFCURVE",
"1795 1118 OFFCURVE",
"1616 1118 CURVE SMOOTH",
"1557 1118 OFFCURVE",
"1506 1106 OFFCURVE",
"1462 1081 CURVE SMOOTH",
"1373 1031 OFFCURVE",
"1308 938 OFFCURVE",
"1241 753 CURVE SMOOTH",
"1208 660 OFFCURVE",
"1158 482 OFFCURVE",
"1093 218 CURVE",
"1042 383 OFFCURVE",
"938 879 OFFCURVE",
"913 1019 CURVE SMOOTH",
"901 1085 OFFCURVE",
"871 1118 OFFCURVE",
"824 1118 CURVE SMOOTH",
"798 1118 OFFCURVE",
"761 1072 OFFCURVE",
"714 981 CURVE SMOOTH",
"619 797 OFFCURVE",
"522 505 OFFCURVE",
"453 204 CURVE",
"404 292 OFFCURVE",
"284 875 OFFCURVE",
"263 1118 CURVE",
"100 1081 LINE",
"103 990 OFFCURVE",
"133 791 OFFCURVE",
"177 588 CURVE SMOOTH",
"220 385 OFFCURVE",
"270 210 OFFCURVE",
"311 110 CURVE SMOOTH",
"351 9 OFFCURVE",
"375 -20 OFFCURVE",
"440 -20 CURVE SMOOTH",
"499 -20 OFFCURVE",
"533 33 OFFCURVE",
"557 132 CURVE SMOOTH",
"598 301 OFFCURVE",
"639 453 OFFCURVE",
"680 590 CURVE SMOOTH",
"721 726 OFFCURVE",
"753 809 OFFCURVE",
"778 839 CURVE",
"793 700 OFFCURVE",
"850 418 OFFCURVE",
"914 203 CURVE SMOOTH",
"945 96 OFFCURVE",
"970 32 OFFCURVE",
"988 11 CURVE SMOOTH",
"1006 -10 OFFCURVE",
"1030 -20 OFFCURVE",
"1061 -20 CURVE SMOOTH",
"1120 -20 OFFCURVE",
"1149 2 OFFCURVE",
"1162 45 CURVE SMOOTH",
"1207 191 OFFCURVE",
"1261 377 OFFCURVE",
"1324 604 CURVE SMOOTH",
"1355 713 OFFCURVE",
"1382 791 OFFCURVE",
"1406 839 CURVE SMOOTH",
"1453 935 OFFCURVE",
"1509 978 OFFCURVE",
"1590 978 CURVE SMOOTH",
"1671 978 OFFCURVE",
"1722 914 OFFCURVE",
"1722 802 CURVE SMOOTH",
"1722 681 OFFCURVE",
"1632 521 OFFCURVE",
"1524 438 CURVE",
"1597 339 LINE",
"1639 376 OFFCURVE",
"1670 400 OFFCURVE",
"1691 412 CURVE SMOOTH",
"1731 436 OFFCURVE",
"1772 448 OFFCURVE",
"1827 448 CURVE SMOOTH",
"1890 448 OFFCURVE",
"1935 409 OFFCURVE",
"1935 312 CURVE SMOOTH",
"1935 47 OFFCURVE",
"1631 -290 OFFCURVE",
"1168 -523 CURVE",
"1215 -600 LINE"
);
}
);
width = 2195;
}
);
note = uniAA83;
unicode = AA83;
},
{
glyphname = uniAA84;
lastChange = "2016-11-10 14:43:39 +0000";
layers = (
{
layerId = "BE16C792-0DFB-4FCD-B142-35321F01CEFF";
paths = (
{
closed = 1;
nodes = (
"1768 -40 OFFCURVE",
"1809 -32 OFFCURVE",
"1847 -17 CURVE SMOOTH",
"1922 14 OFFCURVE",
"1970 71 OFFCURVE",
"1970 126 CURVE SMOOTH",
"1970 234 OFFCURVE",
"1888 297 OFFCURVE",
"1740 297 CURVE SMOOTH",
"1685 297 OFFCURVE",
"1626 289 OFFCURVE",
"1563 272 CURVE",
"1559 304 OFFCURVE",
"1557 339 OFFCURVE",
"1557 378 CURVE SMOOTH",
"1557 741 OFFCURVE",
"1681 1066 OFFCURVE",
"1921 1322 CURVE",
"1873 1385 LINE",
"1568 1112 OFFCURVE",
"1377 716 OFFCURVE",
"1377 371 CURVE SMOOTH",
"1377 314 OFFCURVE",
"1384 262 OFFCURVE",
"1398 213 CURVE",
"1309 176 OFFCURVE",
"1251 153 OFFCURVE",
"1224 145 CURVE SMOOTH",
"1171 128 OFFCURVE",
"1127 120 OFFCURVE",
"1080 120 CURVE SMOOTH",
"1011 120 OFFCURVE",
"992 147 OFFCURVE",
"992 192 CURVE SMOOTH",
"992 271 OFFCURVE",
"1016 387 OFFCURVE",
"1040 509 CURVE SMOOTH",
"1064 631 OFFCURVE",
"1088 758 OFFCURVE",
"1088 859 CURVE SMOOTH",
"1088 1015 OFFCURVE",
"989 1118 OFFCURVE",
"832 1118 CURVE SMOOTH",
"711 1118 OFFCURVE",
"601 1073 OFFCURVE",
"500 982 CURVE SMOOTH",
"298 800 OFFCURVE",
"149 436 OFFCURVE",
"100 -5 CURVE",
"296 49 LINE",
"329 274 OFFCURVE",
"360 439 OFFCURVE",
"389 542 CURVE SMOOTH",
"418 645 OFFCURVE",
"451 727 OFFCURVE",
"488 789 CURVE SMOOTH",
"563 912 OFFCURVE",
"662 978 OFFCURVE",
"790 978 CURVE SMOOTH",
"855 978 OFFCURVE",
"908 916 OFFCURVE",
"908 843 CURVE SMOOTH",
"908 723 OFFCURVE",
"884 600 OFFCURVE",
"860 488 CURVE SMOOTH",
"836 376 OFFCURVE",
"812 273 OFFCURVE",
"812 196 CURVE SMOOTH",
"812 59 OFFCURVE",
"892 -20 OFFCURVE",
"1047 -20 CURVE SMOOTH",
"1092 -20 OFFCURVE",
"1133 -16 OFFCURVE",
"1170 -8 CURVE SMOOTH",
"1244 8 OFFCURVE",
"1293 23 OFFCURVE",
"1448 103 CURVE",
"1509 8 OFFCURVE",
"1600 -40 OFFCURVE",
"1723 -40 CURVE SMOOTH"
);
},
{
closed = 1;
nodes = (
"1664 70 OFFCURVE",
"1618 102 OFFCURVE",
"1591 165 CURVE",
"1638 180 OFFCURVE",
"1683 187 OFFCURVE",
"1728 187 CURVE SMOOTH",
"1784 187 OFFCURVE",
"1820 165 OFFCURVE",
"1820 124 CURVE SMOOTH",
"1820 88 OFFCURVE",
"1790 70 OFFCURVE",
"1729 70 CURVE SMOOTH"
);
}
);
width = 2020;
}
);
note = uniAA84;
unicode = AA84;
},
{
glyphname = uniAA85;
lastChange = "2016-11-10 14:43:39 +0000";
layers = (
{
layerId = "BE16C792-0DFB-4FCD-B142-35321F01CEFF";
paths = (
{
closed = 1;
nodes = (
"620 -335 OFFCURVE",
"900 -40 OFFCURVE",
"900 323 CURVE SMOOTH",
"900 375 OFFCURVE",
"890 421 OFFCURVE",
"870 461 CURVE SMOOTH",
"830 541 OFFCURVE",
"756 588 OFFCURVE",
"680 588 CURVE SMOOTH",
"659 588 OFFCURVE",
"639 586 OFFCURVE",
"618 582 CURVE",
"677 654 OFFCURVE",
"711 749 OFFCURVE",
"711 844 CURVE SMOOTH",
"711 1020 OFFCURVE",
"599 1118 OFFCURVE",
"392 1118 CURVE SMOOTH",
"211 1118 OFFCURVE",
"75 983 OFFCURVE",
"70 796 CURVE",
"171 796 LINE",
"194 920 OFFCURVE",
"255 978 OFFCURVE",
"380 978 CURVE SMOOTH",
"481 978 OFFCURVE",
"531 929 OFFCURVE",
"531 832 CURVE SMOOTH",
"531 697 OFFCURVE",
"455 582 OFFCURVE",
"310 498 CURVE",
"383 399 LINE",
"428 431 OFFCURVE",
"500 457 OFFCURVE",
"567 457 CURVE SMOOTH",
"658 457 OFFCURVE",
"720 388 OFFCURVE",
"720 289 CURVE SMOOTH",
"720 -50 OFFCURVE",
"479 -300 OFFCURVE",
"-50 -523 CURVE",
"-3 -600 LINE"
);
}
);
width = 980;
}
);
note = uniAA85;
unicode = AA85;
},
{
glyphname = uniAA86;
lastChange = "2016-11-10 14:43:39 +0000";
layers = (
{
layerId = "BE16C792-0DFB-4FCD-B142-35321F01CEFF";
paths = (
{
closed = 1;
nodes = (
"266 -526 OFFCURVE",
"434 -429 OFFCURVE",
"581 -310 CURVE SMOOTH",
"874 -71 OFFCURVE",
"1040 228 OFFCURVE",
"1040 535 CURVE SMOOTH",
"1040 903 OFFCURVE",
"842 1118 OFFCURVE",
"521 1118 CURVE SMOOTH",
"440 1118 OFFCURVE",
"367 1102 OFFCURVE",
"303 1069 CURVE SMOOTH",
"174 1004 OFFCURVE",
"100 880 OFFCURVE",
"100 743 CURVE SMOOTH",
"100 559 OFFCURVE",
"250 420 OFFCURVE",
"438 420 CURVE SMOOTH",
"467 420 OFFCURVE",
"492 422 OFFCURVE",
"515 427 CURVE",
"486 534 LINE",
"475 531 OFFCURVE",
"461 530 OFFCURVE",
"444 530 CURVE SMOOTH",
"339 530 OFFCURVE",
"280 605 OFFCURVE",
"280 745 CURVE SMOOTH",
"280 893 OFFCURVE",
"380 978 OFFCURVE",
"528 978 CURVE SMOOTH",
"739 978 OFFCURVE",
"860 820 OFFCURVE",
"860 540 CURVE SMOOTH",
"860 75 OFFCURVE",
"579 -291 OFFCURVE",
"30 -523 CURVE",
"77 -600 LINE"
);
}
);
width = 1140;
}
);
note = uniAA86;
unicode = AA86;
},
{
glyphname = uniAA87;
lastChange = "2016-11-10 14:43:39 +0000";
layers = (
{
layerId = "BE16C792-0DFB-4FCD-B142-35321F01CEFF";
paths = (
{
closed = 1;
nodes = (
"563 -509 OFFCURVE",
"701 -417 OFFCURVE",
"815 -304 CURVE SMOOTH",
"1042 -80 OFFCURVE",
"1162 214 OFFCURVE",
"1162 542 CURVE SMOOTH",
"1162 673 OFFCURVE",
"1132 790 OFFCURVE",
"1071 891 CURVE",
"1158 960 OFFCURVE",
"1245 1020 OFFCURVE",
"1330 1069 CURVE",
"1291 1138 LINE",
"1192 1094 OFFCURVE",
"1098 1040 OFFCURVE",
"1010 976 CURVE",
"917 1084 OFFCURVE",
"800 1138 OFFCURVE",
"660 1138 CURVE SMOOTH",
"549 1138 OFFCURVE",
"452 1111 OFFCURVE",
"371 1056 CURVE SMOOTH",
"207 946 OFFCURVE",
"120 741 OFFCURVE",
"120 481 CURVE SMOOTH",
"120 328 OFFCURVE",
"149 143 OFFCURVE",
"196 15 CURVE",
"376 68 LINE",
"377 68 LINE",
"522 333 OFFCURVE",
"709 570 OFFCURVE",
"940 779 CURVE",
"968 708 OFFCURVE",
"982 624 OFFCURVE",
"982 527 CURVE SMOOTH",
"982 32 OFFCURVE",
"785 -291 OFFCURVE",
"353 -503 CURVE",
"400 -580 LINE"
);
},
{
closed = 1;
nodes = (
"307 316 OFFCURVE",
"300 413 OFFCURVE",
"300 527 CURVE SMOOTH",
"300 820 OFFCURVE",
"426 998 OFFCURVE",
"641 998 CURVE SMOOTH",
"743 998 OFFCURVE",
"825 959 OFFCURVE",
"886 880 CURVE",
"686 711 OFFCURVE",
"498 496 OFFCURVE",
"322 235 CURVE"
);
}
);
width = 1350;
}
);
note = uniAA87;
unicode = AA87;
},
{
glyphname = uniAA88;
lastChange = "2016-11-10 14:43:39 +0000";
layers = (
{
layerId = "BE16C792-0DFB-4FCD-B142-35321F01CEFF";
paths = (
{
closed = 1;
nodes = (
"2221 -40 OFFCURVE",
"2320 38 OFFCURVE",
"2320 126 CURVE SMOOTH",
"2320 234 OFFCURVE",
"2238 297 OFFCURVE",
"2090 297 CURVE SMOOTH",
"2037 297 OFFCURVE",
"1977 289 OFFCURVE",
"1912 273 CURVE",
"1899 348 OFFCURVE",
"1893 477 OFFCURVE",
"1893 660 CURVE SMOOTH",
"1893 794 OFFCURVE",
"1906 910 OFFCURVE",
"1931 1008 CURVE",
"1965 1004 OFFCURVE",
"1999 1002 OFFCURVE",
"2033 1002 CURVE SMOOTH",
"2241 1002 OFFCURVE",
"2416 1107 OFFCURVE",
"2416 1238 CURVE SMOOTH",
"2416 1329 OFFCURVE",
"2343 1385 OFFCURVE",
"2223 1385 CURVE SMOOTH",
"2070 1385 OFFCURVE",
"1933 1294 OFFCURVE",
"1837 1129 CURVE",
"1751 1144 OFFCURVE",
"1658 1170 OFFCURVE",
"1559 1207 CURVE",
"1527 1137 LINE",
"1597 1093 OFFCURVE",
"1685 1058 OFFCURVE",
"1790 1033 CURVE",
"1739 910 OFFCURVE",
"1713 789 OFFCURVE",
"1713 668 CURVE SMOOTH",
"1713 481 OFFCURVE",
"1731 336 OFFCURVE",
"1767 234 CURVE",
"1765 234 LINE",
"1766 230 LINE",
"1658 192 LINE SMOOTH",
"1583 164 OFFCURVE",
"1529 145 OFFCURVE",
"1495 135 CURVE SMOOTH",
"1461 125 OFFCURVE",
"1434 120 OFFCURVE",
"1413 120 CURVE SMOOTH",
"1344 120 OFFCURVE",
"1325 147 OFFCURVE",
"1325 192 CURVE SMOOTH",
"1325 253 OFFCURVE",
"1336 360 OFFCURVE",
"1358 514 CURVE SMOOTH",
"1380 668 OFFCURVE",
"1391 787 OFFCURVE",
"1391 870 CURVE SMOOTH",
"1391 913 OFFCURVE",
"1381 954 OFFCURVE",
"1361 992 CURVE SMOOTH",
"1320 1068 OFFCURVE",
"1247 1118 OFFCURVE",
"1152 1118 CURVE SMOOTH",
"1073 1118 OFFCURVE",
"951 1069 OFFCURVE",
"859 997 CURVE",
"849 1098 LINE",
"666 1036 LINE",
"680 941 OFFCURVE",
"687 841 OFFCURVE",
"687 734 CURVE SMOOTH",
"687 505 OFFCURVE",
"668 346 OFFCURVE",
"631 256 CURVE SMOOTH",
"593 165 OFFCURVE",
"535 120 OFFCURVE",
"458 120 CURVE SMOOTH",
"415 120 OFFCURVE",
"383 143 OFFCURVE",
"362 188 CURVE SMOOTH",
"340 233 OFFCURVE",
"329 307 OFFCURVE",
"329 411 CURVE SMOOTH",
"329 500 OFFCURVE",
"331 581 OFFCURVE",
"336 655 CURVE SMOOTH",
"340 729 OFFCURVE",
"342 796 OFFCURVE",
"342 855 CURVE SMOOTH",
"342 964 OFFCURVE",
"327 1051 OFFCURVE",
"297 1116 CURVE",
"120 1058 LINE",
"148 999 OFFCURVE",
"162 921 OFFCURVE",
"162 824 CURVE SMOOTH",
"162 778 OFFCURVE",
"160 707 OFFCURVE",
"156 612 CURVE SMOOTH",
"151 517 OFFCURVE",
"149 446 OFFCURVE",
"149 399 CURVE SMOOTH",
"149 136 OFFCURVE",
"246 -20 OFFCURVE",
"421 -20 CURVE SMOOTH",
"693 -20 OFFCURVE",
"867 302 OFFCURVE",
"867 799 CURVE",
"864 907 LINE",
"927 947 OFFCURVE",
"1025 978 OFFCURVE",
"1093 978 CURVE SMOOTH",
"1158 978 OFFCURVE",
"1211 926 OFFCURVE",
"1211 854 CURVE SMOOTH",
"1211 734 OFFCURVE",
"1194 608 OFFCURVE",
"1178 493 CURVE SMOOTH",
"1162 378 OFFCURVE",
"1145 273 OFFCURVE",
"1145 196 CURVE SMOOTH",
"1145 59 OFFCURVE",
"1225 -20 OFFCURVE",
"1380 -20 CURVE SMOOTH",
"1480 -20 OFFCURVE",
"1593 9 OFFCURVE",
"1719 68 CURVE SMOOTH",
"1820 114 LINE",
"1883 11 OFFCURVE",
"1971 -40 OFFCURVE",
"2084 -40 CURVE SMOOTH"
);
},
{
closed = 1;
nodes = (
"2022 70 OFFCURVE",
"1979 101 OFFCURVE",
"1949 164 CURVE",
"1998 179 OFFCURVE",
"2045 187 OFFCURVE",
"2092 187 CURVE SMOOTH",
"2144 187 OFFCURVE",
"2170 166 OFFCURVE",
"2170 124 CURVE SMOOTH",
"2170 95 OFFCURVE",
"2128 70 OFFCURVE",
"2079 70 CURVE SMOOTH"
);
},
{
closed = 1;
nodes = (
"1968 1114 LINE",
"2019 1221 OFFCURVE",
"2090 1275 OFFCURVE",
"2182 1275 CURVE SMOOTH",
"2242 1275 OFFCURVE",
"2266 1258 OFFCURVE",
"2266 1221 CURVE SMOOTH",
"2266 1202 OFFCURVE",
"2257 1184 OFFCURVE",
"2239 1167 CURVE SMOOTH",
"2203 1134 OFFCURVE",
"2133 1112 OFFCURVE",
"2038 1112 CURVE SMOOTH",
"2004 1112 LINE"
);
}
);
width = 2466;
}
);
note = uniAA88;
unicode = AA88;
},
{
glyphname = uniAA89;
lastChange = "2016-11-10 14:43:39 +0000";
layers = (
{
layerId = "BE16C792-0DFB-4FCD-B142-35321F01CEFF";
paths = (
{
closed = 1;
nodes = (
"684 -20 OFFCURVE",
"763 0 OFFCURVE",
"834 41 CURVE SMOOTH",
"977 122 OFFCURVE",
"1060 276 OFFCURVE",
"1060 459 CURVE SMOOTH",
"1060 529 OFFCURVE",
"1045 595 OFFCURVE",
"1016 657 CURVE SMOOTH",
"956 781 OFFCURVE",
"848 854 OFFCURVE",
"715 854 CURVE SMOOTH",
"588 854 OFFCURVE",
"483 775 OFFCURVE",
"451 668 CURVE",
"552 623 LINE",
"575 704 OFFCURVE",
"624 744 OFFCURVE",
"700 744 CURVE SMOOTH",
"812 744 OFFCURVE",
"880 640 OFFCURVE",
"880 460 CURVE SMOOTH",
"880 249 OFFCURVE",
"774 120 OFFCURVE",
"599 120 CURVE SMOOTH",
"402 120 OFFCURVE",
"300 251 OFFCURVE",
"300 496 CURVE SMOOTH",
"300 603 OFFCURVE",
"312 700 OFFCURVE",
"336 785 CURVE SMOOTH",
"384 956 OFFCURVE",
"479 1093 OFFCURVE",
"731 1334 CURVE",
"676 1385 LINE",
"300 1068 OFFCURVE",
"120 781 OFFCURVE",
"120 496 CURVE SMOOTH",
"120 397 OFFCURVE",
"139 307 OFFCURVE",
"178 228 CURVE SMOOTH",
"254 69 OFFCURVE",
"404 -20 OFFCURVE",
"597 -20 CURVE SMOOTH"
);
}
);
width = 1180;
}
);
note = uniAA89;
unicode = AA89;
},
{
glyphname = uniAA8A;
lastChange = "2016-11-10 14:43:39 +0000";
layers = (
{
layerId = "BE16C792-0DFB-4FCD-B142-35321F01CEFF";
paths = (
{
closed = 1;
nodes = (
"501 -20 OFFCURVE",
"539 -14 OFFCURVE",
"576 -3 CURVE SMOOTH",
"651 20 OFFCURVE",
"722 54 OFFCURVE",
"793 92 CURVE SMOOTH",
"828 111 OFFCURVE",
"864 128 OFFCURVE",
"899 144 CURVE",
"971 35 OFFCURVE",
"1056 -20 OFFCURVE",
"1155 -20 CURVE SMOOTH",
"1268 -20 OFFCURVE",
"1353 46 OFFCURVE",
"1353 133 CURVE SMOOTH",
"1353 237 OFFCURVE",
"1258 305 OFFCURVE",
"1101 305 CURVE SMOOTH",
"1068 305 OFFCURVE",
"1032 301 OFFCURVE",
"994 294 CURVE",
"982 346 OFFCURVE",
"976 447 OFFCURVE",
"976 598 CURVE SMOOTH",
"976 782 OFFCURVE",
"1004 976 OFFCURVE",
"1061 1180 CURVE SMOOTH",
"1174 1588 OFFCURVE",
"1373 1900 OFFCURVE",
"1625 2087 CURVE",
"1577 2160 LINE",
"1415 2043 OFFCURVE",
"1276 1904 OFFCURVE",
"1160 1745 CURVE SMOOTH",
"928 1426 OFFCURVE",
"796 1015 OFFCURVE",
"796 598 CURVE SMOOTH",
"796 474 OFFCURVE",
"815 341 OFFCURVE",
"846 250 CURVE",
"743 207 LINE SMOOTH",
"664 172 OFFCURVE",
"609 148 OFFCURVE",
"576 137 CURVE SMOOTH",
"543 126 OFFCURVE",
"516 120 OFFCURVE",
"495 120 CURVE SMOOTH",
"438 120 OFFCURVE",
"417 140 OFFCURVE",
"406 191 CURVE SMOOTH",
"400 216 OFFCURVE",
"397 253 OFFCURVE",
"397 301 CURVE SMOOTH",
"397 689 OFFCURVE",
"360 961 OFFCURVE",
"287 1116 CURVE",
"120 1058 LINE",
"184 907 OFFCURVE",
"217 596 OFFCURVE",
"217 280 CURVE SMOOTH",
"217 72 OFFCURVE",
"291 -20 OFFCURVE",
"462 -20 CURVE SMOOTH"
);
},
{
closed = 1;
nodes = (
"1094 90 OFFCURVE",
"1060 121 OFFCURVE",
"1035 188 CURVE",
"1062 193 OFFCURVE",
"1086 195 OFFCURVE",
"1108 195 CURVE SMOOTH",
"1171 195 OFFCURVE",
"1203 176 OFFCURVE",
"1203 137 CURVE SMOOTH",
"1203 104 OFFCURVE",
"1172 90 OFFCURVE",
"1143 90 CURVE SMOOTH"
);
}
);
width = 1425;
}
);
note = uniAA8A;
unicode = AA8A;
},
{
glyphname = uniAA8B;
lastChange = "2016-11-10 14:43:39 +0000";
layers = (
{
layerId = "BE16C792-0DFB-4FCD-B142-35321F01CEFF";
paths = (
{
closed = 1;
nodes = (
"1667 -523 LINE",
"1230 -344 OFFCURVE",
"983 -42 OFFCURVE",
"983 306 CURVE SMOOTH",
"983 415 OFFCURVE",
"992 507 OFFCURVE",
"1010 580 CURVE SMOOTH",
"1045 726 OFFCURVE",
"1119 870 OFFCURVE",
"1251 1037 CURVE",
"1188 1092 LINE",
"1145 1049 OFFCURVE",
"1104 1004 OFFCURVE",
"1067 957 CURVE",
"1010 1007 OFFCURVE",
"966 1041 OFFCURVE",
"933 1059 CURVE SMOOTH",
"867 1095 OFFCURVE",
"790 1118 OFFCURVE",
"691 1118 CURVE SMOOTH",
"596 1118 OFFCURVE",
"504 1081 OFFCURVE",
"414 1008 CURVE SMOOTH",
"233 860 OFFCURVE",
"100 583 OFFCURVE",
"100 358 CURVE SMOOTH",
"100 147 OFFCURVE",
"205 25 OFFCURVE",
"390 25 CURVE SMOOTH",
"498 25 OFFCURVE",
"606 97 OFFCURVE",
"658 201 CURVE",
"592 241 LINE",
"537 170 OFFCURVE",
"481 135 OFFCURVE",
"424 135 CURVE SMOOTH",
"327 135 OFFCURVE",
"280 196 OFFCURVE",
"280 360 CURVE SMOOTH",
"280 449 OFFCURVE",
"300 544 OFFCURVE",
"339 644 CURVE SMOOTH",
"417 843 OFFCURVE",
"546 978 OFFCURVE",
"667 978 CURVE SMOOTH",
"716 978 OFFCURVE",
"758 972 OFFCURVE",
"794 961 CURVE SMOOTH",
"866 938 OFFCURVE",
"914 904 OFFCURVE",
"970 816 CURVE",
"857 632 OFFCURVE",
"803 447 OFFCURVE",
"803 298 CURVE SMOOTH",
"803 -85 OFFCURVE",
"1080 -393 OFFCURVE",
"1620 -600 CURVE"
);
}
);
width = 1347;
}
);
note = uniAA8B;
unicode = AA8B;
},
{
glyphname = uniAA8C;
lastChange = "2016-11-10 14:43:39 +0000";
layers = (
{
layerId = "BE16C792-0DFB-4FCD-B142-35321F01CEFF";
paths = (
{
closed = 1;
nodes = (
"501 -20 OFFCURVE",
"539 -14 OFFCURVE",
"576 -3 CURVE SMOOTH",
"651 20 OFFCURVE",
"722 54 OFFCURVE",
"793 92 CURVE SMOOTH",
"828 111 OFFCURVE",
"864 128 OFFCURVE",
"899 144 CURVE",
"971 35 OFFCURVE",
"1056 -20 OFFCURVE",
"1155 -20 CURVE SMOOTH",
"1268 -20 OFFCURVE",
"1353 46 OFFCURVE",
"1353 133 CURVE SMOOTH",
"1353 237 OFFCURVE",
"1258 305 OFFCURVE",
"1101 305 CURVE SMOOTH",
"1068 305 OFFCURVE",
"1032 301 OFFCURVE",
"994 294 CURVE",
"982 346 OFFCURVE",
"976 447 OFFCURVE",
"976 598 CURVE SMOOTH",
"976 802 OFFCURVE",
"1008 1008 OFFCURVE",
"1056 1088 CURVE",
"1058 1090 LINE",
"1037 1197 LINE",
"1002 1188 OFFCURVE",
"981 1184 OFFCURVE",
"974 1183 CURVE SMOOTH",
"967 1182 OFFCURVE",
"958 1181 OFFCURVE",
"948 1181 CURVE SMOOTH",
"833 1181 OFFCURVE",
"770 1270 OFFCURVE",
"770 1422 CURVE SMOOTH",
"770 1745 OFFCURVE",
"1013 1970 OFFCURVE",
"1500 2099 CURVE",
"1477 2160 LINE",
"1306 2135 OFFCURVE",
"1151 2086 OFFCURVE",
"1011 2013 CURVE SMOOTH",
"731 1865 OFFCURVE",
"587 1655 OFFCURVE",
"587 1410 CURVE SMOOTH",
"587 1227 OFFCURVE",
"687 1087 OFFCURVE",
"848 1052 CURVE",
"813 905 OFFCURVE",
"796 753 OFFCURVE",
"796 598 CURVE SMOOTH",
"796 474 OFFCURVE",
"815 341 OFFCURVE",
"846 250 CURVE",
"743 207 LINE SMOOTH",
"664 172 OFFCURVE",
"609 148 OFFCURVE",
"576 137 CURVE SMOOTH",
"543 126 OFFCURVE",
"516 120 OFFCURVE",
"495 120 CURVE SMOOTH",
"438 120 OFFCURVE",
"417 140 OFFCURVE",
"406 191 CURVE SMOOTH",
"400 216 OFFCURVE",
"397 253 OFFCURVE",
"397 301 CURVE SMOOTH",
"397 689 OFFCURVE",
"360 961 OFFCURVE",
"287 1116 CURVE",
"120 1058 LINE",
"184 907 OFFCURVE",
"217 596 OFFCURVE",
"217 280 CURVE SMOOTH",
"217 72 OFFCURVE",
"291 -20 OFFCURVE",
"462 -20 CURVE SMOOTH"
);
},
{
closed = 1;
nodes = (
"1094 90 OFFCURVE",
"1060 121 OFFCURVE",
"1035 188 CURVE",
"1062 193 OFFCURVE",
"1086 195 OFFCURVE",
"1108 195 CURVE SMOOTH",
"1171 195 OFFCURVE",
"1203 176 OFFCURVE",
"1203 137 CURVE SMOOTH",
"1203 104 OFFCURVE",
"1172 90 OFFCURVE",
"1143 90 CURVE SMOOTH"
);
}
);
width = 1380;
}
);
note = uniAA8C;
unicode = AA8C;
},
{
glyphname = uniAA8D;
lastChange = "2016-11-10 14:43:39 +0000";
layers = (
{
layerId = "BE16C792-0DFB-4FCD-B142-35321F01CEFF";
paths = (
{
closed = 1;
nodes = (
"1291 -381 OFFCURVE",
"1413 -275 OFFCURVE",
"1413 -104 CURVE SMOOTH",
"1413 -51 OFFCURVE",
"1399 -4 OFFCURVE",
"1370 37 CURVE SMOOTH",
"1313 120 OFFCURVE",
"1203 168 OFFCURVE",
"1050 168 CURVE",
"1009 166 LINE",
"987 234 OFFCURVE",
"976 378 OFFCURVE",
"976 598 CURVE SMOOTH",
"976 802 OFFCURVE",
"1008 1008 OFFCURVE",
"1056 1088 CURVE",
"1037 1197 LINE",
"1002 1188 OFFCURVE",
"981 1184 OFFCURVE",
"974 1183 CURVE SMOOTH",
"967 1182 OFFCURVE",
"958 1181 OFFCURVE",
"948 1181 CURVE SMOOTH",
"833 1181 OFFCURVE",
"770 1270 OFFCURVE",
"770 1422 CURVE SMOOTH",
"770 1745 OFFCURVE",
"1013 1970 OFFCURVE",
"1500 2099 CURVE",
"1477 2160 LINE",
"1306 2135 OFFCURVE",
"1151 2086 OFFCURVE",
"1011 2013 CURVE SMOOTH",
"731 1865 OFFCURVE",
"587 1655 OFFCURVE",
"587 1410 CURVE SMOOTH",
"587 1227 OFFCURVE",
"687 1087 OFFCURVE",
"848 1052 CURVE",
"813 887 OFFCURVE",
"796 736 OFFCURVE",
"796 598 CURVE SMOOTH",
"796 411 OFFCURVE",
"820 241 OFFCURVE",
"855 158 CURVE",
"764 145 LINE SMOOTH",
"659 128 OFFCURVE",
"571 120 OFFCURVE",
"500 120 CURVE SMOOTH",
"439 120 OFFCURVE",
"417 140 OFFCURVE",
"406 191 CURVE SMOOTH",
"400 216 OFFCURVE",
"397 253 OFFCURVE",
"397 301 CURVE SMOOTH",
"397 689 OFFCURVE",
"360 961 OFFCURVE",
"287 1116 CURVE",
"120 1058 LINE",
"184 907 OFFCURVE",
"217 596 OFFCURVE",
"217 280 CURVE SMOOTH",
"217 72 OFFCURVE",
"291 -20 OFFCURVE",
"462 -20 CURVE SMOOTH",
"551 -20 OFFCURVE",
"647 -12 OFFCURVE",
"752 3 CURVE SMOOTH",
"857 18 OFFCURVE",
"952 26 OFFCURVE",
"1037 26 CURVE SMOOTH",
"1173 26 OFFCURVE",
"1263 -29 OFFCURVE",
"1263 -129 CURVE SMOOTH",
"1263 -214 OFFCURVE",
"1182 -271 OFFCURVE",
"1073 -271 CURVE SMOOTH",
"992 -271 OFFCURVE",
"923 -251 OFFCURVE",
"864 -210 CURVE",
"819 -274 LINE",
"890 -339 OFFCURVE",
"995 -381 OFFCURVE",
"1092 -381 CURVE SMOOTH"
);
}
);
width = 1380;
}
);
note = uniAA8D;
unicode = AA8D;
},
{
glyphname = uniAA8E;
lastChange = "2016-11-10 14:43:39 +0000";
layers = (
{
layerId = "BE16C792-0DFB-4FCD-B142-35321F01CEFF";
paths = (
{
closed = 1;
nodes = (
"1097 -20 OFFCURVE",
"1109 -18 OFFCURVE",
"1124 -15 CURVE",
"1140 91 LINE",
"1126 90 LINE",
"1111 90 LINE SMOOTH",
"1046 90 OFFCURVE",
"987 119 OFFCURVE",
"935 176 CURVE SMOOTH",
"882 233 OFFCURVE",
"822 341 OFFCURVE",
"755 499 CURVE SMOOTH",
"698 632 LINE",
"859 820 OFFCURVE",
"1018 956 OFFCURVE",
"1175 1039 CURVE",
"1137 1118 LINE",
"958 1023 OFFCURVE",
"792 904 OFFCURVE",
"638 759 CURVE",
"518 991 OFFCURVE",
"397 1095 OFFCURVE",
"234 1118 CURVE",
"171 964 LINE",
"308 937 OFFCURVE",
"418 840 OFFCURVE",
"518 639 CURVE",
"344 451 OFFCURVE",
"211 248 OFFCURVE",
"120 29 CURVE",
"314 -10 LINE",
"364 145 OFFCURVE",
"455 313 OFFCURVE",
"588 492 CURVE",
"649 356 OFFCURVE",
"696 261 OFFCURVE",
"731 207 CURVE SMOOTH",
"765 152 OFFCURVE",
"799 109 OFFCURVE",
"834 78 CURVE SMOOTH",
"903 15 OFFCURVE",
"986 -20 OFFCURVE",
"1086 -20 CURVE SMOOTH"
);
}
);
width = 1255;
}
);
note = uniAA8E;
unicode = AA8E;
},
{
glyphname = uniAA8F;
lastChange = "2016-11-10 14:43:39 +0000";
layers = (
{
layerId = "BE16C792-0DFB-4FCD-B142-35321F01CEFF";
paths = (
{
closed = 1;
nodes = (
"1866 -40 OFFCURVE",
"1970 33 OFFCURVE",
"1970 132 CURVE SMOOTH",
"1970 232 OFFCURVE",
"1881 297 OFFCURVE",
"1742 297 CURVE SMOOTH",
"1691 297 OFFCURVE",
"1636 290 OFFCURVE",
"1579 275 CURVE",
"1566 340 OFFCURVE",
"1560 422 OFFCURVE",
"1560 523 CURVE SMOOTH",
"1560 717 OFFCURVE",
"1595 913 OFFCURVE",
"1664 1111 CURVE SMOOTH",
"1802 1507 OFFCURVE",
"2074 1867 OFFCURVE",
"2405 2087 CURVE",
"2357 2160 LINE",
"2156 2029 OFFCURVE",
"1983 1873 OFFCURVE",
"1836 1694 CURVE SMOOTH",
"1542 1335 OFFCURVE",
"1380 903 OFFCURVE",
"1380 486 CURVE SMOOTH",
"1380 383 OFFCURVE",
"1392 294 OFFCURVE",
"1417 220 CURVE",
"1331 184 LINE SMOOTH",
"1230 141 OFFCURVE",
"1146 120 OFFCURVE",
"1080 120 CURVE SMOOTH",
"1011 120 OFFCURVE",
"992 147 OFFCURVE",
"992 192 CURVE SMOOTH",
"992 271 OFFCURVE",
"1016 387 OFFCURVE",
"1040 509 CURVE SMOOTH",
"1064 631 OFFCURVE",
"1088 758 OFFCURVE",
"1088 859 CURVE SMOOTH",
"1088 1015 OFFCURVE",
"989 1118 OFFCURVE",
"832 1118 CURVE SMOOTH",
"711 1118 OFFCURVE",
"601 1073 OFFCURVE",
"500 982 CURVE SMOOTH",
"298 800 OFFCURVE",
"149 436 OFFCURVE",
"100 -5 CURVE",
"296 49 LINE",
"329 274 OFFCURVE",
"360 439 OFFCURVE",
"389 542 CURVE SMOOTH",
"418 645 OFFCURVE",
"451 727 OFFCURVE",
"488 789 CURVE SMOOTH",
"563 912 OFFCURVE",
"662 978 OFFCURVE",
"790 978 CURVE SMOOTH",
"855 978 OFFCURVE",
"908 916 OFFCURVE",
"908 843 CURVE SMOOTH",
"908 723 OFFCURVE",
"884 600 OFFCURVE",
"860 488 CURVE SMOOTH",
"836 376 OFFCURVE",
"812 273 OFFCURVE",
"812 196 CURVE SMOOTH",
"812 59 OFFCURVE",
"892 -20 OFFCURVE",
"1047 -20 CURVE SMOOTH",
"1152 -20 OFFCURVE",
"1261 9 OFFCURVE",
"1376 67 CURVE SMOOTH",
"1467 112 LINE",
"1535 5 OFFCURVE",
"1634 -40 OFFCURVE",
"1738 -40 CURVE SMOOTH"
);
},
{
closed = 1;
nodes = (
"1679 70 OFFCURVE",
"1639 103 OFFCURVE",
"1610 170 CURVE",
"1651 181 OFFCURVE",
"1691 187 OFFCURVE",
"1730 187 CURVE SMOOTH",
"1786 187 OFFCURVE",
"1822 165 OFFCURVE",
"1822 124 CURVE SMOOTH",
"1822 101 OFFCURVE",
"1790 70 OFFCURVE",
"1731 70 CURVE SMOOTH"
);
}
);
width = 2020;
}
);
note = uniAA8F;
unicode = AA8F;
},
{
glyphname = uniAA90;
lastChange = "2016-11-10 14:43:39 +0000";
layers = (
{
layerId = "BE16C792-0DFB-4FCD-B142-35321F01CEFF";
paths = (
{
closed = 1;
nodes = (
"1334 -528 OFFCURVE",
"1501 -426 OFFCURVE",
"1652 -293 CURVE SMOOTH",
"1952 -28 OFFCURVE",
"2132 315 OFFCURVE",
"2132 635 CURVE SMOOTH",
"2132 729 OFFCURVE",
"2120 813 OFFCURVE",
"2095 886 CURVE SMOOTH",
"2045 1033 OFFCURVE",
"1952 1118 OFFCURVE",
"1848 1118 CURVE SMOOTH",
"1827 1118 OFFCURVE",
"1808 1112 OFFCURVE",
"1790 1101 CURVE SMOOTH",
"1753 1077 OFFCURVE",
"1729 1045 OFFCURVE",
"1709 944 CURVE SMOOTH",
"1652 659 OFFCURVE",
"1593 452 OFFCURVE",
"1533 324 CURVE SMOOTH",
"1473 196 OFFCURVE",
"1408 132 OFFCURVE",
"1338 132 CURVE SMOOTH",
"1313 132 OFFCURVE",
"1300 149 OFFCURVE",
"1300 184 CURVE SMOOTH",
"1300 237 OFFCURVE",
"1315 345 OFFCURVE",
"1346 510 CURVE SMOOTH",
"1376 675 OFFCURVE",
"1391 795 OFFCURVE",
"1391 870 CURVE SMOOTH",
"1391 913 OFFCURVE",
"1381 954 OFFCURVE",
"1361 992 CURVE SMOOTH",
"1320 1068 OFFCURVE",
"1247 1118 OFFCURVE",
"1152 1118 CURVE SMOOTH",
"1073 1118 OFFCURVE",
"951 1069 OFFCURVE",
"859 997 CURVE",
"849 1098 LINE",
"666 1036 LINE",
"680 941 OFFCURVE",
"687 841 OFFCURVE",
"687 734 CURVE SMOOTH",
"687 505 OFFCURVE",
"668 346 OFFCURVE",
"631 256 CURVE SMOOTH",
"593 165 OFFCURVE",
"535 120 OFFCURVE",
"458 120 CURVE SMOOTH",
"415 120 OFFCURVE",
"383 143 OFFCURVE",
"362 188 CURVE SMOOTH",
"340 233 OFFCURVE",
"329 307 OFFCURVE",
"329 411 CURVE SMOOTH",
"329 500 OFFCURVE",
"331 581 OFFCURVE",
"336 655 CURVE SMOOTH",
"340 729 OFFCURVE",
"342 796 OFFCURVE",
"342 855 CURVE SMOOTH",
"342 964 OFFCURVE",
"327 1051 OFFCURVE",
"297 1116 CURVE",
"120 1058 LINE",
"148 999 OFFCURVE",
"162 921 OFFCURVE",
"162 824 CURVE SMOOTH",
"162 778 OFFCURVE",
"160 707 OFFCURVE",
"156 612 CURVE SMOOTH",
"151 517 OFFCURVE",
"149 446 OFFCURVE",
"149 399 CURVE SMOOTH",
"149 136 OFFCURVE",
"246 -20 OFFCURVE",
"421 -20 CURVE SMOOTH",
"693 -20 OFFCURVE",
"867 302 OFFCURVE",
"867 799 CURVE",
"864 907 LINE",
"927 947 OFFCURVE",
"1025 978 OFFCURVE",
"1093 978 CURVE SMOOTH",
"1158 978 OFFCURVE",
"1211 926 OFFCURVE",
"1211 854 CURVE SMOOTH",
"1211 734 OFFCURVE",
"1189 606 OFFCURVE",
"1166 489 CURVE SMOOTH",
"1142 372 OFFCURVE",
"1120 265 OFFCURVE",
"1120 188 CURVE SMOOTH",
"1120 76 OFFCURVE",
"1201 -8 OFFCURVE",
"1314 -8 CURVE SMOOTH",
"1395 -8 OFFCURVE",
"1468 30 OFFCURVE",
"1535 105 CURVE SMOOTH",
"1668 255 OFFCURVE",
"1773 565 OFFCURVE",
"1826 946 CURVE",
"1851 944 OFFCURVE",
"1872 930 OFFCURVE",
"1891 904 CURVE SMOOTH",
"1928 852 OFFCURVE",
"1952 735 OFFCURVE",
"1952 631 CURVE SMOOTH",
"1952 472 OFFCURVE",
"1918 316 OFFCURVE",
"1849 165 CURVE SMOOTH",
"1712 -139 OFFCURVE",
"1453 -375 OFFCURVE",
"1102 -523 CURVE",
"1149 -600 LINE"
);
}
);
width = 2252;
}
);
note = uniAA90;
unicode = AA90;
},
{
glyphname = uniAA91;
lastChange = "2016-11-10 14:43:39 +0000";
layers = (
{
layerId = "BE16C792-0DFB-4FCD-B142-35321F01CEFF";
paths = (
{
closed = 1;
nodes = (
"687 -532 OFFCURVE",
"849 -427 OFFCURVE",
"999 -285 CURVE SMOOTH",
"1299 -1 OFFCURVE",
"1502 397 OFFCURVE",
"1502 733 CURVE SMOOTH",
"1502 994 OFFCURVE",
"1405 1118 OFFCURVE",
"1232 1118 CURVE SMOOTH",
"1136 1118 OFFCURVE",
"1037 1051 OFFCURVE",
"954 927 CURVE",
"922 1054 OFFCURVE",
"851 1118 OFFCURVE",
"742 1118 CURVE SMOOTH",
"641 1118 OFFCURVE",
"545 1069 OFFCURVE",
"456 972 CURVE SMOOTH",
"277 776 OFFCURVE",
"147 407 OFFCURVE",
"100 -5 CURVE",
"296 49 LINE",
"345 381 OFFCURVE",
"402 619 OFFCURVE",
"467 763 CURVE SMOOTH",
"532 906 OFFCURVE",
"610 978 OFFCURVE",
"700 978 CURVE SMOOTH",
"765 978 OFFCURVE",
"798 913 OFFCURVE",
"798 784 CURVE SMOOTH",
"798 672 OFFCURVE",
"776 541 OFFCURVE",
"732 391 CURVE",
"908 391 LINE",
"948 532 OFFCURVE",
"969 649 OFFCURVE",
"972 741 CURVE",
"1020 870 OFFCURVE",
"1118 978 OFFCURVE",
"1209 978 CURVE SMOOTH",
"1250 978 OFFCURVE",
"1280 958 OFFCURVE",
"1297 919 CURVE SMOOTH",
"1314 880 OFFCURVE",
"1322 816 OFFCURVE",
"1322 729 CURVE SMOOTH",
"1322 560 OFFCURVE",
"1285 390 OFFCURVE",
"1212 219 CURVE SMOOTH",
"1064 -125 OFFCURVE",
"805 -379 OFFCURVE",
"465 -523 CURVE",
"512 -600 LINE"
);
}
);
width = 1622;
}
);
note = uniAA91;
unicode = AA91;
},
{
glyphname = uniAA92;
lastChange = "2016-11-10 14:43:39 +0000";
layers = (
{
layerId = "BE16C792-0DFB-4FCD-B142-35321F01CEFF";
paths = (
{
closed = 1;
nodes = (
"454 58 LINE",
"329 127 OFFCURVE",
"280 250 OFFCURVE",
"280 418 CURVE SMOOTH",
"280 513 OFFCURVE",
"301 604 OFFCURVE",
"342 691 CURVE SMOOTH",
"425 866 OFFCURVE",
"574 978 OFFCURVE",
"727 978 CURVE SMOOTH",
"842 978 OFFCURVE",
"896 900 OFFCURVE",
"896 687 CURVE SMOOTH",
"896 598 OFFCURVE",
"894 519 OFFCURVE",
"890 448 CURVE SMOOTH",
"885 377 OFFCURVE",
"883 312 OFFCURVE",
"883 253 CURVE SMOOTH",
"883 144 OFFCURVE",
"898 57 OFFCURVE",
"928 -8 CURVE",
"1105 49 LINE",
"1077 108 OFFCURVE",
"1063 187 OFFCURVE",
"1063 284 CURVE SMOOTH",
"1063 351 OFFCURVE",
"1065 420 OFFCURVE",
"1070 491 CURVE SMOOTH",
"1074 562 OFFCURVE",
"1076 632 OFFCURVE",
"1076 699 CURVE SMOOTH",
"1076 972 OFFCURVE",
"962 1118 OFFCURVE",
"743 1118 CURVE SMOOTH",
"638 1118 OFFCURVE",
"536 1083 OFFCURVE",
"436 1013 CURVE SMOOTH",
"236 872 OFFCURVE",
"100 624 OFFCURVE",
"100 409 CURVE SMOOTH",
"100 194 OFFCURVE",
"212 33 OFFCURVE",
"397 -30 CURVE"
);
}
);
width = 1225;
}
);
note = uniAA92;
unicode = AA92;
},
{
glyphname = uniAA93;
lastChange = "2016-11-10 14:43:39 +0000";
layers = (
{
layerId = "BE16C792-0DFB-4FCD-B142-35321F01CEFF";
paths = (
{
closed = 1;
nodes = (
"2008 -523 LINE",
"1887 -460 OFFCURVE",
"1797 -403 OFFCURVE",
"1738 -350 CURVE SMOOTH",
"1620 -246 OFFCURVE",
"1570 -126 OFFCURVE",
"1570 63 CURVE SMOOTH",
"1570 116 OFFCURVE",
"1577 189 OFFCURVE",
"1590 280 CURVE SMOOTH",
"1618 471 OFFCURVE",
"1635 590 OFFCURVE",
"1640 639 CURVE SMOOTH",
"1645 688 OFFCURVE",
"1647 731 OFFCURVE",
"1647 768 CURVE SMOOTH",
"1647 1008 OFFCURVE",
"1539 1118 OFFCURVE",
"1322 1118 CURVE SMOOTH",
"1223 1118 OFFCURVE",
"1128 1085 OFFCURVE",
"1036 1020 CURVE SMOOTH",
"852 888 OFFCURVE",
"736 666 OFFCURVE",
"736 454 CURVE SMOOTH",
"736 387 OFFCURVE",
"747 321 OFFCURVE",
"769 256 CURVE",
"683 212 LINE",
"616 174 OFFCURVE",
"567 149 OFFCURVE",
"538 138 CURVE SMOOTH",
"509 126 OFFCURVE",
"483 120 OFFCURVE",
"462 120 CURVE SMOOTH",
"417 120 OFFCURVE",
"384 143 OFFCURVE",
"362 190 CURVE SMOOTH",
"340 236 OFFCURVE",
"329 310 OFFCURVE",
"329 411 CURVE SMOOTH",
"329 500 OFFCURVE",
"331 581 OFFCURVE",
"336 655 CURVE SMOOTH",
"340 729 OFFCURVE",
"342 796 OFFCURVE",
"342 855 CURVE SMOOTH",
"342 964 OFFCURVE",
"327 1051 OFFCURVE",
"297 1116 CURVE",
"120 1058 LINE",
"148 999 OFFCURVE",
"162 921 OFFCURVE",
"162 824 CURVE SMOOTH",
"162 778 OFFCURVE",
"160 707 OFFCURVE",
"156 612 CURVE SMOOTH",
"151 517 OFFCURVE",
"149 446 OFFCURVE",
"149 399 CURVE SMOOTH",
"149 132 OFFCURVE",
"248 -20 OFFCURVE",
"429 -20 CURVE SMOOTH",
"468 -20 OFFCURVE",
"504 -14 OFFCURVE",
"536 -3 CURVE SMOOTH",
"599 20 OFFCURVE",
"657 56 OFFCURVE",
"718 94 CURVE SMOOTH",
"749 113 OFFCURVE",
"783 130 OFFCURVE",
"820 146 CURVE",
"883 43 OFFCURVE",
"987 -20 OFFCURVE",
"1087 -20 CURVE SMOOTH",
"1200 -20 OFFCURVE",
"1285 46 OFFCURVE",
"1285 133 CURVE SMOOTH",
"1285 236 OFFCURVE",
"1183 305 OFFCURVE",
"1023 305 CURVE SMOOTH",
"992 305 OFFCURVE",
"962 302 OFFCURVE",
"931 297 CURVE",
"921 336 OFFCURVE",
"916 386 OFFCURVE",
"916 448 CURVE SMOOTH",
"916 546 OFFCURVE",
"933 636 OFFCURVE",
"967 718 CURVE SMOOTH",
"1035 882 OFFCURVE",
"1159 978 OFFCURVE",
"1306 978 CURVE SMOOTH",
"1425 978 OFFCURVE",
"1467 925 OFFCURVE",
"1467 756 CURVE SMOOTH",
"1467 641 OFFCURVE",
"1448 534 OFFCURVE",
"1429 427 CURVE SMOOTH",
"1409 319 OFFCURVE",
"1390 214 OFFCURVE",
"1390 109 CURVE SMOOTH",
"1390 38 OFFCURVE",
"1397 -25 OFFCURVE",
"1411 -81 CURVE SMOOTH",
"1439 -193 OFFCURVE",
"1491 -280 OFFCURVE",
"1568 -354 CURVE SMOOTH",
"1645 -428 OFFCURVE",
"1721 -481 OFFCURVE",
"1961 -600 CURVE"
);
},
{
closed = 1;
nodes = (
"1026 90 OFFCURVE",
"992 121 OFFCURVE",
"967 188 CURVE",
"995 193 OFFCURVE",
"1019 195 OFFCURVE",
"1040 195 CURVE SMOOTH",
"1103 195 OFFCURVE",
"1135 176 OFFCURVE",
"1135 137 CURVE SMOOTH",
"1135 104 OFFCURVE",
"1104 90 OFFCURVE",
"1075 90 CURVE SMOOTH"
);
}
);
width = 1848;
}
);
note = uniAA93;
unicode = AA93;
},
{
glyphname = uniAA94;
lastChange = "2016-11-10 14:43:39 +0000";
layers = (
{
layerId = "BE16C792-0DFB-4FCD-B142-35321F01CEFF";
paths = (
{
closed = 1;
nodes = (
"1521 50 LINE",
"1493 109 OFFCURVE",
"1479 187 OFFCURVE",
"1479 284 CURVE SMOOTH",
"1479 351 OFFCURVE",
"1481 421 OFFCURVE",
"1486 495 CURVE SMOOTH",
"1490 569 OFFCURVE",
"1492 648 OFFCURVE",
"1492 732 CURVE SMOOTH",
"1492 996 OFFCURVE",
"1407 1118 OFFCURVE",
"1232 1118 CURVE SMOOTH",
"1136 1118 OFFCURVE",
"1037 1051 OFFCURVE",
"954 927 CURVE",
"922 1054 OFFCURVE",
"851 1118 OFFCURVE",
"742 1118 CURVE SMOOTH",
"641 1118 OFFCURVE",
"545 1069 OFFCURVE",
"456 972 CURVE SMOOTH",
"277 776 OFFCURVE",
"147 407 OFFCURVE",
"100 -5 CURVE",
"296 49 LINE",
"345 381 OFFCURVE",
"402 619 OFFCURVE",
"467 763 CURVE SMOOTH",
"532 906 OFFCURVE",
"610 978 OFFCURVE",
"700 978 CURVE SMOOTH",
"765 978 OFFCURVE",
"798 913 OFFCURVE",
"798 784 CURVE SMOOTH",
"798 672 OFFCURVE",
"776 541 OFFCURVE",
"732 391 CURVE",
"908 391 LINE",
"948 532 OFFCURVE",
"969 649 OFFCURVE",
"972 741 CURVE",
"1020 870 OFFCURVE",
"1118 978 OFFCURVE",
"1209 978 CURVE SMOOTH",
"1248 978 OFFCURVE",
"1275 959 OFFCURVE",
"1290 922 CURVE SMOOTH",
"1305 885 OFFCURVE",
"1312 820 OFFCURVE",
"1312 729 CURVE SMOOTH",
"1312 648 OFFCURVE",
"1310 569 OFFCURVE",
"1306 490 CURVE SMOOTH",
"1301 411 OFFCURVE",
"1299 332 OFFCURVE",
"1299 253 CURVE SMOOTH",
"1299 144 OFFCURVE",
"1314 57 OFFCURVE",
"1344 -8 CURVE"
);
}
);
width = 1641;
}
);
note = uniAA94;
unicode = AA94;
},
{
glyphname = uniAA95;
lastChange = "2016-11-10 14:43:39 +0000";
layers = (
{
layerId = "BE16C792-0DFB-4FCD-B142-35321F01CEFF";
paths = (
{
closed = 1;
nodes = (
"590 -20 OFFCURVE",
"715 114 OFFCURVE",
"796 382 CURVE SMOOTH",
"834 511 LINE SMOOTH",
"885 688 OFFCURVE",
"931 810 OFFCURVE",
"970 877 CURVE SMOOTH",
"1009 943 OFFCURVE",
"1051 976 OFFCURVE",
"1098 976 CURVE SMOOTH",
"1142 976 OFFCURVE",
"1175 953 OFFCURVE",
"1196 906 CURVE SMOOTH",
"1217 859 OFFCURVE",
"1227 785 OFFCURVE",
"1227 685 CURVE SMOOTH",
"1227 596 OFFCURVE",
"1225 515 OFFCURVE",
"1221 441 CURVE SMOOTH",
"1216 367 OFFCURVE",
"1214 300 OFFCURVE",
"1214 241 CURVE SMOOTH",
"1214 132 OFFCURVE",
"1229 45 OFFCURVE",
"1259 -20 CURVE",
"1436 38 LINE",
"1408 97 OFFCURVE",
"1394 175 OFFCURVE",
"1394 272 CURVE SMOOTH",
"1394 318 OFFCURVE",
"1396 389 OFFCURVE",
"1401 484 CURVE SMOOTH",
"1405 579 OFFCURVE",
"1407 650 OFFCURVE",
"1407 697 CURVE SMOOTH",
"1407 960 OFFCURVE",
"1310 1116 OFFCURVE",
"1135 1116 CURVE SMOOTH",
"938 1116 OFFCURVE",
"812 966 OFFCURVE",
"713 582 CURVE SMOOTH",
"670 412 OFFCURVE",
"628 293 OFFCURVE",
"588 224 CURVE SMOOTH",
"547 155 OFFCURVE",
"504 120 OFFCURVE",
"458 120 CURVE SMOOTH",
"415 120 OFFCURVE",
"383 143 OFFCURVE",
"362 188 CURVE SMOOTH",
"340 233 OFFCURVE",
"329 307 OFFCURVE",
"329 411 CURVE SMOOTH",
"329 500 OFFCURVE",
"331 581 OFFCURVE",
"336 655 CURVE SMOOTH",
"340 729 OFFCURVE",
"342 796 OFFCURVE",
"342 855 CURVE SMOOTH",
"342 964 OFFCURVE",
"327 1051 OFFCURVE",
"297 1116 CURVE",
"120 1058 LINE",
"148 999 OFFCURVE",
"162 921 OFFCURVE",
"162 824 CURVE SMOOTH",
"162 778 OFFCURVE",
"160 707 OFFCURVE",
"156 612 CURVE SMOOTH",
"151 517 OFFCURVE",
"149 446 OFFCURVE",
"149 399 CURVE SMOOTH",
"149 136 OFFCURVE",
"246 -20 OFFCURVE",
"421 -20 CURVE SMOOTH"
);
}
);
width = 1556;
}
);
note = uniAA95;
unicode = AA95;
},
{
glyphname = uniAA96;
lastChange = "2016-11-10 14:43:39 +0000";
layers = (
{
layerId = "BE16C792-0DFB-4FCD-B142-35321F01CEFF";
paths = (
{
closed = 1;
nodes = (
"1468 -523 LINE",
"1347 -460 OFFCURVE",
"1257 -403 OFFCURVE",
"1198 -350 CURVE SMOOTH",
"1080 -246 OFFCURVE",
"1030 -126 OFFCURVE",
"1030 63 CURVE SMOOTH",
"1030 116 OFFCURVE",
"1037 189 OFFCURVE",
"1050 280 CURVE SMOOTH",
"1078 471 OFFCURVE",
"1095 590 OFFCURVE",
"1100 639 CURVE SMOOTH",
"1105 688 OFFCURVE",
"1107 731 OFFCURVE",
"1107 768 CURVE SMOOTH",
"1107 996 OFFCURVE",
"983 1118 OFFCURVE",
"751 1118 CURVE SMOOTH",
"648 1118 OFFCURVE",
"546 1081 OFFCURVE",
"446 1006 CURVE SMOOTH",
"246 856 OFFCURVE",
"100 578 OFFCURVE",
"100 358 CURVE SMOOTH",
"100 147 OFFCURVE",
"205 25 OFFCURVE",
"390 25 CURVE SMOOTH",
"498 25 OFFCURVE",
"606 97 OFFCURVE",
"658 201 CURVE",
"592 241 LINE",
"537 170 OFFCURVE",
"481 135 OFFCURVE",
"424 135 CURVE SMOOTH",
"327 135 OFFCURVE",
"280 196 OFFCURVE",
"280 360 CURVE SMOOTH",
"280 445 OFFCURVE",
"302 538 OFFCURVE",
"345 638 CURVE SMOOTH",
"432 837 OFFCURVE",
"580 978 OFFCURVE",
"716 978 CURVE SMOOTH",
"863 978 OFFCURVE",
"927 907 OFFCURVE",
"927 756 CURVE SMOOTH",
"927 641 OFFCURVE",
"908 534 OFFCURVE",
"889 427 CURVE SMOOTH",
"869 319 OFFCURVE",
"850 214 OFFCURVE",
"850 109 CURVE SMOOTH",
"850 38 OFFCURVE",
"857 -25 OFFCURVE",
"871 -81 CURVE SMOOTH",
"899 -193 OFFCURVE",
"951 -280 OFFCURVE",
"1028 -354 CURVE SMOOTH",
"1105 -428 OFFCURVE",
"1181 -481 OFFCURVE",
"1421 -600 CURVE"
);
}
);
width = 1308;
}
);
note = uniAA96;
unicode = AA96;
},
{
glyphname = uniAA97;
lastChange = "2016-11-10 14:43:39 +0000";
layers = (
{
layerId = "BE16C792-0DFB-4FCD-B142-35321F01CEFF";
paths = (
{
closed = 1;
nodes = (
"434 -528 OFFCURVE",
"601 -426 OFFCURVE",
"752 -293 CURVE SMOOTH",
"1052 -28 OFFCURVE",
"1232 315 OFFCURVE",
"1232 635 CURVE SMOOTH",
"1232 729 OFFCURVE",
"1220 813 OFFCURVE",
"1195 886 CURVE SMOOTH",
"1145 1033 OFFCURVE",
"1052 1118 OFFCURVE",
"948 1118 CURVE SMOOTH",
"927 1118 OFFCURVE",
"908 1112 OFFCURVE",
"890 1101 CURVE SMOOTH",
"853 1077 OFFCURVE",
"829 1045 OFFCURVE",
"809 944 CURVE SMOOTH",
"752 659 OFFCURVE",
"693 452 OFFCURVE",
"633 324 CURVE SMOOTH",
"573 196 OFFCURVE",
"508 132 OFFCURVE",
"438 132 CURVE SMOOTH",
"403 132 OFFCURVE",
"377 158 OFFCURVE",
"358 210 CURVE SMOOTH",
"339 261 OFFCURVE",
"329 332 OFFCURVE",
"329 423 CURVE SMOOTH",
"329 512 OFFCURVE",
"331 591 OFFCURVE",
"336 662 CURVE SMOOTH",
"340 733 OFFCURVE",
"342 798 OFFCURVE",
"342 857 CURVE SMOOTH",
"342 966 OFFCURVE",
"327 1053 OFFCURVE",
"297 1118 CURVE",
"120 1060 LINE",
"148 1001 OFFCURVE",
"162 923 OFFCURVE",
"162 826 CURVE SMOOTH",
"162 759 OFFCURVE",
"160 690 OFFCURVE",
"156 619 CURVE SMOOTH",
"151 548 OFFCURVE",
"149 478 OFFCURVE",
"149 411 CURVE SMOOTH",
"149 138 OFFCURVE",
"245 -8 OFFCURVE",
"414 -8 CURVE SMOOTH",
"495 -8 OFFCURVE",
"568 30 OFFCURVE",
"635 105 CURVE SMOOTH",
"768 255 OFFCURVE",
"873 565 OFFCURVE",
"926 946 CURVE",
"951 944 OFFCURVE",
"972 930 OFFCURVE",
"991 904 CURVE SMOOTH",
"1028 852 OFFCURVE",
"1052 735 OFFCURVE",
"1052 631 CURVE SMOOTH",
"1052 472 OFFCURVE",
"1018 316 OFFCURVE",
"949 165 CURVE SMOOTH",
"812 -139 OFFCURVE",
"553 -375 OFFCURVE",
"202 -523 CURVE",
"249 -600 LINE"
);
}
);
width = 1352;
}
);
note = uniAA97;
unicode = AA97;
},
{
glyphname = uniAA98;
lastChange = "2016-11-10 14:43:39 +0000";
layers = (
{
layerId = "BE16C792-0DFB-4FCD-B142-35321F01CEFF";
paths = (
{
closed = 1;
nodes = (
"2078 -40 OFFCURVE",
"2119 -32 OFFCURVE",
"2157 -17 CURVE SMOOTH",
"2232 14 OFFCURVE",
"2280 71 OFFCURVE",
"2280 126 CURVE SMOOTH",
"2280 234 OFFCURVE",
"2198 297 OFFCURVE",
"2050 297 CURVE SMOOTH",
"1995 297 OFFCURVE",
"1936 289 OFFCURVE",
"1873 272 CURVE",
"1869 304 OFFCURVE",
"1867 339 OFFCURVE",
"1867 378 CURVE SMOOTH",
"1867 741 OFFCURVE",
"1991 1066 OFFCURVE",
"2231 1322 CURVE",
"2183 1385 LINE",
"1878 1112 OFFCURVE",
"1687 716 OFFCURVE",
"1687 371 CURVE SMOOTH",
"1687 314 OFFCURVE",
"1694 262 OFFCURVE",
"1708 213 CURVE",
"1624 177 OFFCURVE",
"1569 155 OFFCURVE",
"1542 147 CURVE SMOOTH",
"1488 130 OFFCURVE",
"1439 120 OFFCURVE",
"1390 120 CURVE SMOOTH",
"1321 120 OFFCURVE",
"1302 147 OFFCURVE",
"1302 192 CURVE SMOOTH",
"1302 217 OFFCURVE",
"1305 251 OFFCURVE",
"1312 292 CURVE SMOOTH",
"1318 333 OFFCURVE",
"1331 403 OFFCURVE",
"1352 504 CURVE SMOOTH",
"1385 669 OFFCURVE",
"1401 791 OFFCURVE",
"1401 870 CURVE SMOOTH",
"1401 913 OFFCURVE",
"1391 954 OFFCURVE",
"1371 992 CURVE SMOOTH",
"1330 1068 OFFCURVE",
"1257 1118 OFFCURVE",
"1162 1118 CURVE SMOOTH",
"1075 1118 OFFCURVE",
"958 1067 OFFCURVE",
"859 990 CURVE",
"849 1098 LINE",
"666 1036 LINE",
"680 941 OFFCURVE",
"687 841 OFFCURVE",
"687 734 CURVE SMOOTH",
"687 505 OFFCURVE",
"668 346 OFFCURVE",
"631 256 CURVE SMOOTH",
"593 165 OFFCURVE",
"535 120 OFFCURVE",
"458 120 CURVE SMOOTH",
"415 120 OFFCURVE",
"383 143 OFFCURVE",
"362 188 CURVE SMOOTH",
"340 233 OFFCURVE",
"329 307 OFFCURVE",
"329 411 CURVE SMOOTH",
"329 500 OFFCURVE",
"331 581 OFFCURVE",
"336 655 CURVE SMOOTH",
"340 729 OFFCURVE",
"342 796 OFFCURVE",
"342 855 CURVE SMOOTH",
"342 964 OFFCURVE",
"327 1051 OFFCURVE",
"297 1116 CURVE",
"120 1058 LINE",
"148 999 OFFCURVE",
"162 921 OFFCURVE",
"162 824 CURVE SMOOTH",
"162 778 OFFCURVE",
"160 707 OFFCURVE",
"156 612 CURVE SMOOTH",
"151 517 OFFCURVE",
"149 446 OFFCURVE",
"149 399 CURVE SMOOTH",
"149 136 OFFCURVE",
"246 -20 OFFCURVE",
"421 -20 CURVE SMOOTH",
"693 -20 OFFCURVE",
"867 302 OFFCURVE",
"867 799 CURVE",
"865 901 LINE",
"921 940 OFFCURVE",
"1030 978 OFFCURVE",
"1103 978 CURVE SMOOTH",
"1168 978 OFFCURVE",
"1221 926 OFFCURVE",
"1221 854 CURVE SMOOTH",
"1221 749 OFFCURVE",
"1196 626 OFFCURVE",
"1172 509 CURVE SMOOTH",
"1147 392 OFFCURVE",
"1122 280 OFFCURVE",
"1122 196 CURVE SMOOTH",
"1122 59 OFFCURVE",
"1202 -20 OFFCURVE",
"1357 -20 CURVE SMOOTH",
"1478 -20 OFFCURVE",
"1574 4 OFFCURVE",
"1758 103 CURVE",
"1819 8 OFFCURVE",
"1910 -40 OFFCURVE",
"2033 -40 CURVE SMOOTH"
);
},
{
closed = 1;
nodes = (
"1974 70 OFFCURVE",
"1928 102 OFFCURVE",
"1901 165 CURVE",
"1948 180 OFFCURVE",
"1993 187 OFFCURVE",
"2038 187 CURVE SMOOTH",
"2094 187 OFFCURVE",
"2130 165 OFFCURVE",
"2130 124 CURVE SMOOTH",
"2130 88 OFFCURVE",
"2100 70 OFFCURVE",
"2039 70 CURVE SMOOTH"
);
}
);
width = 2330;
}
);
note = uniAA98;
unicode = AA98;
},
{
glyphname = uniAA99;
lastChange = "2016-11-10 14:43:39 +0000";
layers = (
{
layerId = "BE16C792-0DFB-4FCD-B142-35321F01CEFF";
paths = (
{
closed = 1;
nodes = (
"1155 -40 OFFCURVE",
"1196 -32 OFFCURVE",
"1234 -17 CURVE SMOOTH",
"1309 14 OFFCURVE",
"1357 71 OFFCURVE",
"1357 126 CURVE SMOOTH",
"1357 234 OFFCURVE",
"1275 297 OFFCURVE",
"1127 297 CURVE SMOOTH",
"1072 297 OFFCURVE",
"1013 289 OFFCURVE",
"950 272 CURVE",
"946 304 OFFCURVE",
"944 339 OFFCURVE",
"944 378 CURVE SMOOTH",
"944 741 OFFCURVE",
"1068 1066 OFFCURVE",
"1308 1322 CURVE",
"1260 1385 LINE",
"955 1112 OFFCURVE",
"764 716 OFFCURVE",
"764 371 CURVE SMOOTH",
"764 314 OFFCURVE",
"771 262 OFFCURVE",
"785 213 CURVE",
"706 178 OFFCURVE",
"653 157 OFFCURVE",
"626 149 CURVE SMOOTH",
"572 132 OFFCURVE",
"520 120 OFFCURVE",
"469 120 CURVE SMOOTH",
"409 120 OFFCURVE",
"392 140 OFFCURVE",
"392 197 CURVE SMOOTH",
"392 211 OFFCURVE",
"397 253 OFFCURVE",
"406 323 CURVE SMOOTH",
"415 392 OFFCURVE",
"419 451 OFFCURVE",
"419 499 CURVE SMOOTH",
"419 736 OFFCURVE",
"367 975 OFFCURVE",
"287 1116 CURVE",
"120 1058 LINE",
"143 1023 OFFCURVE",
"164 976 OFFCURVE",
"181 919 CURVE SMOOTH",
"216 804 OFFCURVE",
"239 619 OFFCURVE",
"239 502 CURVE SMOOTH",
"239 471 OFFCURVE",
"235 424 OFFCURVE",
"226 360 CURVE SMOOTH",
"217 295 OFFCURVE",
"212 247 OFFCURVE",
"212 215 CURVE SMOOTH",
"212 66 OFFCURVE",
"303 -20 OFFCURVE",
"447 -20 CURVE SMOOTH",
"544 -20 OFFCURVE",
"712 38 OFFCURVE",
"835 103 CURVE",
"896 8 OFFCURVE",
"987 -40 OFFCURVE",
"1110 -40 CURVE SMOOTH"
);
},
{
closed = 1;
nodes = (
"1051 70 OFFCURVE",
"1005 102 OFFCURVE",
"978 165 CURVE",
"1025 180 OFFCURVE",
"1070 187 OFFCURVE",
"1115 187 CURVE SMOOTH",
"1171 187 OFFCURVE",
"1207 165 OFFCURVE",
"1207 124 CURVE SMOOTH",
"1207 88 OFFCURVE",
"1177 70 OFFCURVE",
"1116 70 CURVE SMOOTH"
);
}
);
width = 1407;
}
);
note = uniAA99;
unicode = AA99;
},
{
glyphname = uniAA9A;
lastChange = "2016-11-10 14:40:34 +0000";
layers = (
{
layerId = "BE16C792-0DFB-4FCD-B142-35321F01CEFF";
paths = (
{
closed = 1;
nodes = (
"518 -20 OFFCURVE",
"550 2 OFFCURVE",
"573 56 CURVE SMOOTH",
"584 83 OFFCURVE",
"598 128 OFFCURVE",
"613 193 CURVE SMOOTH",
"737 722 OFFCURVE",
"917 1106 OFFCURVE",
"1138 1322 CURVE",
"1090 1385 LINE",
"1019 1326 OFFCURVE",
"957 1265 OFFCURVE",
"904 1201 CURVE SMOOTH",
"796 1072 OFFCURVE",
"716 937 OFFCURVE",
"653 796 CURVE SMOOTH",
"590 655 OFFCURVE",
"553 545 OFFCURVE",
"470 225 CURVE",
"453 255 OFFCURVE",
"428 328 OFFCURVE",
"394 445 CURVE SMOOTH",
"325 678 OFFCURVE",
"259 973 OFFCURVE",
"243 1118 CURVE",
"80 1081 LINE",
"88 996 OFFCURVE",
"112 871 OFFCURVE",
"152 704 CURVE SMOOTH",
"231 370 OFFCURVE",
"315 118 OFFCURVE",
"366 35 CURVE SMOOTH",
"394 -13 OFFCURVE",
"423 -20 OFFCURVE",
"470 -20 CURVE SMOOTH"
);
}
);
width = 1138;
}
);
note = uniAA9A;
unicode = AA9A;
},
{
glyphname = uniAA9B;
lastChange = "2016-11-10 14:43:39 +0000";
layers = (
{
layerId = "BE16C792-0DFB-4FCD-B142-35321F01CEFF";
paths = (
{
closed = 1;
nodes = (
"499 -20 OFFCURVE",
"533 33 OFFCURVE",
"557 132 CURVE SMOOTH",
"598 301 OFFCURVE",
"639 453 OFFCURVE",
"680 590 CURVE SMOOTH",
"721 726 OFFCURVE",
"753 809 OFFCURVE",
"778 839 CURVE",
"793 700 OFFCURVE",
"850 418 OFFCURVE",
"914 203 CURVE SMOOTH",
"945 96 OFFCURVE",
"970 32 OFFCURVE",
"988 11 CURVE SMOOTH",
"1006 -10 OFFCURVE",
"1030 -20 OFFCURVE",
"1061 -20 CURVE SMOOTH",
"1120 -20 OFFCURVE",
"1149 2 OFFCURVE",
"1162 45 CURVE SMOOTH",
"1229 276 LINE SMOOTH",
"1321 604 OFFCURVE",
"1384 792 OFFCURVE",
"1417 839 CURVE",
"1422 775 OFFCURVE",
"1433 698 OFFCURVE",
"1452 608 CURVE SMOOTH",
"1489 427 OFFCURVE",
"1546 241 OFFCURVE",
"1594 130 CURVE SMOOTH",
"1642 19 OFFCURVE",
"1676 -20 OFFCURVE",
"1749 -20 CURVE SMOOTH",
"1797 -20 OFFCURVE",
"1829 2 OFFCURVE",
"1852 56 CURVE SMOOTH",
"1863 83 OFFCURVE",
"1877 128 OFFCURVE",
"1892 193 CURVE SMOOTH",
"2016 722 OFFCURVE",
"2196 1106 OFFCURVE",
"2417 1322 CURVE",
"2369 1385 LINE",
"2298 1326 OFFCURVE",
"2236 1265 OFFCURVE",
"2183 1201 CURVE SMOOTH",
"2075 1072 OFFCURVE",
"1995 937 OFFCURVE",
"1932 796 CURVE SMOOTH",
"1869 655 OFFCURVE",
"1832 545 OFFCURVE",
"1749 225 CURVE",
"1686 350 OFFCURVE",
"1625 584 OFFCURVE",
"1568 929 CURVE SMOOTH",
"1552 1019 LINE SMOOTH",
"1540 1085 OFFCURVE",
"1510 1118 OFFCURVE",
"1463 1118 CURVE SMOOTH",
"1438 1118 OFFCURVE",
"1400 1071 OFFCURVE",
"1351 976 CURVE SMOOTH",
"1252 787 OFFCURVE",
"1144 466 OFFCURVE",
"1093 218 CURVE",
"1042 383 OFFCURVE",
"938 879 OFFCURVE",
"913 1019 CURVE SMOOTH",
"901 1085 OFFCURVE",
"871 1118 OFFCURVE",
"824 1118 CURVE SMOOTH",
"798 1118 OFFCURVE",
"761 1072 OFFCURVE",
"714 981 CURVE SMOOTH",
"619 797 OFFCURVE",
"522 505 OFFCURVE",
"453 204 CURVE",
"404 292 OFFCURVE",
"284 875 OFFCURVE",
"263 1118 CURVE",
"100 1081 LINE",
"103 990 OFFCURVE",
"133 791 OFFCURVE",
"177 588 CURVE SMOOTH",
"220 385 OFFCURVE",
"270 210 OFFCURVE",
"311 110 CURVE SMOOTH",
"351 9 OFFCURVE",
"375 -20 OFFCURVE",
"440 -20 CURVE SMOOTH"
);
}
);
width = 2417;
}
);
note = uniAA9B;
unicode = AA9B;
},
{
glyphname = uniAA9C;
lastChange = "2016-11-10 14:40:34 +0000";
layers = (
{
layerId = "BE16C792-0DFB-4FCD-B142-35321F01CEFF";
paths = (
{
closed = 1;
nodes = (
"519 -20 OFFCURVE",
"558 11 OFFCURVE",
"591 92 CURVE SMOOTH",
"607 133 OFFCURVE",
"631 204 OFFCURVE",
"663 306 CURVE SMOOTH",
"800 751 OFFCURVE",
"935 1021 OFFCURVE",
"1131 1293 CURVE SMOOTH",
"1326 1565 OFFCURVE",
"1597 1838 OFFCURVE",
"1928 2087 CURVE",
"1880 2160 LINE",
"1611 1969 OFFCURVE",
"1387 1777 OFFCURVE",
"1206 1584 CURVE SMOOTH",
"845 1197 OFFCURVE",
"613 766 OFFCURVE",
"470 225 CURVE",
"453 255 OFFCURVE",
"428 328 OFFCURVE",
"394 445 CURVE SMOOTH",
"325 678 OFFCURVE",
"259 973 OFFCURVE",
"243 1118 CURVE",
"80 1081 LINE",
"88 996 OFFCURVE",
"112 871 OFFCURVE",
"152 704 CURVE SMOOTH",
"231 370 OFFCURVE",
"315 118 OFFCURVE",
"366 35 CURVE SMOOTH",
"394 -13 OFFCURVE",
"423 -20 OFFCURVE",
"470 -20 CURVE SMOOTH"
);
}
);
width = 1278;
}
);
note = uniAA9C;
unicode = AA9C;
},
{
glyphname = uniAA9D;
lastChange = "2016-11-10 14:43:39 +0000";
layers = (
{
layerId = "BE16C792-0DFB-4FCD-B142-35321F01CEFF";
paths = (
{
closed = 1;
nodes = (
"499 -20 OFFCURVE",
"533 33 OFFCURVE",
"557 132 CURVE SMOOTH",
"598 301 OFFCURVE",
"639 453 OFFCURVE",
"680 590 CURVE SMOOTH",
"721 726 OFFCURVE",
"753 809 OFFCURVE",
"778 839 CURVE",
"793 700 OFFCURVE",
"850 418 OFFCURVE",
"914 203 CURVE SMOOTH",
"945 96 OFFCURVE",
"970 32 OFFCURVE",
"988 11 CURVE SMOOTH",
"1006 -10 OFFCURVE",
"1030 -20 OFFCURVE",
"1061 -20 CURVE SMOOTH",
"1118 -20 OFFCURVE",
"1162 7 OFFCURVE",
"1181 51 CURVE SMOOTH",
"1203 102 OFFCURVE",
"1260 266 OFFCURVE",
"1351 545 CURVE SMOOTH",
"1548 1144 OFFCURVE",
"1933 1631 OFFCURVE",
"2537 2087 CURVE",
"2489 2160 LINE",
"1804 1672 OFFCURVE",
"1432 1212 OFFCURVE",
"1208 623 CURVE SMOOTH",
"1167 518 OFFCURVE",
"1134 421 OFFCURVE",
"1109 331 CURVE SMOOTH",
"1085 249 LINE",
"1037 405 OFFCURVE",
"941 864 OFFCURVE",
"913 1019 CURVE SMOOTH",
"901 1085 OFFCURVE",
"871 1118 OFFCURVE",
"824 1118 CURVE SMOOTH",
"798 1118 OFFCURVE",
"761 1072 OFFCURVE",
"714 981 CURVE SMOOTH",
"619 797 OFFCURVE",
"522 505 OFFCURVE",
"453 204 CURVE",
"404 292 OFFCURVE",
"284 875 OFFCURVE",
"263 1118 CURVE",
"100 1081 LINE",
"103 990 OFFCURVE",
"133 791 OFFCURVE",
"177 588 CURVE SMOOTH",
"220 385 OFFCURVE",
"270 210 OFFCURVE",
"311 110 CURVE SMOOTH",
"351 9 OFFCURVE",
"375 -20 OFFCURVE",
"440 -20 CURVE SMOOTH"
);
}
);
width = 1887;
}
);
note = uniAA9D;
unicode = AA9D;
},
{
glyphname = uniAA9E;
lastChange = "2016-11-10 14:43:39 +0000";
layers = (
{
layerId = "BE16C792-0DFB-4FCD-B142-35321F01CEFF";
paths = (
{
closed = 1;
nodes = (
"501 -20 OFFCURVE",
"539 -14 OFFCURVE",
"576 -3 CURVE SMOOTH",
"651 20 OFFCURVE",
"722 54 OFFCURVE",
"793 92 CURVE SMOOTH",
"828 111 OFFCURVE",
"864 128 OFFCURVE",
"899 144 CURVE",
"971 35 OFFCURVE",
"1056 -20 OFFCURVE",
"1155 -20 CURVE SMOOTH",
"1268 -20 OFFCURVE",
"1353 46 OFFCURVE",
"1353 133 CURVE SMOOTH",
"1353 237 OFFCURVE",
"1258 305 OFFCURVE",
"1101 305 CURVE SMOOTH",
"1068 305 OFFCURVE",
"1032 301 OFFCURVE",
"994 294 CURVE",
"982 346 OFFCURVE",
"976 447 OFFCURVE",
"976 598 CURVE SMOOTH",
"976 737 OFFCURVE",
"992 869 OFFCURVE",
"1023 993 CURVE",
"1105 907 LINE",
"1167 960 LINE",
"1055 1098 LINE",
"1092 1207 OFFCURVE",
"1144 1315 OFFCURVE",
"1212 1420 CURVE",
"1141 1441 OFFCURVE",
"1085 1523 OFFCURVE",
"1085 1624 CURVE SMOOTH",
"1085 1776 OFFCURVE",
"1158 1871 OFFCURVE",
"1339 1957 CURVE SMOOTH",
"1429 2000 OFFCURVE",
"1561 2045 OFFCURVE",
"1736 2093 CURVE",
"1716 2160 LINE",
"1551 2132 OFFCURVE",
"1406 2090 OFFCURVE",
"1281 2034 CURVE SMOOTH",
"1029 1922 OFFCURVE",
"905 1773 OFFCURVE",
"905 1604 CURVE SMOOTH",
"905 1469 OFFCURVE",
"957 1393 OFFCURVE",
"1049 1344 CURVE",
"1018 1296 OFFCURVE",
"991 1250 OFFCURVE",
"967 1206 CURVE",
"840 1364 OFFCURVE",
"769 1450 OFFCURVE",
"756 1464 CURVE",
"743 1477 OFFCURVE",
"729 1489 OFFCURVE",
"715 1500 CURVE",
"686 1521 OFFCURVE",
"669 1528 OFFCURVE",
"650 1528 CURVE SMOOTH",
"619 1528 OFFCURVE",
"570 1498 OFFCURVE",
"501 1437 CURVE SMOOTH",
"-23 985 LINE",
"25 920 LINE",
"139 1007 LINE",
"188 855 OFFCURVE",
"217 568 OFFCURVE",
"217 280 CURVE SMOOTH",
"217 72 OFFCURVE",
"291 -20 OFFCURVE",
"462 -20 CURVE SMOOTH"
);
},
{
closed = 1;
nodes = (
"1094 90 OFFCURVE",
"1060 121 OFFCURVE",
"1035 188 CURVE",
"1062 193 OFFCURVE",
"1086 195 OFFCURVE",
"1108 195 CURVE SMOOTH",
"1171 195 OFFCURVE",
"1203 176 OFFCURVE",
"1203 137 CURVE SMOOTH",
"1203 104 OFFCURVE",
"1172 90 OFFCURVE",
"1143 90 CURVE SMOOTH"
);
},
{
closed = 1;
nodes = (
"438 120 OFFCURVE",
"417 140 OFFCURVE",
"406 191 CURVE SMOOTH",
"400 216 OFFCURVE",
"397 253 OFFCURVE",
"397 301 CURVE SMOOTH",
"397 689 OFFCURVE",
"360 961 OFFCURVE",
"287 1116 CURVE",
"278 1113 LINE",
"471 1260 LINE SMOOTH",
"544 1315 OFFCURVE",
"599 1343 OFFCURVE",
"636 1343 CURVE SMOOTH",
"674 1343 OFFCURVE",
"721 1313 OFFCURVE",
"777 1253 CURVE SMOOTH",
"917 1105 LINE",
"836 933 OFFCURVE",
"796 764 OFFCURVE",
"796 598 CURVE SMOOTH",
"796 474 OFFCURVE",
"815 341 OFFCURVE",
"846 250 CURVE",
"743 207 LINE SMOOTH",
"664 172 OFFCURVE",
"609 148 OFFCURVE",
"576 137 CURVE SMOOTH",
"543 126 OFFCURVE",
"516 120 OFFCURVE",
"495 120 CURVE SMOOTH"
);
}
);
width = 1451;
}
);
note = uniAA9E;
unicode = AA9E;
},
{
glyphname = uniAA9F;
lastChange = "2016-11-10 14:43:39 +0000";
layers = (
{
layerId = "BE16C792-0DFB-4FCD-B142-35321F01CEFF";
paths = (
{
closed = 1;
nodes = (
"1323 -380 OFFCURVE",
"1406 -347 OFFCURVE",
"1459 -298 CURVE SMOOTH",
"1511 -249 OFFCURVE",
"1533 -183 OFFCURVE",
"1533 -115 CURVE SMOOTH",
"1533 -48 OFFCURVE",
"1502 12 OFFCURVE",
"1446 54 CURVE SMOOTH",
"1390 96 OFFCURVE",
"1309 122 OFFCURVE",
"1208 123 CURVE",
"1217 149 OFFCURVE",
"1228 179 OFFCURVE",
"1239 212 CURVE SMOOTH",
"1262 278 OFFCURVE",
"1288 353 OFFCURVE",
"1313 431 CURVE SMOOTH",
"1326 470 OFFCURVE",
"1338 508 OFFCURVE",
"1351 546 CURVE SMOOTH",
"1398 687 OFFCURVE",
"1461 842 OFFCURVE",
"1551 1006 CURVE SMOOTH",
"1641 1170 OFFCURVE",
"1760 1344 OFFCURVE",
"1920 1525 CURVE SMOOTH",
"2080 1706 OFFCURVE",
"2281 1895 OFFCURVE",
"2537 2088 CURVE",
"2489 2161 LINE",
"2197 1953 OFFCURVE",
"1942 1739 OFFCURVE",
"1727 1492 CURVE SMOOTH",
"1512 1244 OFFCURVE",
"1337 964 OFFCURVE",
"1208 624 CURVE SMOOTH",
"1191 579 OFFCURVE",
"1176 540 OFFCURVE",
"1165 507 CURVE SMOOTH",
"1141 439 OFFCURVE",
"1124 384 OFFCURVE",
"1109 332 CURVE SMOOTH",
"1102 306 OFFCURVE",
"1094 279 OFFCURVE",
"1085 250 CURVE",
"1068 307 OFFCURVE",
"1046 395 OFFCURVE",
"1024 491 CURVE SMOOTH",
"1002 587 OFFCURVE",
"979 693 OFFCURVE",
"959 789 CURVE SMOOTH",
"939 884 OFFCURVE",
"922 968 OFFCURVE",
"913 1020 CURVE SMOOTH",
"902 1080 OFFCURVE",
"879 1119 OFFCURVE",
"824 1119 CURVE SMOOTH",
"811 1119 OFFCURVE",
"796 1108 OFFCURVE",
"779 1087 CURVE SMOOTH",
"761 1065 OFFCURVE",
"742 1034 OFFCURVE",
"721 995 CURVE SMOOTH",
"679 915 OFFCURVE",
"631 803 OFFCURVE",
"584 668 CURVE SMOOTH",
"537 532 OFFCURVE",
"492 374 OFFCURVE",
"453 205 CURVE",
"440 230 OFFCURVE",
"422 286 OFFCURVE",
"403 358 CURVE SMOOTH",
"384 430 OFFCURVE",
"365 520 OFFCURVE",
"346 614 CURVE SMOOTH",
"326 708 OFFCURVE",
"308 805 OFFCURVE",
"294 894 CURVE SMOOTH",
"280 982 OFFCURVE",
"268 1062 OFFCURVE",
"263 1119 CURVE",
"100 1082 LINE",
"101 1017 OFFCURVE",
"118 899 OFFCURVE",
"142 766 CURVE SMOOTH",
"166 633 OFFCURVE",
"198 482 OFFCURVE",
"234 349 CURVE SMOOTH",
"270 216 OFFCURVE",
"309 100 OFFCURVE",
"346 36 CURVE SMOOTH",
"374 -12 OFFCURVE",
"404 -19 OFFCURVE",
"440 -19 CURVE SMOOTH",
"495 -19 OFFCURVE",
"526 29 OFFCURVE",
"546 92 CURVE",
"548 97 OFFCURVE",
"552 111 OFFCURVE",
"557 133 CURVE SMOOTH",
"562 155 OFFCURVE",
"569 182 OFFCURVE",
"578 215 CURVE SMOOTH",
"594 280 OFFCURVE",
"616 364 OFFCURVE",
"640 449 CURVE SMOOTH",
"663 534 OFFCURVE",
"688 621 OFFCURVE",
"712 692 CURVE SMOOTH",
"736 763 OFFCURVE",
"759 817 OFFCURVE",
"778 840 CURVE",
"785 775 OFFCURVE",
"801 682 OFFCURVE",
"822 580 CURVE SMOOTH",
"842 478 OFFCURVE",
"868 369 OFFCURVE",
"895 271 CURVE SMOOTH",
"922 173 OFFCURVE",
"949 87 OFFCURVE",
"974 34 CURVE SMOOTH",
"991 -2 OFFCURVE",
"1025 -19 OFFCURVE",
"1061 -19 CURVE SMOOTH",
"1078 -19 OFFCURVE",
"1099 -16 OFFCURVE",
"1120 -7 CURVE",
"1139 -5 OFFCURVE",
"1158 -4 OFFCURVE",
"1178 -4 CURVE SMOOTH",
"1235 -4 OFFCURVE",
"1286 -15 OFFCURVE",
"1323 -35 CURVE SMOOTH",
"1360 -56 OFFCURVE",
"1383 -88 OFFCURVE",
"1383 -128 CURVE SMOOTH",
"1383 -189 OFFCURVE",
"1354 -225 OFFCURVE",
"1315 -245 CURVE SMOOTH",
"1275 -265 OFFCURVE",
"1225 -270 OFFCURVE",
"1181 -270 CURVE SMOOTH",
"1114 -270 OFFCURVE",
"1035 -249 OFFCURVE",
"984 -210 CURVE",
"939 -274 LINE",
"970 -301 OFFCURVE",
"1008 -327 OFFCURVE",
"1052 -347 CURVE SMOOTH",
"1096 -367 OFFCURVE",
"1146 -380 OFFCURVE",
"1199 -380 CURVE SMOOTH"
);
}
);
width = 1887;
}
);
note = uniAA9F;
unicode = AA9F;
},
{
glyphname = uniAAA0;
lastChange = "2016-11-10 14:43:39 +0000";
layers = (
{
layerId = "BE16C792-0DFB-4FCD-B142-35321F01CEFF";
paths = (
{
closed = 1;
nodes = (
"501 -20 OFFCURVE",
"539 -14 OFFCURVE",
"576 -3 CURVE SMOOTH",
"651 20 OFFCURVE",
"722 54 OFFCURVE",
"793 92 CURVE SMOOTH",
"828 111 OFFCURVE",
"864 128 OFFCURVE",
"899 144 CURVE",
"971 35 OFFCURVE",
"1056 -20 OFFCURVE",
"1155 -20 CURVE SMOOTH",
"1268 -20 OFFCURVE",
"1353 46 OFFCURVE",
"1353 133 CURVE SMOOTH",
"1353 237 OFFCURVE",
"1258 305 OFFCURVE",
"1101 305 CURVE SMOOTH",
"1068 305 OFFCURVE",
"1032 301 OFFCURVE",
"994 294 CURVE",
"982 346 OFFCURVE",
"976 447 OFFCURVE",
"976 598 CURVE SMOOTH",
"976 721 OFFCURVE",
"990 854 OFFCURVE",
"1018 998 CURVE",
"1105 907 LINE",
"1167 960 LINE",
"1043 1112 LINE",
"1154 1555 OFFCURVE",
"1357 1888 OFFCURVE",
"1625 2087 CURVE",
"1577 2160 LINE",
"1268 1937 OFFCURVE",
"1037 1629 OFFCURVE",
"913 1273 CURVE",
"816 1393 OFFCURVE",
"760 1461 OFFCURVE",
"744 1476 CURVE SMOOTH",
"712 1506 OFFCURVE",
"679 1528 OFFCURVE",
"650 1528 CURVE SMOOTH",
"619 1528 OFFCURVE",
"570 1498 OFFCURVE",
"501 1437 CURVE SMOOTH",
"-23 985 LINE",
"25 920 LINE",
"139 1007 LINE",
"188 855 OFFCURVE",
"217 568 OFFCURVE",
"217 280 CURVE SMOOTH",
"217 72 OFFCURVE",
"291 -20 OFFCURVE",
"462 -20 CURVE SMOOTH"
);
},
{
closed = 1;
nodes = (
"1094 90 OFFCURVE",
"1060 121 OFFCURVE",
"1035 188 CURVE",
"1062 193 OFFCURVE",
"1086 195 OFFCURVE",
"1108 195 CURVE SMOOTH",
"1171 195 OFFCURVE",
"1203 176 OFFCURVE",
"1203 137 CURVE SMOOTH",
"1203 104 OFFCURVE",
"1172 90 OFFCURVE",
"1143 90 CURVE SMOOTH"
);
},
{
closed = 1;
nodes = (
"438 120 OFFCURVE",
"417 140 OFFCURVE",
"406 191 CURVE SMOOTH",
"400 216 OFFCURVE",
"397 253 OFFCURVE",
"397 301 CURVE SMOOTH",
"397 689 OFFCURVE",
"360 961 OFFCURVE",
"287 1116 CURVE",
"278 1113 LINE",
"471 1260 LINE SMOOTH",
"544 1315 OFFCURVE",
"599 1343 OFFCURVE",
"636 1343 CURVE SMOOTH",
"674 1343 OFFCURVE",
"721 1313 OFFCURVE",
"777 1253 CURVE SMOOTH",
"873 1151 LINE",
"822 972 OFFCURVE",
"796 788 OFFCURVE",
"796 598 CURVE SMOOTH",
"796 474 OFFCURVE",
"815 341 OFFCURVE",
"846 250 CURVE",
"743 207 LINE SMOOTH",
"664 172 OFFCURVE",
"609 148 OFFCURVE",
"576 137 CURVE SMOOTH",
"543 126 OFFCURVE",
"516 120 OFFCURVE",
"495 120 CURVE SMOOTH"
);
}
);
width = 1380;
}
);
note = uniAAA0;
unicode = AAA0;
},
{
glyphname = uniAAA1;
lastChange = "2016-11-10 14:43:39 +0000";
layers = (
{
layerId = "BE16C792-0DFB-4FCD-B142-35321F01CEFF";
paths = (
{
closed = 1;
nodes = (
"499 -20 OFFCURVE",
"533 33 OFFCURVE",
"557 132 CURVE SMOOTH",
"598 301 OFFCURVE",
"639 453 OFFCURVE",
"680 590 CURVE SMOOTH",
"721 726 OFFCURVE",
"753 809 OFFCURVE",
"778 839 CURVE",
"794 692 OFFCURVE",
"864 368 OFFCURVE",
"913 212 CURVE SMOOTH",
"962 55 OFFCURVE",
"1029 -20 OFFCURVE",
"1112 -20 CURVE SMOOTH",
"1196 -20 OFFCURVE",
"1260 1 OFFCURVE",
"1361 58 CURVE SMOOTH",
"1454 108 LINE",
"1518 23 OFFCURVE",
"1603 -20 OFFCURVE",
"1708 -20 CURVE SMOOTH",
"1836 -20 OFFCURVE",
"1940 53 OFFCURVE",
"1940 152 CURVE SMOOTH",
"1940 252 OFFCURVE",
"1851 317 OFFCURVE",
"1712 317 CURVE SMOOTH",
"1659 317 OFFCURVE",
"1605 308 OFFCURVE",
"1550 289 CURVE",
"1537 352 OFFCURVE",
"1530 437 OFFCURVE",
"1530 543 CURVE SMOOTH",
"1530 739 OFFCURVE",
"1564 934 OFFCURVE",
"1633 1128 CURVE SMOOTH",
"1770 1516 OFFCURVE",
"2043 1866 OFFCURVE",
"2375 2087 CURVE",
"2327 2160 LINE",
"2125 2027 OFFCURVE",
"1951 1873 OFFCURVE",
"1804 1696 CURVE SMOOTH",
"1510 1342 OFFCURVE",
"1350 919 OFFCURVE",
"1350 506 CURVE SMOOTH",
"1350 389 OFFCURVE",
"1366 291 OFFCURVE",
"1398 210 CURVE",
"1326 159 OFFCURVE",
"1261 122 OFFCURVE",
"1193 122 CURVE SMOOTH",
"1134 122 OFFCURVE",
"1085 209 OFFCURVE",
"1047 383 CURVE SMOOTH",
"996 606 OFFCURVE",
"926 939 OFFCURVE",
"913 1019 CURVE SMOOTH",
"901 1085 OFFCURVE",
"871 1118 OFFCURVE",
"824 1118 CURVE SMOOTH",
"798 1118 OFFCURVE",
"761 1072 OFFCURVE",
"714 981 CURVE SMOOTH",
"619 797 OFFCURVE",
"522 505 OFFCURVE",
"453 204 CURVE",
"404 292 OFFCURVE",
"284 875 OFFCURVE",
"263 1118 CURVE",
"100 1081 LINE",
"103 990 OFFCURVE",
"133 791 OFFCURVE",
"177 588 CURVE SMOOTH",
"220 385 OFFCURVE",
"270 210 OFFCURVE",
"311 110 CURVE SMOOTH",
"351 9 OFFCURVE",
"375 -20 OFFCURVE",
"440 -20 CURVE SMOOTH"
);
},
{
closed = 1;
nodes = (
"1650 90 OFFCURVE",
"1611 122 OFFCURVE",
"1582 185 CURVE",
"1617 200 OFFCURVE",
"1656 207 OFFCURVE",
"1700 207 CURVE SMOOTH",
"1756 207 OFFCURVE",
"1792 185 OFFCURVE",
"1792 144 CURVE SMOOTH",
"1792 121 OFFCURVE",
"1760 90 OFFCURVE",
"1701 90 CURVE SMOOTH"
);
}
);
width = 1990;
}
);
note = uniAAA1;
unicode = AAA1;
},
{
glyphname = uniAAA2;
lastChange = "2016-11-10 14:43:39 +0000";
layers = (
{
layerId = "BE16C792-0DFB-4FCD-B142-35321F01CEFF";
paths = (
{
closed = 1;
nodes = (
"1268 -40 OFFCURVE",
"1358 2 OFFCURVE",
"1421 87 CURVE",
"1492 48 LINE SMOOTH",
"1575 1 OFFCURVE",
"1639 -20 OFFCURVE",
"1704 -20 CURVE SMOOTH",
"1885 -20 OFFCURVE",
"1985 101 OFFCURVE",
"2004 362 CURVE SMOOTH",
"2018 549 OFFCURVE",
"2038 697 OFFCURVE",
"2065 804 CURVE SMOOTH",
"2118 1019 OFFCURVE",
"2208 1191 OFFCURVE",
"2351 1322 CURVE",
"2303 1385 LINE",
"2212 1304 OFFCURVE",
"2134 1215 OFFCURVE",
"2071 1117 CURVE SMOOTH",
"1943 921 OFFCURVE",
"1869 700 OFFCURVE",
"1834 343 CURVE SMOOTH",
"1819 196 OFFCURVE",
"1768 120 OFFCURVE",
"1692 120 CURVE SMOOTH",
"1652 120 OFFCURVE",
"1600 137 OFFCURVE",
"1537 172 CURVE SMOOTH",
"1478 203 LINE",
"1501 316 OFFCURVE",
"1513 453 OFFCURVE",
"1513 536 CURVE SMOOTH",
"1513 901 OFFCURVE",
"1379 1118 OFFCURVE",
"1152 1118 CURVE SMOOTH",
"1069 1118 OFFCURVE",
"950 1069 OFFCURVE",
"859 998 CURVE",
"849 1098 LINE",
"666 1036 LINE",
"680 941 OFFCURVE",
"687 841 OFFCURVE",
"687 734 CURVE SMOOTH",
"687 505 OFFCURVE",
"668 346 OFFCURVE",
"631 256 CURVE SMOOTH",
"593 165 OFFCURVE",
"535 120 OFFCURVE",
"458 120 CURVE SMOOTH",
"415 120 OFFCURVE",
"383 143 OFFCURVE",
"362 188 CURVE SMOOTH",
"340 233 OFFCURVE",
"329 307 OFFCURVE",
"329 411 CURVE SMOOTH",
"329 500 OFFCURVE",
"331 581 OFFCURVE",
"336 655 CURVE SMOOTH",
"340 729 OFFCURVE",
"342 796 OFFCURVE",
"342 855 CURVE SMOOTH",
"342 964 OFFCURVE",
"327 1051 OFFCURVE",
"297 1116 CURVE",
"120 1058 LINE",
"148 999 OFFCURVE",
"162 921 OFFCURVE",
"162 824 CURVE SMOOTH",
"162 778 OFFCURVE",
"160 707 OFFCURVE",
"156 612 CURVE SMOOTH",
"151 517 OFFCURVE",
"149 446 OFFCURVE",
"149 399 CURVE SMOOTH",
"149 136 OFFCURVE",
"246 -20 OFFCURVE",
"421 -20 CURVE SMOOTH",
"693 -20 OFFCURVE",
"867 302 OFFCURVE",
"867 799 CURVE",
"864 907 LINE",
"927 947 OFFCURVE",
"1025 978 OFFCURVE",
"1093 978 CURVE SMOOTH",
"1250 978 OFFCURVE",
"1333 827 OFFCURVE",
"1333 531 CURVE SMOOTH",
"1333 390 OFFCURVE",
"1331 342 OFFCURVE",
"1316 271 CURVE",
"1259 288 OFFCURVE",
"1201 297 OFFCURVE",
"1140 297 CURVE SMOOTH",
"997 297 OFFCURVE",
"910 231 OFFCURVE",
"910 118 CURVE SMOOTH",
"910 30 OFFCURVE",
"1006 -40 OFFCURVE",
"1151 -40 CURVE SMOOTH"
);
},
{
closed = 1;
nodes = (
"1090 70 OFFCURVE",
"1060 88 OFFCURVE",
"1060 124 CURVE SMOOTH",
"1060 165 OFFCURVE",
"1096 187 OFFCURVE",
"1152 187 CURVE SMOOTH",
"1187 187 OFFCURVE",
"1231 176 OFFCURVE",
"1284 155 CURVE",
"1255 98 OFFCURVE",
"1210 70 OFFCURVE",
"1151 70 CURVE SMOOTH"
);
}
);
width = 2351;
}
);
note = uniAAA2;
unicode = AAA2;
},
{
glyphname = uniAAA3;
lastChange = "2016-11-10 14:43:39 +0000";
layers = (
{
layerId = "BE16C792-0DFB-4FCD-B142-35321F01CEFF";
paths = (
{
closed = 1;
nodes = (
"411 -40 OFFCURVE",
"504 10 OFFCURVE",
"561 87 CURVE",
"693 16 OFFCURVE",
"800 -20 OFFCURVE",
"883 -20 CURVE SMOOTH",
"1101 -20 OFFCURVE",
"1217 92 OFFCURVE",
"1231 317 CURVE SMOOTH",
"1243 514 OFFCURVE",
"1262 669 OFFCURVE",
"1288 783 CURVE SMOOTH",
"1340 1011 OFFCURVE",
"1432 1186 OFFCURVE",
"1581 1322 CURVE",
"1533 1385 LINE",
"1476 1334 OFFCURVE",
"1426 1282 OFFCURVE",
"1383 1228 CURVE SMOOTH",
"1295 1119 OFFCURVE",
"1224 996 OFFCURVE",
"1176 866 CURVE SMOOTH",
"1127 736 OFFCURVE",
"1094 611 OFFCURVE",
"1055 307 CURVE SMOOTH",
"1049 258 OFFCURVE",
"1039 221 OFFCURVE",
"1024 195 CURVE SMOOTH",
"995 143 OFFCURVE",
"960 120 OFFCURVE",
"871 120 CURVE SMOOTH",
"810 120 OFFCURVE",
"725 148 OFFCURVE",
"618 203 CURVE",
"638 293 OFFCURVE",
"648 395 OFFCURVE",
"648 509 CURVE SMOOTH",
"648 715 OFFCURVE",
"618 917 OFFCURVE",
"557 1116 CURVE",
"384 1058 LINE",
"440 851 OFFCURVE",
"468 652 OFFCURVE",
"468 461 CURVE SMOOTH",
"468 392 OFFCURVE",
"465 328 OFFCURVE",
"459 271 CURVE",
"402 288 OFFCURVE",
"343 297 OFFCURVE",
"280 297 CURVE SMOOTH",
"137 297 OFFCURVE",
"50 231 OFFCURVE",
"50 118 CURVE SMOOTH",
"50 27 OFFCURVE",
"143 -40 OFFCURVE",
"290 -40 CURVE SMOOTH"
);
},
{
closed = 1;
nodes = (
"230 70 OFFCURVE",
"200 88 OFFCURVE",
"200 124 CURVE SMOOTH",
"200 165 OFFCURVE",
"236 187 OFFCURVE",
"292 187 CURVE SMOOTH",
"327 187 OFFCURVE",
"371 176 OFFCURVE",
"424 155 CURVE",
"395 98 OFFCURVE",
"350 70 OFFCURVE",
"291 70 CURVE SMOOTH"
);
}
);
width = 1581;
}
);
note = uniAAA3;
unicode = AAA3;
},
{
glyphname = uniAAA4;
lastChange = "2016-11-10 14:43:39 +0000";
layers = (
{
layerId = "BE16C792-0DFB-4FCD-B142-35321F01CEFF";
paths = (
{
closed = 1;
nodes = (
"497 -20 OFFCURVE",
"522 -10 OFFCURVE",
"543 11 CURVE SMOOTH",
"585 51 OFFCURVE",
"625 182 OFFCURVE",
"666 315 CURVE SMOOTH",
"752 594 OFFCURVE",
"850 832 OFFCURVE",
"960 1028 CURVE",
"1075 907 LINE",
"1137 960 LINE",
"1011 1114 LINE",
"1228 1469 OFFCURVE",
"1527 1783 OFFCURVE",
"1928 2087 CURVE",
"1880 2160 LINE",
"1443 1848 OFFCURVE",
"1149 1562 OFFCURVE",
"918 1229 CURVE",
"819 1352 OFFCURVE",
"760 1425 OFFCURVE",
"741 1448 CURVE",
"701 1493 OFFCURVE",
"653 1528 OFFCURVE",
"620 1528 CURVE SMOOTH",
"589 1528 OFFCURVE",
"540 1498 OFFCURVE",
"471 1437 CURVE SMOOTH",
"-53 985 LINE",
"-5 920 LINE",
"91 993 LINE",
"136 712 OFFCURVE",
"279 182 OFFCURVE",
"366 35 CURVE SMOOTH",
"394 -13 OFFCURVE",
"423 -20 OFFCURVE",
"470 -20 CURVE SMOOTH"
);
},
{
closed = 1;
nodes = (
"415 321 OFFCURVE",
"273 865 OFFCURVE",
"244 1110 CURVE",
"441 1260 LINE SMOOTH",
"514 1315 OFFCURVE",
"569 1343 OFFCURVE",
"606 1343 CURVE SMOOTH",
"644 1343 OFFCURVE",
"691 1313 OFFCURVE",
"747 1253 CURVE SMOOTH",
"857 1136 LINE",
"689 871 OFFCURVE",
"560 568 OFFCURVE",
"470 225 CURVE"
);
}
);
width = 1278;
}
);
note = uniAAA4;
unicode = AAA4;
},
{
glyphname = uniAAA5;
lastChange = "2016-11-10 14:43:39 +0000";
layers = (
{
layerId = "BE16C792-0DFB-4FCD-B142-35321F01CEFF";
paths = (
{
closed = 1;
nodes = (
"504 -20 OFFCURVE",
"531 -8 OFFCURVE",
"550 16 CURVE SMOOTH",
"569 39 OFFCURVE",
"588 89 OFFCURVE",
"606 165 CURVE SMOOTH",
"694 540 OFFCURVE",
"803 836 OFFCURVE",
"934 1055 CURVE",
"1075 907 LINE",
"1137 960 LINE",
"989 1142 LINE",
"1038 1213 OFFCURVE",
"1088 1273 OFFCURVE",
"1138 1322 CURVE",
"1090 1385 LINE",
"1035 1340 OFFCURVE",
"980 1286 OFFCURVE",
"923 1223 CURVE",
"806 1369 OFFCURVE",
"740 1449 OFFCURVE",
"727 1463 CURVE",
"713 1477 OFFCURVE",
"699 1489 OFFCURVE",
"685 1500 CURVE",
"656 1521 OFFCURVE",
"639 1528 OFFCURVE",
"620 1528 CURVE SMOOTH",
"589 1528 OFFCURVE",
"540 1498 OFFCURVE",
"471 1437 CURVE SMOOTH",
"-53 985 LINE",
"-5 920 LINE",
"91 993 LINE",
"136 712 OFFCURVE",
"279 182 OFFCURVE",
"366 35 CURVE SMOOTH",
"394 -13 OFFCURVE",
"423 -20 OFFCURVE",
"470 -20 CURVE SMOOTH"
);
},
{
closed = 1;
nodes = (
"415 321 OFFCURVE",
"273 865 OFFCURVE",
"244 1110 CURVE",
"441 1260 LINE SMOOTH",
"514 1315 OFFCURVE",
"569 1343 OFFCURVE",
"606 1343 CURVE SMOOTH",
"644 1343 OFFCURVE",
"691 1313 OFFCURVE",
"747 1253 CURVE SMOOTH",
"854 1139 LINE",
"793 1060 OFFCURVE",
"742 978 OFFCURVE",
"699 893 CURVE SMOOTH",
"614 723 OFFCURVE",
"562 592 OFFCURVE",
"470 225 CURVE"
);
}
);
width = 1138;
}
);
note = uniAAA5;
unicode = AAA5;
},
{
glyphname = uniAAA6;
lastChange = "2016-11-10 14:43:39 +0000";
layers = (
{
layerId = "BE16C792-0DFB-4FCD-B142-35321F01CEFF";
paths = (
{
closed = 1;
nodes = (
"618 181 OFFCURVE",
"648 383 OFFCURVE",
"648 589 CURVE SMOOTH",
"648 703 OFFCURVE",
"638 805 OFFCURVE",
"618 895 CURVE",
"713 943 OFFCURVE",
"833 978 OFFCURVE",
"912 978 CURVE SMOOTH",
"967 978 OFFCURVE",
"1010 969 OFFCURVE",
"1039 952 CURVE SMOOTH",
"1097 917 OFFCURVE",
"1120 850 OFFCURVE",
"1120 687 CURVE SMOOTH",
"1120 598 OFFCURVE",
"1118 519 OFFCURVE",
"1114 448 CURVE SMOOTH",
"1109 377 OFFCURVE",
"1107 312 OFFCURVE",
"1107 253 CURVE SMOOTH",
"1107 144 OFFCURVE",
"1122 57 OFFCURVE",
"1152 -8 CURVE",
"1329 49 LINE",
"1301 108 OFFCURVE",
"1287 187 OFFCURVE",
"1287 284 CURVE SMOOTH",
"1287 351 OFFCURVE",
"1289 420 OFFCURVE",
"1294 491 CURVE SMOOTH",
"1298 562 OFFCURVE",
"1300 632 OFFCURVE",
"1300 699 CURVE SMOOTH",
"1300 975 OFFCURVE",
"1168 1118 OFFCURVE",
"921 1118 CURVE SMOOTH",
"825 1118 OFFCURVE",
"673 1071 OFFCURVE",
"561 1011 CURVE",
"504 1088 OFFCURVE",
"411 1138 OFFCURVE",
"290 1138 CURVE SMOOTH",
"143 1138 OFFCURVE",
"50 1071 OFFCURVE",
"50 980 CURVE SMOOTH",
"50 869 OFFCURVE",
"132 801 OFFCURVE",
"280 801 CURVE SMOOTH",
"343 801 OFFCURVE",
"403 810 OFFCURVE",
"459 827 CURVE",
"465 767 OFFCURVE",
"468 704 OFFCURVE",
"468 637 CURVE SMOOTH",
"468 446 OFFCURVE",
"440 247 OFFCURVE",
"384 40 CURVE",
"557 -18 LINE"
);
},
{
closed = 1;
nodes = (
"236 911 OFFCURVE",
"200 933 OFFCURVE",
"200 974 CURVE SMOOTH",
"200 1010 OFFCURVE",
"230 1028 OFFCURVE",
"291 1028 CURVE SMOOTH",
"350 1028 OFFCURVE",
"395 1000 OFFCURVE",
"424 943 CURVE",
"371 922 OFFCURVE",
"327 911 OFFCURVE",
"292 911 CURVE SMOOTH"
);
}
);
width = 1449;
}
);
note = uniAAA6;
unicode = AAA6;
},
{
glyphname = uniAAA7;
lastChange = "2016-11-10 14:43:39 +0000";
layers = (
{
layerId = "BE16C792-0DFB-4FCD-B142-35321F01CEFF";
paths = (
{
closed = 1;
nodes = (
"1041 -81 OFFCURVE",
"1116 7 OFFCURVE",
"1191 72 CURVE",
"1247 -3 OFFCURVE",
"1328 -40 OFFCURVE",
"1434 -40 CURVE SMOOTH",
"1479 -40 OFFCURVE",
"1520 -32 OFFCURVE",
"1558 -17 CURVE SMOOTH",
"1633 14 OFFCURVE",
"1681 71 OFFCURVE",
"1681 126 CURVE SMOOTH",
"1681 234 OFFCURVE",
"1599 297 OFFCURVE",
"1451 297 CURVE SMOOTH",
"1399 297 OFFCURVE",
"1347 285 OFFCURVE",
"1295 262 CURVE",
"1290 298 OFFCURVE",
"1288 339 OFFCURVE",
"1288 386 CURVE SMOOTH",
"1288 439 OFFCURVE",
"1290 491 OFFCURVE",
"1294 543 CURVE SMOOTH",
"1298 595 OFFCURVE",
"1300 647 OFFCURVE",
"1300 699 CURVE SMOOTH",
"1300 975 OFFCURVE",
"1168 1118 OFFCURVE",
"921 1118 CURVE SMOOTH",
"825 1118 OFFCURVE",
"673 1071 OFFCURVE",
"561 1011 CURVE",
"504 1088 OFFCURVE",
"411 1138 OFFCURVE",
"290 1138 CURVE SMOOTH",
"143 1138 OFFCURVE",
"50 1071 OFFCURVE",
"50 980 CURVE SMOOTH",
"50 869 OFFCURVE",
"132 801 OFFCURVE",
"280 801 CURVE SMOOTH",
"343 801 OFFCURVE",
"403 810 OFFCURVE",
"459 827 CURVE",
"465 767 OFFCURVE",
"468 704 OFFCURVE",
"468 637 CURVE SMOOTH",
"468 446 OFFCURVE",
"440 247 OFFCURVE",
"384 40 CURVE",
"557 -18 LINE",
"618 181 OFFCURVE",
"648 383 OFFCURVE",
"648 589 CURVE SMOOTH",
"648 703 OFFCURVE",
"638 805 OFFCURVE",
"618 895 CURVE",
"713 943 OFFCURVE",
"833 978 OFFCURVE",
"912 978 CURVE SMOOTH",
"967 978 OFFCURVE",
"1010 969 OFFCURVE",
"1039 952 CURVE SMOOTH",
"1097 917 OFFCURVE",
"1120 850 OFFCURVE",
"1120 687 CURVE SMOOTH",
"1120 645 OFFCURVE",
"1117 564 OFFCURVE",
"1110 444 CURVE SMOOTH",
"1108 371 LINE SMOOTH",
"1108 292 OFFCURVE",
"1119 224 OFFCURVE",
"1140 166 CURVE",
"1035 81 OFFCURVE",
"947 -23 OFFCURVE",
"876 -146 CURVE",
"966 -193 LINE"
);
},
{
closed = 1;
nodes = (
"236 911 OFFCURVE",
"200 933 OFFCURVE",
"200 974 CURVE SMOOTH",
"200 1010 OFFCURVE",
"230 1028 OFFCURVE",
"291 1028 CURVE SMOOTH",
"350 1028 OFFCURVE",
"395 1000 OFFCURVE",
"424 943 CURVE",
"371 922 OFFCURVE",
"327 911 OFFCURVE",
"292 911 CURVE SMOOTH"
);
},
{
closed = 1;
nodes = (
"1388 70 OFFCURVE",
"1349 100 OFFCURVE",
"1323 160 CURVE",
"1363 178 OFFCURVE",
"1402 187 OFFCURVE",
"1439 187 CURVE SMOOTH",
"1495 187 OFFCURVE",
"1531 165 OFFCURVE",
"1531 124 CURVE SMOOTH",
"1531 88 OFFCURVE",
"1501 70 OFFCURVE",
"1440 70 CURVE SMOOTH"
);
}
);
width = 1731;
}
);
note = uniAAA7;
unicode = AAA7;
},
{
glyphname = uniAAA8;
lastChange = "2016-11-10 14:43:39 +0000";
layers = (
{
layerId = "BE16C792-0DFB-4FCD-B142-35321F01CEFF";
paths = (
{
closed = 1;
nodes = (
"1800 -523 LINE",
"1679 -460 OFFCURVE",
"1589 -403 OFFCURVE",
"1530 -350 CURVE SMOOTH",
"1412 -246 OFFCURVE",
"1362 -126 OFFCURVE",
"1362 63 CURVE SMOOTH",
"1362 116 OFFCURVE",
"1369 189 OFFCURVE",
"1382 280 CURVE SMOOTH",
"1410 471 OFFCURVE",
"1427 590 OFFCURVE",
"1432 639 CURVE SMOOTH",
"1437 688 OFFCURVE",
"1439 731 OFFCURVE",
"1439 768 CURVE SMOOTH",
"1439 996 OFFCURVE",
"1339 1118 OFFCURVE",
"1152 1118 CURVE SMOOTH",
"1059 1118 OFFCURVE",
"950 1074 OFFCURVE",
"858 1006 CURVE",
"849 1098 LINE",
"666 1036 LINE",
"680 941 OFFCURVE",
"687 841 OFFCURVE",
"687 734 CURVE SMOOTH",
"687 505 OFFCURVE",
"668 346 OFFCURVE",
"631 256 CURVE SMOOTH",
"593 165 OFFCURVE",
"535 120 OFFCURVE",
"458 120 CURVE SMOOTH",
"415 120 OFFCURVE",
"383 143 OFFCURVE",
"362 188 CURVE SMOOTH",
"340 233 OFFCURVE",
"329 307 OFFCURVE",
"329 411 CURVE SMOOTH",
"329 500 OFFCURVE",
"331 581 OFFCURVE",
"336 655 CURVE SMOOTH",
"340 729 OFFCURVE",
"342 796 OFFCURVE",
"342 855 CURVE SMOOTH",
"342 964 OFFCURVE",
"327 1051 OFFCURVE",
"297 1116 CURVE",
"120 1058 LINE",
"148 999 OFFCURVE",
"162 921 OFFCURVE",
"162 824 CURVE SMOOTH",
"162 778 OFFCURVE",
"160 707 OFFCURVE",
"156 612 CURVE SMOOTH",
"151 517 OFFCURVE",
"149 446 OFFCURVE",
"149 399 CURVE SMOOTH",
"149 136 OFFCURVE",
"246 -20 OFFCURVE",
"421 -20 CURVE SMOOTH",
"693 -20 OFFCURVE",
"867 302 OFFCURVE",
"867 799 CURVE",
"865 888 LINE",
"935 948 OFFCURVE",
"1013 978 OFFCURVE",
"1098 978 CURVE SMOOTH",
"1217 978 OFFCURVE",
"1259 925 OFFCURVE",
"1259 756 CURVE SMOOTH",
"1259 641 OFFCURVE",
"1240 534 OFFCURVE",
"1221 427 CURVE SMOOTH",
"1201 319 OFFCURVE",
"1182 214 OFFCURVE",
"1182 109 CURVE SMOOTH",
"1182 38 OFFCURVE",
"1189 -25 OFFCURVE",
"1203 -81 CURVE SMOOTH",
"1231 -193 OFFCURVE",
"1283 -280 OFFCURVE",
"1360 -354 CURVE SMOOTH",
"1437 -428 OFFCURVE",
"1513 -481 OFFCURVE",
"1753 -600 CURVE"
);
}
);
width = 1640;
}
);
note = uniAAA8;
unicode = AAA8;
},
{
glyphname = uniAAA9;
lastChange = "2016-11-10 14:43:39 +0000";
layers = (
{
layerId = "BE16C792-0DFB-4FCD-B142-35321F01CEFF";
paths = (
{
closed = 1;
nodes = (
"772 35 LINE",
"801 194 OFFCURVE",
"836 329 OFFCURVE",
"877 441 CURVE SMOOTH",
"958 664 OFFCURVE",
"1082 864 OFFCURVE",
"1259 1049 CURVE",
"1221 1118 LINE",
"1019 953 OFFCURVE",
"863 762 OFFCURVE",
"753 544 CURVE",
"734 541 OFFCURVE",
"718 539 OFFCURVE",
"704 539 CURVE SMOOTH",
"681 539 OFFCURVE",
"664 553 OFFCURVE",
"651 581 CURVE SMOOTH",
"638 608 OFFCURVE",
"627 655 OFFCURVE",
"619 722 CURVE SMOOTH",
"605 839 OFFCURVE",
"589 921 OFFCURVE",
"570 969 CURVE SMOOTH",
"533 1065 OFFCURVE",
"464 1118 OFFCURVE",
"364 1118 CURVE SMOOTH",
"276 1118 OFFCURVE",
"143 1059 OFFCURVE",
"50 980 CURVE",
"95 918 LINE",
"166 957 OFFCURVE",
"253 978 OFFCURVE",
"305 978 CURVE SMOOTH",
"373 978 OFFCURVE",
"415 916 OFFCURVE",
"438 795 CURVE SMOOTH",
"459 682 OFFCURVE",
"474 608 OFFCURVE",
"485 572 CURVE SMOOTH",
"496 535 OFFCURVE",
"510 504 OFFCURVE",
"527 479 CURVE SMOOTH",
"562 428 OFFCURVE",
"609 399 OFFCURVE",
"680 399 CURVE SMOOTH",
"686 399 LINE",
"634 270 OFFCURVE",
"593 130 OFFCURVE",
"563 -20 CURVE"
);
}
);
width = 1359;
}
);
note = uniAAA9;
unicode = AAA9;
},
{
glyphname = uniAAAA;
lastChange = "2016-11-10 14:43:39 +0000";
layers = (
{
layerId = "BE16C792-0DFB-4FCD-B142-35321F01CEFF";
paths = (
{
closed = 1;
nodes = (
"693 -20 OFFCURVE",
"867 302 OFFCURVE",
"867 799 CURVE",
"864 907 LINE",
"927 947 OFFCURVE",
"1025 978 OFFCURVE",
"1093 978 CURVE SMOOTH",
"1158 978 OFFCURVE",
"1211 926 OFFCURVE",
"1211 854 CURVE SMOOTH",
"1211 734 OFFCURVE",
"1193 623 OFFCURVE",
"1174 523 CURVE SMOOTH",
"1154 423 OFFCURVE",
"1136 332 OFFCURVE",
"1136 255 CURVE SMOOTH",
"1136 78 OFFCURVE",
"1220 -20 OFFCURVE",
"1380 -20 CURVE SMOOTH",
"1565 -20 OFFCURVE",
"1714 137 OFFCURVE",
"1791 392 CURVE SMOOTH",
"1828 520 LINE SMOOTH",
"1881 707 OFFCURVE",
"1924 830 OFFCURVE",
"1957 889 CURVE SMOOTH",
"1990 947 OFFCURVE",
"2024 976 OFFCURVE",
"2060 976 CURVE SMOOTH",
"2116 976 OFFCURVE",
"2158 942 OFFCURVE",
"2186 873 CURVE SMOOTH",
"2214 804 OFFCURVE",
"2228 691 OFFCURVE",
"2228 532 CURVE SMOOTH",
"2228 402 OFFCURVE",
"2211 296 OFFCURVE",
"2176 214 CURVE SMOOTH",
"2141 131 OFFCURVE",
"2097 90 OFFCURVE",
"2043 90 CURVE SMOOTH",
"1986 90 OFFCURVE",
"1930 125 OFFCURVE",
"1875 196 CURVE",
"1809 156 LINE",
"1861 52 OFFCURVE",
"1968 -20 OFFCURVE",
"2077 -20 CURVE SMOOTH",
"2140 -20 OFFCURVE",
"2197 5 OFFCURVE",
"2248 56 CURVE SMOOTH",
"2349 156 OFFCURVE",
"2408 341 OFFCURVE",
"2408 544 CURVE SMOOTH",
"2408 663 OFFCURVE",
"2395 767 OFFCURVE",
"2369 855 CURVE SMOOTH",
"2316 1030 OFFCURVE",
"2222 1116 OFFCURVE",
"2097 1116 CURVE SMOOTH",
"1900 1116 OFFCURVE",
"1774 966 OFFCURVE",
"1675 582 CURVE SMOOTH",
"1667 553 OFFCURVE",
"1658 522 OFFCURVE",
"1649 488 CURVE SMOOTH",
"1640 454 OFFCURVE",
"1629 420 OFFCURVE",
"1618 386 CURVE SMOOTH",
"1594 317 OFFCURVE",
"1565 250 OFFCURVE",
"1532 201 CURVE SMOOTH",
"1499 152 OFFCURVE",
"1458 120 OFFCURVE",
"1413 120 CURVE SMOOTH",
"1344 120 OFFCURVE",
"1316 163 OFFCURVE",
"1316 251 CURVE SMOOTH",
"1316 304 OFFCURVE",
"1329 401 OFFCURVE",
"1354 544 CURVE SMOOTH",
"1379 686 OFFCURVE",
"1391 795 OFFCURVE",
"1391 870 CURVE SMOOTH",
"1391 913 OFFCURVE",
"1381 954 OFFCURVE",
"1361 992 CURVE SMOOTH",
"1320 1068 OFFCURVE",
"1247 1118 OFFCURVE",
"1152 1118 CURVE SMOOTH",
"1069 1118 OFFCURVE",
"950 1069 OFFCURVE",
"859 998 CURVE",
"849 1098 LINE",
"666 1036 LINE",
"680 941 OFFCURVE",
"687 841 OFFCURVE",
"687 734 CURVE SMOOTH",
"687 505 OFFCURVE",
"668 346 OFFCURVE",
"631 256 CURVE SMOOTH",
"593 165 OFFCURVE",
"535 120 OFFCURVE",
"458 120 CURVE SMOOTH",
"415 120 OFFCURVE",
"383 143 OFFCURVE",
"362 188 CURVE SMOOTH",
"340 233 OFFCURVE",
"329 307 OFFCURVE",
"329 411 CURVE SMOOTH",
"329 500 OFFCURVE",
"331 581 OFFCURVE",
"336 655 CURVE SMOOTH",
"340 729 OFFCURVE",
"342 796 OFFCURVE",
"342 855 CURVE SMOOTH",
"342 964 OFFCURVE",
"327 1051 OFFCURVE",
"297 1116 CURVE",
"120 1058 LINE",
"148 999 OFFCURVE",
"162 921 OFFCURVE",
"162 824 CURVE SMOOTH",
"162 778 OFFCURVE",
"160 707 OFFCURVE",
"156 612 CURVE SMOOTH",
"151 517 OFFCURVE",
"149 446 OFFCURVE",
"149 399 CURVE SMOOTH",
"149 136 OFFCURVE",
"246 -20 OFFCURVE",
"421 -20 CURVE SMOOTH"
);
}
);
width = 2528;
}
);
note = uniAAAA;
unicode = AAAA;
},
{
glyphname = uniAAAB;
lastChange = "2016-11-10 14:43:39 +0000";
layers = (
{
layerId = "BE16C792-0DFB-4FCD-B142-35321F01CEFF";
paths = (
{
closed = 1;
nodes = (
"663 -20 OFFCURVE",
"757 11 OFFCURVE",
"843 73 CURVE SMOOTH",
"1015 197 OFFCURVE",
"1132 440 OFFCURVE",
"1132 672 CURVE SMOOTH",
"1132 953 OFFCURVE",
"981 1118 OFFCURVE",
"706 1118 CURVE SMOOTH",
"621 1118 OFFCURVE",
"539 1100 OFFCURVE",
"460 1065 CURVE SMOOTH",
"301 993 OFFCURVE",
"156 837 OFFCURVE",
"80 686 CURVE",
"156 646 LINE",
"199 713 OFFCURVE",
"251 773 OFFCURVE",
"310 825 CURVE SMOOTH",
"428 928 OFFCURVE",
"558 978 OFFCURVE",
"691 978 CURVE SMOOTH",
"862 978 OFFCURVE",
"952 864 OFFCURVE",
"952 668 CURVE SMOOTH",
"952 569 OFFCURVE",
"937 477 OFFCURVE",
"907 393 CURVE SMOOTH",
"847 225 OFFCURVE",
"733 120 OFFCURVE",
"597 120 CURVE SMOOTH",
"456 120 OFFCURVE",
"389 187 OFFCURVE",
"382 319 CURVE",
"208 287 LINE",
"223 86 OFFCURVE",
"346 -20 OFFCURVE",
"562 -20 CURVE SMOOTH"
);
}
);
width = 1252;
}
);
note = uniAAAB;
unicode = AAAB;
},
{
glyphname = uniAAAC;
lastChange = "2016-11-10 14:43:39 +0000";
layers = (
{
layerId = "BE16C792-0DFB-4FCD-B142-35321F01CEFF";
paths = (
{
closed = 1;
nodes = (
"713 -20 OFFCURVE",
"887 302 OFFCURVE",
"887 799 CURVE SMOOTH",
"887 836 LINE",
"886 874 LINE",
"969 943 OFFCURVE",
"1060 978 OFFCURVE",
"1159 978 CURVE SMOOTH",
"1214 978 OFFCURVE",
"1253 957 OFFCURVE",
"1278 916 CURVE SMOOTH",
"1302 875 OFFCURVE",
"1314 798 OFFCURVE",
"1314 687 CURVE SMOOTH",
"1314 598 OFFCURVE",
"1312 519 OFFCURVE",
"1308 448 CURVE SMOOTH",
"1303 377 OFFCURVE",
"1301 312 OFFCURVE",
"1301 253 CURVE SMOOTH",
"1301 144 OFFCURVE",
"1316 57 OFFCURVE",
"1346 -8 CURVE",
"1523 50 LINE",
"1495 109 OFFCURVE",
"1481 187 OFFCURVE",
"1481 284 CURVE SMOOTH",
"1481 351 OFFCURVE",
"1483 420 OFFCURVE",
"1488 491 CURVE SMOOTH",
"1492 562 OFFCURVE",
"1494 632 OFFCURVE",
"1494 699 CURVE SMOOTH",
"1494 959 OFFCURVE",
"1390 1118 OFFCURVE",
"1214 1118 CURVE SMOOTH",
"1114 1118 OFFCURVE",
"987 1069 OFFCURVE",
"879 989 CURVE",
"869 1098 LINE",
"686 1036 LINE",
"700 941 OFFCURVE",
"707 841 OFFCURVE",
"707 734 CURVE SMOOTH",
"707 505 OFFCURVE",
"688 346 OFFCURVE",
"651 256 CURVE SMOOTH",
"613 165 OFFCURVE",
"555 120 OFFCURVE",
"478 120 CURVE SMOOTH",
"383 120 OFFCURVE",
"329 231 OFFCURVE",
"329 411 CURVE SMOOTH",
"329 500 OFFCURVE",
"331 581 OFFCURVE",
"336 655 CURVE SMOOTH",
"340 729 OFFCURVE",
"342 796 OFFCURVE",
"342 855 CURVE SMOOTH",
"342 964 OFFCURVE",
"327 1051 OFFCURVE",
"297 1116 CURVE",
"120 1058 LINE",
"148 999 OFFCURVE",
"162 921 OFFCURVE",
"162 824 CURVE SMOOTH",
"162 778 OFFCURVE",
"160 707 OFFCURVE",
"156 612 CURVE SMOOTH",
"151 517 OFFCURVE",
"149 446 OFFCURVE",
"149 399 CURVE SMOOTH",
"149 147 OFFCURVE",
"260 -20 OFFCURVE",
"441 -20 CURVE SMOOTH"
);
}
);
width = 1643;
}
);
note = uniAAAC;
unicode = AAAC;
},
{
glyphname = uniAAAD;
lastChange = "2016-11-10 14:43:39 +0000";
layers = (
{
layerId = "BE16C792-0DFB-4FCD-B142-35321F01CEFF";
paths = (
{
closed = 1;
nodes = (
"570 -20 OFFCURVE",
"695 114 OFFCURVE",
"776 382 CURVE SMOOTH",
"814 511 LINE SMOOTH",
"865 688 OFFCURVE",
"911 810 OFFCURVE",
"950 877 CURVE SMOOTH",
"989 943 OFFCURVE",
"1031 976 OFFCURVE",
"1078 976 CURVE SMOOTH",
"1217 976 OFFCURVE",
"1306 799 OFFCURVE",
"1306 532 CURVE SMOOTH",
"1306 289 OFFCURVE",
"1219 90 OFFCURVE",
"1106 90 CURVE SMOOTH",
"1049 90 OFFCURVE",
"993 125 OFFCURVE",
"938 196 CURVE",
"872 156 LINE",
"924 52 OFFCURVE",
"1031 -20 OFFCURVE",
"1140 -20 CURVE SMOOTH",
"1207 -20 OFFCURVE",
"1268 5 OFFCURVE",
"1321 54 CURVE SMOOTH",
"1427 153 OFFCURVE",
"1486 337 OFFCURVE",
"1486 544 CURVE SMOOTH",
"1486 651 OFFCURVE",
"1470 750 OFFCURVE",
"1439 839 CURVE SMOOTH",
"1375 1018 OFFCURVE",
"1262 1116 OFFCURVE",
"1115 1116 CURVE SMOOTH",
"918 1116 OFFCURVE",
"792 966 OFFCURVE",
"693 582 CURVE SMOOTH",
"650 412 OFFCURVE",
"608 293 OFFCURVE",
"568 224 CURVE SMOOTH",
"527 155 OFFCURVE",
"484 120 OFFCURVE",
"438 120 CURVE SMOOTH",
"395 120 OFFCURVE",
"363 143 OFFCURVE",
"342 188 CURVE SMOOTH",
"320 233 OFFCURVE",
"309 307 OFFCURVE",
"309 411 CURVE SMOOTH",
"309 500 OFFCURVE",
"311 581 OFFCURVE",
"316 655 CURVE SMOOTH",
"320 729 OFFCURVE",
"322 796 OFFCURVE",
"322 855 CURVE SMOOTH",
"322 964 OFFCURVE",
"307 1051 OFFCURVE",
"277 1116 CURVE",
"100 1058 LINE",
"128 999 OFFCURVE",
"142 921 OFFCURVE",
"142 824 CURVE SMOOTH",
"142 778 OFFCURVE",
"140 707 OFFCURVE",
"136 612 CURVE SMOOTH",
"131 517 OFFCURVE",
"129 446 OFFCURVE",
"129 399 CURVE SMOOTH",
"129 136 OFFCURVE",
"226 -20 OFFCURVE",
"401 -20 CURVE SMOOTH"
);
}
);
width = 1606;
}
);
note = uniAAAD;
unicode = AAAD;
},
{
glyphname = uniAAAE;
lastChange = "2016-11-10 14:43:39 +0000";
layers = (
{
layerId = "BE16C792-0DFB-4FCD-B142-35321F01CEFF";
paths = (
{
closed = 1;
nodes = (
"634 -20 OFFCURVE",
"741 11 OFFCURVE",
"838 72 CURVE SMOOTH",
"1031 194 OFFCURVE",
"1145 421 OFFCURVE",
"1145 672 CURVE SMOOTH",
"1145 705 OFFCURVE",
"1142 738 OFFCURVE",
"1137 773 CURVE",
"1180 794 OFFCURVE",
"1216 814 OFFCURVE",
"1245 832 CURVE",
"1216 918 LINE",
"1181 899 OFFCURVE",
"1147 882 OFFCURVE",
"1114 867 CURVE",
"1053 1035 OFFCURVE",
"916 1118 OFFCURVE",
"719 1118 CURVE SMOOTH",
"642 1118 OFFCURVE",
"572 1104 OFFCURVE",
"507 1076 CURVE SMOOTH",
"377 1019 OFFCURVE",
"296 914 OFFCURVE",
"296 811 CURVE SMOOTH",
"296 688 OFFCURVE",
"406 604 OFFCURVE",
"577 604 CURVE SMOOTH",
"672 604 OFFCURVE",
"801 635 OFFCURVE",
"964 696 CURVE",
"965 683 LINE",
"965 668 LINE SMOOTH",
"965 565 OFFCURVE",
"948 471 OFFCURVE",
"913 387 CURVE SMOOTH",
"844 219 OFFCURVE",
"710 120 OFFCURVE",
"531 120 CURVE SMOOTH",
"343 120 OFFCURVE",
"220 225 OFFCURVE",
"220 388 CURVE SMOOTH",
"220 425 OFFCURVE",
"227 462 OFFCURVE",
"241 497 CURVE",
"136 554 LINE",
"112 500 OFFCURVE",
"100 443 OFFCURVE",
"100 382 CURVE SMOOTH",
"100 306 OFFCURVE",
"117 237 OFFCURVE",
"152 176 CURVE SMOOTH",
"220 53 OFFCURVE",
"353 -20 OFFCURVE",
"516 -20 CURVE SMOOTH"
);
},
{
closed = 1;
nodes = (
"497 714 OFFCURVE",
"446 759 OFFCURVE",
"446 814 CURVE SMOOTH",
"446 841 OFFCURVE",
"458 868 OFFCURVE",
"482 895 CURVE SMOOTH",
"529 947 OFFCURVE",
"609 978 OFFCURVE",
"704 978 CURVE SMOOTH",
"833 978 OFFCURVE",
"914 917 OFFCURVE",
"949 795 CURVE",
"809 741 OFFCURVE",
"697 714 OFFCURVE",
"612 714 CURVE SMOOTH"
);
}
);
width = 1265;
}
);
note = uniAAAE;
unicode = AAAE;
},
{
glyphname = uniAAAF;
lastChange = "2016-11-10 14:43:39 +0000";
layers = (
{
layerId = "BE16C792-0DFB-4FCD-B142-35321F01CEFF";
paths = (
{
closed = 1;
nodes = (
"821 -528 OFFCURVE",
"988 -426 OFFCURVE",
"1139 -293 CURVE SMOOTH",
"1439 -28 OFFCURVE",
"1619 315 OFFCURVE",
"1619 635 CURVE SMOOTH",
"1619 842 OFFCURVE",
"1539 953 OFFCURVE",
"1378 953 CURVE SMOOTH",
"1351 953 OFFCURVE",
"1321 948 OFFCURVE",
"1288 939 CURVE SMOOTH",
"1255 930 OFFCURVE",
"1197 906 OFFCURVE",
"1114 867 CURVE",
"1053 1035 OFFCURVE",
"916 1118 OFFCURVE",
"719 1118 CURVE SMOOTH",
"642 1118 OFFCURVE",
"572 1104 OFFCURVE",
"507 1076 CURVE SMOOTH",
"377 1019 OFFCURVE",
"296 914 OFFCURVE",
"296 811 CURVE SMOOTH",
"296 688 OFFCURVE",
"406 604 OFFCURVE",
"577 604 CURVE SMOOTH",
"672 604 OFFCURVE",
"801 635 OFFCURVE",
"964 696 CURVE",
"965 682 LINE",
"965 668 LINE SMOOTH",
"965 565 OFFCURVE",
"948 471 OFFCURVE",
"913 387 CURVE SMOOTH",
"844 219 OFFCURVE",
"710 120 OFFCURVE",
"531 120 CURVE SMOOTH",
"343 120 OFFCURVE",
"220 225 OFFCURVE",
"220 388 CURVE SMOOTH",
"220 425 OFFCURVE",
"227 462 OFFCURVE",
"241 497 CURVE",
"136 554 LINE",
"112 500 OFFCURVE",
"100 443 OFFCURVE",
"100 382 CURVE SMOOTH",
"100 306 OFFCURVE",
"117 237 OFFCURVE",
"152 176 CURVE SMOOTH",
"220 53 OFFCURVE",
"353 -20 OFFCURVE",
"516 -20 CURVE SMOOTH",
"634 -20 OFFCURVE",
"741 11 OFFCURVE",
"838 72 CURVE SMOOTH",
"1031 194 OFFCURVE",
"1145 421 OFFCURVE",
"1145 672 CURVE SMOOTH",
"1145 705 OFFCURVE",
"1142 738 OFFCURVE",
"1137 773 CURVE",
"1182 796 LINE SMOOTH",
"1241 827 OFFCURVE",
"1288 843 OFFCURVE",
"1322 843 CURVE SMOOTH",
"1400 843 OFFCURVE",
"1439 772 OFFCURVE",
"1439 631 CURVE SMOOTH",
"1439 472 OFFCURVE",
"1405 316 OFFCURVE",
"1336 165 CURVE SMOOTH",
"1199 -139 OFFCURVE",
"940 -375 OFFCURVE",
"589 -523 CURVE",
"636 -600 LINE"
);
},
{
closed = 1;
nodes = (
"497 714 OFFCURVE",
"446 759 OFFCURVE",
"446 814 CURVE SMOOTH",
"446 841 OFFCURVE",
"458 868 OFFCURVE",
"482 895 CURVE SMOOTH",
"529 947 OFFCURVE",
"609 978 OFFCURVE",
"704 978 CURVE SMOOTH",
"833 978 OFFCURVE",
"914 917 OFFCURVE",
"949 795 CURVE",
"809 741 OFFCURVE",
"697 714 OFFCURVE",
"612 714 CURVE SMOOTH"
);
}
);
width = 1739;
}
);
note = uniAAAF;
unicode = AAAF;
},
{
glyphname = uniAAB0;
lastChange = "2016-11-10 14:43:39 +0000";
layers = (
{
layerId = "BE16C792-0DFB-4FCD-B142-35321F01CEFF";
paths = (
{
closed = 1;
nodes = (
"-947 1300 OFFCURVE",
"-903 1307 OFFCURVE",
"-861 1321 CURVE SMOOTH",
"-778 1349 OFFCURVE",
"-709 1391 OFFCURVE",
"-553 1522 CURVE SMOOTH",
"-431 1624 OFFCURVE",
"-345 1693 OFFCURVE",
"-296 1729 CURVE",
"-329 1813 LINE",
"-407 1760 OFFCURVE",
"-476 1710 OFFCURVE",
"-536 1662 CURVE SMOOTH",
"-597 1613 OFFCURVE",
"-652 1570 OFFCURVE",
"-702 1533 CURVE SMOOTH",
"-802 1458 OFFCURVE",
"-886 1410 OFFCURVE",
"-974 1410 CURVE SMOOTH",
"-1015 1410 OFFCURVE",
"-1054 1441 OFFCURVE",
"-1054 1486 CURVE SMOOTH",
"-1054 1549 OFFCURVE",
"-1031 1590 OFFCURVE",
"-948 1645 CURVE",
"-977 1690 LINE",
"-1088 1655 OFFCURVE",
"-1184 1557 OFFCURVE",
"-1184 1465 CURVE SMOOTH",
"-1184 1364 OFFCURVE",
"-1108 1300 OFFCURVE",
"-992 1300 CURVE SMOOTH"
);
}
);
width = 0;
}
);
note = uniAAB0;
unicode = AAB0;
},
{
glyphname = uniAAB1;
lastChange = "2016-11-10 14:43:39 +0000";
layers = (
{
layerId = "BE16C792-0DFB-4FCD-B142-35321F01CEFF";
paths = (
{
closed = 1;
nodes = (
"445 30 LINE",
"421 118 OFFCURVE",
"409 245 OFFCURVE",
"409 411 CURVE SMOOTH",
"409 500 OFFCURVE",
"411 581 OFFCURVE",
"416 655 CURVE SMOOTH",
"420 729 OFFCURVE",
"422 796 OFFCURVE",
"422 855 CURVE SMOOTH",
"422 964 OFFCURVE",
"407 1051 OFFCURVE",
"377 1116 CURVE",
"200 1058 LINE",
"228 999 OFFCURVE",
"242 921 OFFCURVE",
"242 824 CURVE SMOOTH",
"242 778 OFFCURVE",
"240 707 OFFCURVE",
"236 612 CURVE SMOOTH",
"231 517 OFFCURVE",
"229 446 OFFCURVE",
"229 399 CURVE SMOOTH",
"229 201 OFFCURVE",
"244 65 OFFCURVE",
"275 -10 CURVE"
);
}
);
width = 645;
}
);
note = uniAAB1;
unicode = AAB1;
},
{
glyphname = uniAAB2;
lastChange = "2016-11-10 14:40:34 +0000";
layers = (
{
layerId = "BE16C792-0DFB-4FCD-B142-35321F01CEFF";
paths = (
{
closed = 1;
nodes = (
"-951 1337 OFFCURVE",
"-802 1449 OFFCURVE",
"-673 1597 CURVE",
"-609 1470 OFFCURVE",
"-448 1381 OFFCURVE",
"-252 1356 CURVE",
"-240 1421 LINE",
"-305 1440 OFFCURVE",
"-358 1465 OFFCURVE",
"-399 1494 CURVE SMOOTH",
"-483 1553 OFFCURVE",
"-526 1620 OFFCURVE",
"-551 1763 CURVE",
"-706 1787 LINE",
"-746 1711 OFFCURVE",
"-783 1651 OFFCURVE",
"-817 1606 CURVE SMOOTH",
"-886 1517 OFFCURVE",
"-974 1435 OFFCURVE",
"-1093 1371 CURVE",
"-1071 1300 LINE"
);
}
);
width = 0;
}
);
note = uniAAB2;
unicode = AAB2;
},
{
glyphname = uniAAB3;
lastChange = "2016-11-10 14:43:39 +0000";
layers = (
{
layerId = "BE16C792-0DFB-4FCD-B142-35321F01CEFF";
paths = (
{
closed = 1;
nodes = (
"-894 1372 OFFCURVE",
"-777 1510 OFFCURVE",
"-742 1645 CURVE",
"-597 1685 OFFCURVE",
"-467 1757 OFFCURVE",
"-324 1836 CURVE",
"-363 1920 LINE",
"-491 1856 OFFCURVE",
"-613 1796 OFFCURVE",
"-734 1760 CURVE",
"-751 1873 OFFCURVE",
"-839 1951 OFFCURVE",
"-963 1951 CURVE SMOOTH",
"-1091 1951 OFFCURVE",
"-1186 1880 OFFCURVE",
"-1186 1785 CURVE SMOOTH",
"-1186 1680 OFFCURVE",
"-1102 1614 OFFCURVE",
"-966 1614 CURVE SMOOTH",
"-943 1614 OFFCURVE",
"-913 1616 OFFCURVE",
"-876 1619 CURVE",
"-904 1528 OFFCURVE",
"-971 1429 OFFCURVE",
"-1079 1350 CURVE",
"-1030 1300 LINE"
);
},
{
closed = 1;
nodes = (
"-1015 1724 OFFCURVE",
"-1056 1750 OFFCURVE",
"-1056 1787 CURVE SMOOTH",
"-1056 1823 OFFCURVE",
"-1026 1841 OFFCURVE",
"-967 1841 CURVE SMOOTH",
"-903 1841 OFFCURVE",
"-868 1796 OFFCURVE",
"-861 1731 CURVE",
"-888 1726 OFFCURVE",
"-919 1724 OFFCURVE",
"-954 1724 CURVE SMOOTH"
);
}
);
width = 0;
}
);
note = uniAAB3;
unicode = AAB3;
},
{
glyphname = uniAAB4;
lastChange = "2016-11-10 14:40:34 +0000";
layers = (
{
layerId = "BE16C792-0DFB-4FCD-B142-35321F01CEFF";
paths = (
{
closed = 1;
nodes = (
"-603 -585 OFFCURVE",
"-506 -557 OFFCURVE",
"-421 -516 CURVE SMOOTH",
"-253 -435 OFFCURVE",
"-150 -315 OFFCURVE",
"-150 -208 CURVE SMOOTH",
"-150 -133 OFFCURVE",
"-203 -80 OFFCURVE",
"-311 -80 CURVE SMOOTH",
"-379 -80 OFFCURVE",
"-455 -118 OFFCURVE",
"-540 -195 CURVE",
"-508 -238 LINE",
"-473 -207 OFFCURVE",
"-403 -180 OFFCURVE",
"-363 -180 CURVE SMOOTH",
"-314 -180 OFFCURVE",
"-290 -199 OFFCURVE",
"-290 -237 CURVE SMOOTH",
"-290 -272 OFFCURVE",
"-310 -311 OFFCURVE",
"-350 -354 CURVE SMOOTH",
"-430 -442 OFFCURVE",
"-570 -512 OFFCURVE",
"-725 -532 CURVE",
"-712 -600 LINE"
);
}
);
width = 0;
}
);
note = uniAAB4;
unicode = AAB4;
},
{
glyphname = uniAAB5;
lastChange = "2016-11-10 14:43:39 +0000";
layers = (
{
layerId = "BE16C792-0DFB-4FCD-B142-35321F01CEFF";
paths = (
{
closed = 1;
nodes = (
"1209 57 LINE",
"1189 140 OFFCURVE",
"1179 223 OFFCURVE",
"1179 308 CURVE SMOOTH",
"1179 625 OFFCURVE",
"1306 940 OFFCURVE",
"1543 1203 CURVE",
"1488 1264 LINE",
"1189 961 OFFCURVE",
"999 587 OFFCURVE",
"999 274 CURVE SMOOTH",
"999 269 LINE",
"932 308 OFFCURVE",
"861 332 OFFCURVE",
"784 340 CURVE",
"760 236 LINE",
"872 223 OFFCURVE",
"979 127 OFFCURVE",
"1047 -10 CURVE"
);
},
{
closed = 1;
nodes = (
"609 57 LINE",
"589 140 OFFCURVE",
"579 223 OFFCURVE",
"579 308 CURVE SMOOTH",
"579 625 OFFCURVE",
"706 940 OFFCURVE",
"943 1203 CURVE",
"888 1264 LINE",
"589 961 OFFCURVE",
"399 587 OFFCURVE",
"399 274 CURVE SMOOTH",
"399 269 LINE",
"332 308 OFFCURVE",
"261 332 OFFCURVE",
"184 340 CURVE",
"160 236 LINE",
"272 223 OFFCURVE",
"379 127 OFFCURVE",
"447 -10 CURVE"
);
}
);
width = 1643;
}
);
note = uniAAB5;
unicode = AAB5;
},
{
glyphname = uniAAB6;
lastChange = "2016-11-10 14:43:39 +0000";
layers = (
{
layerId = "BE16C792-0DFB-4FCD-B142-35321F01CEFF";
paths = (
{
closed = 1;
nodes = (
"837 -40 OFFCURVE",
"934 32 OFFCURVE",
"934 132 CURVE SMOOTH",
"934 256 OFFCURVE",
"797 360 OFFCURVE",
"534 431 CURVE",
"532 476 LINE",
"532 523 LINE SMOOTH",
"532 717 OFFCURVE",
"567 913 OFFCURVE",
"636 1111 CURVE SMOOTH",
"774 1507 OFFCURVE",
"1046 1867 OFFCURVE",
"1377 2087 CURVE",
"1329 2160 LINE",
"1128 2029 OFFCURVE",
"955 1873 OFFCURVE",
"808 1694 CURVE SMOOTH",
"514 1335 OFFCURVE",
"352 903 OFFCURVE",
"352 486 CURVE SMOOTH",
"352 469 LINE",
"277 481 OFFCURVE",
"198 490 OFFCURVE",
"117 495 CURVE",
"100 399 LINE",
"195 389 OFFCURVE",
"282 376 OFFCURVE",
"359 361 CURVE",
"390 105 OFFCURVE",
"521 -40 OFFCURVE",
"710 -40 CURVE SMOOTH"
);
},
{
closed = 1;
nodes = (
"620 70 OFFCURVE",
"567 152 OFFCURVE",
"544 316 CURVE",
"711 263 OFFCURVE",
"794 199 OFFCURVE",
"794 124 CURVE SMOOTH",
"794 101 OFFCURVE",
"762 70 OFFCURVE",
"703 70 CURVE SMOOTH"
);
}
);
width = 992;
}
);
note = uniAAB6;
unicode = AAB6;
},
{
glyphname = uniAAB7;
lastChange = "2016-11-10 14:43:39 +0000";
layers = (
{
layerId = "BE16C792-0DFB-4FCD-B142-35321F01CEFF";
paths = (
{
closed = 1;
nodes = (
"-1022 1399 OFFCURVE",
"-575 1647 OFFCURVE",
"-304 1767 CURVE",
"-335 1847 LINE",
"-678 1724 OFFCURVE",
"-1042 1547 OFFCURVE",
"-1218 1416 CURVE",
"-1145 1300 LINE"
);
}
);
width = 0;
}
);
note = uniAAB7;
unicode = AAB7;
},
{
glyphname = uniAAB8;
lastChange = "2016-11-10 14:43:39 +0000";
layers = (
{
layerId = "BE16C792-0DFB-4FCD-B142-35321F01CEFF";
paths = (
{
closed = 1;
nodes = (
"-1075 1333 OFFCURVE",
"-919 1397 OFFCURVE",
"-729 1492 CURVE",
"-637 1356 LINE",
"-541 1410 LINE",
"-641 1537 LINE",
"-506 1608 OFFCURVE",
"-396 1671 OFFCURVE",
"-312 1725 CURVE",
"-360 1803 LINE",
"-459 1750 OFFCURVE",
"-579 1693 OFFCURVE",
"-720 1631 CURVE",
"-774 1692 OFFCURVE",
"-820 1740 OFFCURVE",
"-859 1777 CURVE",
"-918 1733 LINE",
"-884 1697 OFFCURVE",
"-846 1651 OFFCURVE",
"-803 1595 CURVE",
"-1025 1501 OFFCURVE",
"-1171 1446 OFFCURVE",
"-1242 1430 CURVE",
"-1196 1300 LINE"
);
}
);
width = 0;
}
);
note = uniAAB8;
unicode = AAB8;
},
{
glyphname = uniAAB9;
lastChange = "2016-11-10 14:43:39 +0000";
layers = (
{
layerId = "BE16C792-0DFB-4FCD-B142-35321F01CEFF";
paths = (
{
closed = 1;
nodes = (
"609 57 LINE",
"589 140 OFFCURVE",
"579 223 OFFCURVE",
"579 308 CURVE SMOOTH",
"579 625 OFFCURVE",
"706 940 OFFCURVE",
"943 1203 CURVE",
"888 1264 LINE",
"589 961 OFFCURVE",
"399 587 OFFCURVE",
"399 274 CURVE SMOOTH",
"399 269 LINE",
"332 308 OFFCURVE",
"261 332 OFFCURVE",
"184 340 CURVE",
"160 236 LINE",
"272 223 OFFCURVE",
"379 127 OFFCURVE",
"447 -10 CURVE"
);
}
);
width = 1103;
}
);
note = uniAAB9;
unicode = AAB9;
},
{
glyphname = uniAABA;
lastChange = "2016-11-10 14:43:39 +0000";
layers = (
{
layerId = "BE16C792-0DFB-4FCD-B142-35321F01CEFF";
paths = (
{
closed = 1;
nodes = (
"779 50 LINE",
"751 109 OFFCURVE",
"737 187 OFFCURVE",
"737 284 CURVE SMOOTH",
"737 351 OFFCURVE",
"739 411 OFFCURVE",
"744 466 CURVE SMOOTH",
"748 520 OFFCURVE",
"750 571 OFFCURVE",
"750 619 CURVE SMOOTH",
"750 728 OFFCURVE",
"740 830 OFFCURVE",
"721 927 CURVE",
"644 912 OFFCURVE",
"529 903 OFFCURVE",
"473 903 CURVE SMOOTH",
"368 903 OFFCURVE",
"300 980 OFFCURVE",
"300 1096 CURVE SMOOTH",
"300 1177 OFFCURVE",
"322 1245 OFFCURVE",
"367 1302 CURVE SMOOTH",
"455 1415 OFFCURVE",
"644 1504 OFFCURVE",
"1003 1599 CURVE",
"980 1660 LINE",
"812 1635 OFFCURVE",
"661 1594 OFFCURVE",
"527 1535 CURVE SMOOTH",
"258 1417 OFFCURVE",
"120 1255 OFFCURVE",
"120 1076 CURVE SMOOTH",
"120 891 OFFCURVE",
"261 763 OFFCURVE",
"456 763 CURVE",
"564 767 LINE",
"568 735 OFFCURVE",
"570 696 OFFCURVE",
"570 649 CURVE SMOOTH",
"570 596 OFFCURVE",
"568 537 OFFCURVE",
"564 471 CURVE SMOOTH",
"559 405 OFFCURVE",
"557 332 OFFCURVE",
"557 253 CURVE SMOOTH",
"557 144 OFFCURVE",
"572 57 OFFCURVE",
"602 -8 CURVE"
);
}
);
width = 953;
}
);
note = uniAABA;
unicode = AABA;
},
{
glyphname = uniAABB;
lastChange = "2016-11-10 14:43:39 +0000";
layers = (
{
layerId = "BE16C792-0DFB-4FCD-B142-35321F01CEFF";
paths = (
{
closed = 1;
nodes = (
"853 38 LINE",
"738 169 OFFCURVE",
"698 332 OFFCURVE",
"698 520 CURVE SMOOTH",
"698 676 OFFCURVE",
"724 847 OFFCURVE",
"753 1026 CURVE SMOOTH",
"781 1205 OFFCURVE",
"812 1393 OFFCURVE",
"820 1581 CURVE",
"951 1625 OFFCURVE",
"1066 1677 OFFCURVE",
"1164 1736 CURVE",
"1135 1822 LINE",
"1032 1767 OFFCURVE",
"928 1722 OFFCURVE",
"823 1686 CURVE",
"818 1979 OFFCURVE",
"664 2160 OFFCURVE",
"397 2160 CURVE SMOOTH",
"322 2160 OFFCURVE",
"255 2145 OFFCURVE",
"195 2116 CURVE SMOOTH",
"75 2056 OFFCURVE",
"0 1945 OFFCURVE",
"0 1836 CURVE SMOOTH",
"0 1774 OFFCURVE",
"20 1717 OFFCURVE",
"61 1664 CURVE SMOOTH",
"141 1559 OFFCURVE",
"284 1508 OFFCURVE",
"469 1508 CURVE SMOOTH",
"514 1508 OFFCURVE",
"570 1515 OFFCURVE",
"638 1530 CURVE",
"632 1449 OFFCURVE",
"614 1304 OFFCURVE",
"585 1093 CURVE SMOOTH",
"560 917 OFFCURVE",
"548 777 OFFCURVE",
"548 673 CURVE SMOOTH",
"548 388 OFFCURVE",
"630 167 OFFCURVE",
"793 -20 CURVE"
);
},
{
closed = 1;
nodes = (
"405 1618 OFFCURVE",
"349 1627 OFFCURVE",
"301 1644 CURVE SMOOTH",
"205 1679 OFFCURVE",
"150 1755 OFFCURVE",
"150 1839 CURVE SMOOTH",
"150 1870 OFFCURVE",
"160 1899 OFFCURVE",
"180 1928 CURVE SMOOTH",
"219 1984 OFFCURVE",
"291 2020 OFFCURVE",
"382 2020 CURVE SMOOTH",
"541 2020 OFFCURVE",
"643 1885 OFFCURVE",
"643 1676 CURVE SMOOTH",
"643 1657 LINE",
"642 1637 LINE",
"579 1624 OFFCURVE",
"522 1618 OFFCURVE",
"469 1618 CURVE SMOOTH"
);
}
);
width = 1064;
}
);
note = uniAABB;
unicode = AABB;
},
{
glyphname = uniAABC;
lastChange = "2016-11-10 14:43:39 +0000";
layers = (
{
layerId = "BE16C792-0DFB-4FCD-B142-35321F01CEFF";
paths = (
{
closed = 1;
nodes = (
"957 50 LINE",
"929 109 OFFCURVE",
"915 187 OFFCURVE",
"915 284 CURVE SMOOTH",
"915 351 OFFCURVE",
"917 420 OFFCURVE",
"922 491 CURVE SMOOTH",
"926 562 OFFCURVE",
"928 632 OFFCURVE",
"928 699 CURVE SMOOTH",
"928 756 OFFCURVE",
"922 817 OFFCURVE",
"910 882 CURVE SMOOTH",
"886 1010 OFFCURVE",
"843 1125 OFFCURVE",
"811 1153 CURVE",
"701 1115 OFFCURVE",
"594 1096 OFFCURVE",
"491 1096 CURVE SMOOTH",
"327 1096 OFFCURVE",
"230 1195 OFFCURVE",
"230 1372 CURVE SMOOTH",
"230 1471 OFFCURVE",
"265 1567 OFFCURVE",
"335 1662 CURVE SMOOTH",
"474 1851 OFFCURVE",
"743 2010 OFFCURVE",
"1083 2099 CURVE",
"1060 2160 LINE",
"886 2135 OFFCURVE",
"717 2080 OFFCURVE",
"554 1996 CURVE SMOOTH",
"226 1827 OFFCURVE",
"50 1600 OFFCURVE",
"50 1360 CURVE SMOOTH",
"50 1116 OFFCURVE",
"225 956 OFFCURVE",
"481 956 CURVE SMOOTH",
"558 956 OFFCURVE",
"631 963 OFFCURVE",
"701 976 CURVE",
"729 937 OFFCURVE",
"748 822 OFFCURVE",
"748 687 CURVE SMOOTH",
"748 598 OFFCURVE",
"746 519 OFFCURVE",
"742 448 CURVE SMOOTH",
"737 377 OFFCURVE",
"735 312 OFFCURVE",
"735 253 CURVE SMOOTH",
"735 142 OFFCURVE",
"750 55 OFFCURVE",
"780 -10 CURVE"
);
}
);
width = 1083;
}
);
note = uniAABC;
unicode = AABC;
},
{
glyphname = uniAABD;
lastChange = "2016-11-10 14:43:39 +0000";
layers = (
{
layerId = "BE16C792-0DFB-4FCD-B142-35321F01CEFF";
paths = (
{
closed = 1;
nodes = (
"1155 -40 OFFCURVE",
"1196 -32 OFFCURVE",
"1234 -17 CURVE SMOOTH",
"1309 14 OFFCURVE",
"1357 71 OFFCURVE",
"1357 126 CURVE SMOOTH",
"1357 234 OFFCURVE",
"1275 297 OFFCURVE",
"1127 297 CURVE SMOOTH",
"1072 297 OFFCURVE",
"1013 289 OFFCURVE",
"950 272 CURVE",
"946 304 OFFCURVE",
"944 339 OFFCURVE",
"944 378 CURVE SMOOTH",
"944 579 OFFCURVE",
"982 767 OFFCURVE",
"1058 942 CURVE",
"1159 890 OFFCURVE",
"1238 845 OFFCURVE",
"1295 806 CURVE",
"1337 870 LINE",
"1284 912 OFFCURVE",
"1206 966 OFFCURVE",
"1102 1033 CURVE",
"1162 1145 OFFCURVE",
"1231 1241 OFFCURVE",
"1308 1322 CURVE",
"1260 1385 LINE",
"1167 1302 OFFCURVE",
"1082 1205 OFFCURVE",
"1005 1093 CURVE",
"946 1129 OFFCURVE",
"866 1174 OFFCURVE",
"765 1228 CURVE",
"696 1113 LINE",
"945 997 LINE",
"824 786 OFFCURVE",
"764 578 OFFCURVE",
"764 371 CURVE SMOOTH",
"764 314 OFFCURVE",
"771 262 OFFCURVE",
"785 213 CURVE",
"706 178 OFFCURVE",
"653 157 OFFCURVE",
"626 149 CURVE SMOOTH",
"572 132 OFFCURVE",
"520 120 OFFCURVE",
"469 120 CURVE SMOOTH",
"409 120 OFFCURVE",
"392 140 OFFCURVE",
"392 197 CURVE SMOOTH",
"392 211 OFFCURVE",
"397 253 OFFCURVE",
"406 323 CURVE SMOOTH",
"415 392 OFFCURVE",
"419 451 OFFCURVE",
"419 499 CURVE SMOOTH",
"419 736 OFFCURVE",
"367 975 OFFCURVE",
"287 1116 CURVE",
"120 1058 LINE",
"143 1023 OFFCURVE",
"164 976 OFFCURVE",
"181 919 CURVE SMOOTH",
"216 804 OFFCURVE",
"239 619 OFFCURVE",
"239 502 CURVE SMOOTH",
"239 471 OFFCURVE",
"235 424 OFFCURVE",
"226 360 CURVE SMOOTH",
"217 295 OFFCURVE",
"212 247 OFFCURVE",
"212 215 CURVE SMOOTH",
"212 66 OFFCURVE",
"303 -20 OFFCURVE",
"447 -20 CURVE SMOOTH",
"544 -20 OFFCURVE",
"712 38 OFFCURVE",
"835 103 CURVE",
"896 8 OFFCURVE",
"987 -40 OFFCURVE",
"1110 -40 CURVE SMOOTH"
);
},
{
closed = 1;
nodes = (
"1051 70 OFFCURVE",
"1005 102 OFFCURVE",
"978 165 CURVE",
"1025 180 OFFCURVE",
"1070 187 OFFCURVE",
"1115 187 CURVE SMOOTH",
"1171 187 OFFCURVE",
"1207 165 OFFCURVE",
"1207 124 CURVE SMOOTH",
"1207 88 OFFCURVE",
"1177 70 OFFCURVE",
"1116 70 CURVE SMOOTH"
);
}
);
width = 1542;
}
);
note = uniAABD;
unicode = AABD;
},
{
glyphname = uniAABE;
lastChange = "2016-11-10 14:43:39 +0000";
layers = (
{
layerId = "BE16C792-0DFB-4FCD-B142-35321F01CEFF";
paths = (
{
closed = 1;
nodes = (
"-431 1919 OFFCURVE",
"-270 1942 OFFCURVE",
"-120 1976 CURVE",
"-147 2097 LINE",
"-374 2031 OFFCURVE",
"-530 1993 OFFCURVE",
"-617 1983 CURVE",
"-604 1908 LINE"
);
},
{
closed = 1;
nodes = (
"-1005 1311 OFFCURVE",
"-844 1334 OFFCURVE",
"-694 1368 CURVE",
"-721 1489 LINE",
"-948 1423 OFFCURVE",
"-1104 1385 OFFCURVE",
"-1191 1375 CURVE",
"-1178 1300 LINE"
);
},
{
closed = 1;
nodes = (
"-718 1615 OFFCURVE",
"-557 1638 OFFCURVE",
"-407 1672 CURVE",
"-434 1793 LINE",
"-661 1727 OFFCURVE",
"-817 1689 OFFCURVE",
"-904 1679 CURVE",
"-891 1604 LINE"
);
}
);
width = 0;
}
);
note = uniAABE;
unicode = AABE;
},
{
glyphname = uniAABF;
lastChange = "2016-11-10 14:40:34 +0000";
layers = (
{
layerId = "BE16C792-0DFB-4FCD-B142-35321F01CEFF";
paths = (
{
closed = 1;
nodes = (
"-544 1563 OFFCURVE",
"-424 1822 OFFCURVE",
"-320 1991 CURVE",
"-468 2064 LINE",
"-559 1908 OFFCURVE",
"-681 1537 OFFCURVE",
"-724 1333 CURVE",
"-635 1300 LINE"
);
}
);
width = 0;
}
);
note = uniAABF;
unicode = AABF;
},
{
glyphname = uniAAC0;
lastChange = "2016-11-10 14:43:39 +0000";
layers = (
{
layerId = "BE16C792-0DFB-4FCD-B142-35321F01CEFF";
paths = (
{
closed = 1;
nodes = (
"806 -20 OFFCURVE",
"975 67 OFFCURVE",
"1088 215 CURVE",
"1010 289 LINE",
"937 186 OFFCURVE",
"805 120 OFFCURVE",
"658 120 CURVE SMOOTH",
"471 120 OFFCURVE",
"366 228 OFFCURVE",
"366 424 CURVE SMOOTH",
"366 481 OFFCURVE",
"373 540 OFFCURVE",
"387 601 CURVE",
"481 564 OFFCURVE",
"570 545 OFFCURVE",
"655 545 CURVE SMOOTH",
"736 545 OFFCURVE",
"805 559 OFFCURVE",
"863 586 CURVE SMOOTH",
"979 640 OFFCURVE",
"1042 738 OFFCURVE",
"1042 858 CURVE SMOOTH",
"1042 1018 OFFCURVE",
"932 1118 OFFCURVE",
"743 1118 CURVE SMOOTH",
"546 1118 OFFCURVE",
"371 996 OFFCURVE",
"266 773 CURVE",
"236 790 OFFCURVE",
"200 814 OFFCURVE",
"158 844 CURVE",
"100 758 LINE",
"148 725 OFFCURVE",
"191 699 OFFCURVE",
"229 678 CURVE",
"201 593 OFFCURVE",
"187 507 OFFCURVE",
"187 420 CURVE SMOOTH",
"187 149 OFFCURVE",
"353 -20 OFFCURVE",
"625 -20 CURVE SMOOTH"
);
},
{
closed = 1;
nodes = (
"570 645 OFFCURVE",
"497 662 OFFCURVE",
"415 696 CURVE",
"482 875 OFFCURVE",
"586 978 OFFCURVE",
"710 978 CURVE SMOOTH",
"809 978 OFFCURVE",
"862 928 OFFCURVE",
"862 844 CURVE SMOOTH",
"862 727 OFFCURVE",
"772 645 OFFCURVE",
"635 645 CURVE SMOOTH"
);
}
);
width = 1208;
}
);
note = uniAAC0;
unicode = AAC0;
},
{
glyphname = uniAAC1;
lastChange = "2016-11-10 14:43:39 +0000";
layers = (
{
layerId = "BE16C792-0DFB-4FCD-B142-35321F01CEFF";
paths = (
{
closed = 1;
nodes = (
"-968 1411 OFFCURVE",
"-591 1638 OFFCURVE",
"-326 1765 CURVE",
"-360 1839 LINE",
"-541 1771 OFFCURVE",
"-715 1689 OFFCURVE",
"-884 1594 CURVE",
"-877 1621 OFFCURVE",
"-873 1650 OFFCURVE",
"-873 1681 CURVE SMOOTH",
"-873 1826 OFFCURVE",
"-967 1918 OFFCURVE",
"-1128 1918 CURVE SMOOTH",
"-1201 1918 OFFCURVE",
"-1259 1899 OFFCURVE",
"-1300 1860 CURVE",
"-1215 1777 LINE",
"-1202 1798 OFFCURVE",
"-1174 1808 OFFCURVE",
"-1132 1808 CURVE SMOOTH",
"-1061 1808 OFFCURVE",
"-1023 1765 OFFCURVE",
"-1023 1689 CURVE SMOOTH",
"-1023 1586 OFFCURVE",
"-1058 1505 OFFCURVE",
"-1127 1445 CURVE",
"-1190 1401 LINE",
"-1111 1300 LINE"
);
}
);
width = 0;
}
);
note = uniAAC1;
unicode = AAC1;
},
{
glyphname = uniAAC2;
lastChange = "2016-11-10 14:43:39 +0000";
layers = (
{
layerId = "BE16C792-0DFB-4FCD-B142-35321F01CEFF";
paths = (
{
closed = 1;
nodes = (
"80 -497 OFFCURVE",
"215 -378 OFFCURVE",
"333 -242 CURVE SMOOTH",
"568 30 OFFCURVE",
"704 334 OFFCURVE",
"716 599 CURVE",
"769 592 OFFCURVE",
"812 588 OFFCURVE",
"845 586 CURVE",
"855 684 LINE",
"713 704 LINE",
"685 956 OFFCURVE",
"521 1118 OFFCURVE",
"292 1118 CURVE SMOOTH",
"165 1118 OFFCURVE",
"68 1046 OFFCURVE",
"68 946 CURVE SMOOTH",
"68 810 OFFCURVE",
"230 698 OFFCURVE",
"537 630 CURVE",
"537 187 OFFCURVE",
"318 -199 OFFCURVE",
"-120 -527 CURVE",
"-72 -600 LINE"
);
},
{
closed = 1;
nodes = (
"330 790 OFFCURVE",
"208 865 OFFCURVE",
"208 954 CURVE SMOOTH",
"208 977 OFFCURVE",
"240 1008 OFFCURVE",
"299 1008 CURVE SMOOTH",
"416 1008 OFFCURVE",
"505 905 OFFCURVE",
"529 741 CURVE"
);
}
);
width = 855;
}
);
note = uniAAC2;
unicode = AAC2;
},
{
glyphname = uniAADB;
lastChange = "2016-11-10 14:43:39 +0000";
layers = (
{
layerId = "BE16C792-0DFB-4FCD-B142-35321F01CEFF";
paths = (
{
closed = 1;
nodes = (
"1522 -20 OFFCURVE",
"1678 229 OFFCURVE",
"1719 705 CURVE",
"1811 713 OFFCURVE",
"1908 718 OFFCURVE",
"2009 721 CURVE",
"2012 808 LINE",
"1916 808 OFFCURVE",
"1822 806 OFFCURVE",
"1729 802 CURVE",
"1747 966 OFFCURVE",
"1769 1095 OFFCURVE",
"1796 1188 CURVE SMOOTH",
"1848 1374 OFFCURVE",
"1932 1514 OFFCURVE",
"2083 1658 CURVE",
"2035 1721 LINE",
"1744 1461 OFFCURVE",
"1587 1162 OFFCURVE",
"1546 791 CURVE",
"1412 780 OFFCURVE",
"1279 764 OFFCURVE",
"1147 741 CURVE",
"1151 814 LINE",
"1151 1013 OFFCURVE",
"1076 1118 OFFCURVE",
"925 1118 CURVE SMOOTH",
"653 1118 OFFCURVE",
"421 869 OFFCURVE",
"300 453 CURVE",
"177 387 OFFCURVE",
"58 314 OFFCURVE",
"-55 234 CURVE",
"-7 76 LINE",
"98 153 OFFCURVE",
"185 212 OFFCURVE",
"253 254 CURVE",
"237 171 OFFCURVE",
"226 84 OFFCURVE",
"220 -5 CURVE",
"416 49 LINE",
"428 176 OFFCURVE",
"441 282 OFFCURVE",
"454 367 CURVE",
"609 446 OFFCURVE",
"774 512 OFFCURVE",
"950 565 CURVE",
"943 489 OFFCURVE",
"939 423 OFFCURVE",
"939 367 CURVE SMOOTH",
"939 136 OFFCURVE",
"1068 -20 OFFCURVE",
"1261 -20 CURVE SMOOTH"
);
},
{
closed = 1;
nodes = (
"565 833 OFFCURVE",
"691 978 OFFCURVE",
"870 978 CURVE SMOOTH",
"935 978 OFFCURVE",
"971 944 OFFCURVE",
"971 853 CURVE SMOOTH",
"971 824 OFFCURVE",
"968 774 OFFCURVE",
"963 701 CURVE",
"802 663 OFFCURVE",
"645 611 OFFCURVE",
"491 544 CURVE"
);
},
{
closed = 1;
nodes = (
"1190 120 OFFCURVE",
"1119 224 OFFCURVE",
"1119 379 CURVE SMOOTH",
"1119 444 OFFCURVE",
"1124 523 OFFCURVE",
"1134 614 CURVE",
"1257 643 OFFCURVE",
"1392 667 OFFCURVE",
"1537 686 CURVE",
"1527 545 OFFCURVE",
"1516 444 OFFCURVE",
"1503 381 CURVE SMOOTH",
"1490 318 OFFCURVE",
"1474 269 OFFCURVE",
"1456 233 CURVE SMOOTH",
"1420 160 OFFCURVE",
"1367 120 OFFCURVE",
"1298 120 CURVE SMOOTH"
);
}
);
width = 1903;
}
);
note = uniAADB;
unicode = AADB;
},
{
glyphname = uniAADC;
lastChange = "2016-11-10 14:40:34 +0000";
layers = (
{
layerId = "BE16C792-0DFB-4FCD-B142-35321F01CEFF";
paths = (
{
closed = 1;
nodes = (
"1518 -20 OFFCURVE",
"1673 221 OFFCURVE",
"1717 682 CURVE SMOOTH",
"1735 864 OFFCURVE",
"1753 999 OFFCURVE",
"1772 1086 CURVE SMOOTH",
"1790 1173 OFFCURVE",
"1812 1247 OFFCURVE",
"1837 1310 CURVE SMOOTH",
"1888 1435 OFFCURVE",
"1966 1546 OFFCURVE",
"2083 1658 CURVE",
"2035 1721 LINE",
"1719 1436 OFFCURVE",
"1563 1107 OFFCURVE",
"1539 707 CURVE SMOOTH",
"1528 557 OFFCURVE",
"1517 450 OFFCURVE",
"1504 387 CURVE SMOOTH",
"1491 324 OFFCURVE",
"1476 273 OFFCURVE",
"1458 236 CURVE SMOOTH",
"1422 161 OFFCURVE",
"1370 120 OFFCURVE",
"1298 120 CURVE SMOOTH",
"1190 120 OFFCURVE",
"1119 224 OFFCURVE",
"1119 379 CURVE SMOOTH",
"1119 441 OFFCURVE",
"1124 523 OFFCURVE",
"1135 624 CURVE SMOOTH",
"1146 725 OFFCURVE",
"1151 789 OFFCURVE",
"1151 814 CURVE SMOOTH",
"1151 1013 OFFCURVE",
"1076 1118 OFFCURVE",
"925 1118 CURVE SMOOTH",
"802 1118 OFFCURVE",
"689 1071 OFFCURVE",
"586 977 CURVE SMOOTH",
"378 788 OFFCURVE",
"240 422 OFFCURVE",
"220 -5 CURVE",
"416 49 LINE",
"437 283 OFFCURVE",
"467 465 OFFCURVE",
"506 595 CURVE SMOOTH",
"582 855 OFFCURVE",
"705 978 OFFCURVE",
"870 978 CURVE SMOOTH",
"935 978 OFFCURVE",
"971 944 OFFCURVE",
"971 853 CURVE SMOOTH",
"971 806 OFFCURVE",
"966 727 OFFCURVE",
"955 614 CURVE SMOOTH",
"944 501 OFFCURVE",
"939 418 OFFCURVE",
"939 367 CURVE SMOOTH",
"939 136 OFFCURVE",
"1068 -20 OFFCURVE",
"1261 -20 CURVE SMOOTH"
);
}
);
width = 1903;
}
);
note = uniAADC;
unicode = AADC;
},
{
glyphname = uniAADD;
lastChange = "2016-11-10 14:43:39 +0000";
layers = (
{
layerId = "BE16C792-0DFB-4FCD-B142-35321F01CEFF";
paths = (
{
closed = 1;
nodes = (
"1248 -20 OFFCURVE",
"1349 70 OFFCURVE",
"1349 187 CURVE SMOOTH",
"1349 233 OFFCURVE",
"1330 279 OFFCURVE",
"1291 324 CURVE SMOOTH",
"1252 369 OFFCURVE",
"1178 424 OFFCURVE",
"1071 489 CURVE",
"1099 629 OFFCURVE",
"1116 718 OFFCURVE",
"1121 757 CURVE SMOOTH",
"1126 795 OFFCURVE",
"1128 829 OFFCURVE",
"1128 859 CURVE SMOOTH",
"1128 906 OFFCURVE",
"1117 949 OFFCURVE",
"1095 989 CURVE SMOOTH",
"1050 1068 OFFCURVE",
"961 1118 OFFCURVE",
"852 1118 CURVE SMOOTH",
"703 1118 OFFCURVE",
"570 1049 OFFCURVE",
"452 912 CURVE",
"366 1011 OFFCURVE",
"323 1119 OFFCURVE",
"323 1237 CURVE SMOOTH",
"323 1331 OFFCURVE",
"351 1428 OFFCURVE",
"408 1529 CURVE SMOOTH",
"521 1729 OFFCURVE",
"740 1923 OFFCURVE",
"1047 2087 CURVE",
"999 2160 LINE",
"462 1872 OFFCURVE",
"143 1533 OFFCURVE",
"143 1233 CURVE SMOOTH",
"143 1064 OFFCURVE",
"215 913 OFFCURVE",
"358 779 CURVE",
"237 578 OFFCURVE",
"157 316 OFFCURVE",
"120 -5 CURVE",
"316 49 LINE",
"368 404 OFFCURVE",
"406 559 OFFCURVE",
"461 694 CURVE",
"508 661 OFFCURVE",
"555 630 OFFCURVE",
"602 601 CURVE SMOOTH",
"649 572 OFFCURVE",
"748 519 OFFCURVE",
"898 441 CURVE",
"883 348 OFFCURVE",
"876 273 OFFCURVE",
"876 216 CURVE SMOOTH",
"876 69 OFFCURVE",
"958 -20 OFFCURVE",
"1107 -20 CURVE SMOOTH"
);
},
{
closed = 1;
nodes = (
"1066 90 OFFCURVE",
"1026 127 OFFCURVE",
"1026 190 CURVE SMOOTH",
"1026 227 OFFCURVE",
"1032 283 OFFCURVE",
"1045 359 CURVE",
"1155 290 OFFCURVE",
"1210 226 OFFCURVE",
"1210 165 CURVE SMOOTH",
"1210 115 OFFCURVE",
"1178 90 OFFCURVE",
"1113 90 CURVE SMOOTH"
);
},
{
closed = 1;
nodes = (
"787 651 OFFCURVE",
"648 730 OFFCURVE",
"535 829 CURVE",
"608 928 OFFCURVE",
"699 978 OFFCURVE",
"810 978 CURVE SMOOTH",
"882 978 OFFCURVE",
"948 908 OFFCURVE",
"948 843 CURVE SMOOTH",
"948 780 OFFCURVE",
"939 690 OFFCURVE",
"920 575 CURVE"
);
}
);
width = 1469;
}
);
note = uniAADD;
unicode = AADD;
},
{
glyphname = uniAADE;
lastChange = "2016-11-10 14:43:39 +0000";
layers = (
{
layerId = "BE16C792-0DFB-4FCD-B142-35321F01CEFF";
paths = (
{
closed = 1;
nodes = (
"471 1711 OFFCURVE",
"864 1889 OFFCURVE",
"1188 1889 CURVE SMOOTH",
"1256 1889 OFFCURVE",
"1316 1876 OFFCURVE",
"1368 1851 CURVE SMOOTH",
"1471 1799 OFFCURVE",
"1541 1725 OFFCURVE",
"1649 1508 CURVE",
"1823 1804 OFFCURVE",
"2103 1952 OFFCURVE",
"2488 1952 CURVE SMOOTH",
"2755 1952 OFFCURVE",
"2971 1804 OFFCURVE",
"3138 1508 CURVE",
"3320 1742 LINE",
"3155 1953 OFFCURVE",
"2839 2090 OFFCURVE",
"2503 2090 CURVE SMOOTH",
"2292 2090 OFFCURVE",
"2141 2057 OFFCURVE",
"2022 2010 CURVE SMOOTH",
"1902 1962 OFFCURVE",
"1814 1900 OFFCURVE",
"1729 1841 CURVE",
"1594 1968 OFFCURVE",
"1441 2029 OFFCURVE",
"1194 2029 CURVE SMOOTH",
"1099 2029 OFFCURVE",
"991 2010 OFFCURVE",
"871 1972 CURVE SMOOTH",
"630 1896 OFFCURVE",
"332 1728 OFFCURVE",
"204 1607 CURVE",
"272 1503 LINE"
);
},
{
closed = 1;
nodes = (
"711 -326 OFFCURVE",
"747 -317 OFFCURVE",
"788 -298 CURVE",
"767 -200 LINE",
"744 -209 OFFCURVE",
"719 -214 OFFCURVE",
"690 -214 CURVE SMOOTH",
"621 -214 OFFCURVE",
"544 -172 OFFCURVE",
"477 -96 CURVE",
"390 -223 LINE",
"470 -292 OFFCURVE",
"566 -326 OFFCURVE",
"678 -326 CURVE SMOOTH"
);
},
{
closed = 1;
nodes = (
"560 46 LINE",
"544 110 OFFCURVE",
"536 177 OFFCURVE",
"536 246 CURVE SMOOTH",
"536 501 OFFCURVE",
"635 747 OFFCURVE",
"827 962 CURVE",
"783 1011 LINE",
"536 758 OFFCURVE",
"392 460 OFFCURVE",
"392 219 CURVE SMOOTH",
"392 215 LINE",
"340 246 OFFCURVE",
"283 265 OFFCURVE",
"220 272 CURVE",
"201 189 LINE",
"289 178 OFFCURVE",
"378 100 OFFCURVE",
"431 -8 CURVE"
);
},
{
closed = 1;
nodes = (
"769 -600 OFFCURVE",
"915 -547 OFFCURVE",
"1031 -462 CURVE",
"1145 -554 OFFCURVE",
"1287 -600 OFFCURVE",
"1456 -600 CURVE SMOOTH",
"1603 -600 OFFCURVE",
"1762 -541 OFFCURVE",
"1837 -462 CURVE",
"1953 -557 OFFCURVE",
"2109 -600 OFFCURVE",
"2372 -600 CURVE SMOOTH",
"2592 -600 OFFCURVE",
"2843 -487 OFFCURVE",
"3006 -316 CURVE",
"2938 -212 LINE",
"2783 -373 OFFCURVE",
"2589 -460 OFFCURVE",
"2378 -460 CURVE SMOOTH",
"2177 -460 OFFCURVE",
"1998 -355 OFFCURVE",
"1914 -186 CURVE",
"1762 -403 OFFCURVE",
"1664 -460 OFFCURVE",
"1499 -460 CURVE SMOOTH",
"1374 -460 OFFCURVE",
"1243 -375 OFFCURVE",
"1094 -186 CURVE",
"959 -381 OFFCURVE",
"846 -460 OFFCURVE",
"678 -460 CURVE SMOOTH",
"525 -460 OFFCURVE",
"353 -361 OFFCURVE",
"241 -217 CURVE",
"100 -399 LINE",
"245 -533 OFFCURVE",
"430 -600 OFFCURVE",
"657 -600 CURVE SMOOTH"
);
},
{
closed = 1;
nodes = (
"1611 -326 OFFCURVE",
"1647 -317 OFFCURVE",
"1688 -298 CURVE",
"1667 -200 LINE",
"1644 -209 OFFCURVE",
"1619 -214 OFFCURVE",
"1590 -214 CURVE SMOOTH",
"1521 -214 OFFCURVE",
"1444 -172 OFFCURVE",
"1377 -96 CURVE",
"1290 -223 LINE",
"1370 -292 OFFCURVE",
"1466 -326 OFFCURVE",
"1578 -326 CURVE SMOOTH"
);
},
{
closed = 1;
nodes = (
"1295 -16 OFFCURVE",
"1395 91 OFFCURVE",
"1462 306 CURVE SMOOTH",
"1492 409 LINE SMOOTH",
"1528 540 OFFCURVE",
"1563 635 OFFCURVE",
"1596 694 CURVE SMOOTH",
"1629 752 OFFCURVE",
"1664 781 OFFCURVE",
"1703 781 CURVE SMOOTH",
"1814 781 OFFCURVE",
"1886 638 OFFCURVE",
"1886 426 CURVE SMOOTH",
"1886 230 OFFCURVE",
"1817 72 OFFCURVE",
"1726 72 CURVE SMOOTH",
"1685 72 OFFCURVE",
"1648 90 OFFCURVE",
"1591 157 CURVE",
"1539 125 LINE",
"1578 44 OFFCURVE",
"1665 -16 OFFCURVE",
"1753 -16 CURVE SMOOTH",
"1917 -16 OFFCURVE",
"2030 175 OFFCURVE",
"2030 435 CURVE SMOOTH",
"2030 522 OFFCURVE",
"2018 600 OFFCURVE",
"1994 670 CURVE SMOOTH",
"1945 809 OFFCURVE",
"1852 893 OFFCURVE",
"1733 893 CURVE SMOOTH",
"1577 893 OFFCURVE",
"1476 777 OFFCURVE",
"1395 466 CURVE SMOOTH",
"1370 371 OFFCURVE",
"1350 304 OFFCURVE",
"1335 266 CURVE SMOOTH",
"1320 227 OFFCURVE",
"1306 196 OFFCURVE",
"1291 172 CURVE SMOOTH",
"1262 124 OFFCURVE",
"1228 96 OFFCURVE",
"1191 96 CURVE SMOOTH",
"1156 96 OFFCURVE",
"1130 115 OFFCURVE",
"1113 153 CURVE SMOOTH",
"1096 191 OFFCURVE",
"1088 250 OFFCURVE",
"1088 329 CURVE SMOOTH",
"1088 400 OFFCURVE",
"1090 465 OFFCURVE",
"1094 524 CURVE SMOOTH",
"1097 583 OFFCURVE",
"1099 637 OFFCURVE",
"1099 684 CURVE SMOOTH",
"1099 769 OFFCURVE",
"1087 839 OFFCURVE",
"1063 893 CURVE",
"921 846 LINE",
"944 801 OFFCURVE",
"955 738 OFFCURVE",
"955 659 CURVE SMOOTH",
"955 606 OFFCURVE",
"953 549 OFFCURVE",
"950 490 CURVE SMOOTH",
"946 430 OFFCURVE",
"944 373 OFFCURVE",
"944 319 CURVE SMOOTH",
"944 107 OFFCURVE",
"1023 -16 OFFCURVE",
"1162 -16 CURVE SMOOTH"
);
},
{
closed = 1;
nodes = (
"407 1335 OFFCURVE",
"463 1362 OFFCURVE",
"530 1362 CURVE SMOOTH",
"585 1362 OFFCURVE",
"641 1344 OFFCURVE",
"700 1307 CURVE",
"744 1462 LINE",
"693 1483 OFFCURVE",
"639 1493 OFFCURVE",
"584 1493 CURVE SMOOTH",
"473 1493 OFFCURVE",
"383 1452 OFFCURVE",
"313 1370 CURVE",
"363 1281 LINE"
);
},
{
closed = 1;
nodes = (
"2511 -326 OFFCURVE",
"2547 -317 OFFCURVE",
"2588 -298 CURVE",
"2567 -200 LINE",
"2544 -209 OFFCURVE",
"2519 -214 OFFCURVE",
"2490 -214 CURVE SMOOTH",
"2421 -214 OFFCURVE",
"2344 -172 OFFCURVE",
"2277 -96 CURVE",
"2190 -223 LINE",
"2270 -292 OFFCURVE",
"2366 -326 OFFCURVE",
"2478 -326 CURVE SMOOTH"
);
},
{
closed = 1;
nodes = (
"1228 1074 OFFCURVE",
"1653 1196 OFFCURVE",
"2012 1271 CURVE",
"1999 1342 LINE",
"1684 1313 OFFCURVE",
"1275 1224 OFFCURVE",
"1078 1137 CURVE",
"1131 1021 LINE"
);
},
{
closed = 1;
nodes = (
"1010 1574 OFFCURVE",
"1066 1601 OFFCURVE",
"1133 1601 CURVE SMOOTH",
"1188 1601 OFFCURVE",
"1244 1583 OFFCURVE",
"1303 1546 CURVE",
"1347 1701 LINE",
"1296 1722 OFFCURVE",
"1242 1732 OFFCURVE",
"1187 1732 CURVE SMOOTH",
"1076 1732 OFFCURVE",
"986 1691 OFFCURVE",
"916 1609 CURVE",
"966 1520 LINE"
);
},
{
closed = 1;
nodes = (
"2456 247 OFFCURVE",
"2339 692 OFFCURVE",
"2316 887 CURVE",
"2474 1008 LINE SMOOTH",
"2533 1052 OFFCURVE",
"2577 1074 OFFCURVE",
"2606 1074 CURVE SMOOTH",
"2645 1074 OFFCURVE",
"2684 1037 OFFCURVE",
"2719 1002 CURVE SMOOTH",
"2807 909 LINE",
"2673 697 OFFCURVE",
"2570 454 OFFCURVE",
"2497 180 CURVE"
);
},
{
closed = 1;
nodes = (
"2526 -16 OFFCURVE",
"2551 -2 OFFCURVE",
"2570 26 CURVE SMOOTH",
"2589 54 OFFCURVE",
"2617 129 OFFCURVE",
"2654 252 CURVE SMOOTH",
"2721 475 OFFCURVE",
"2800 665 OFFCURVE",
"2889 822 CURVE",
"2981 726 LINE",
"3031 768 LINE",
"2930 891 LINE",
"3033 1060 OFFCURVE",
"3148 1218 OFFCURVE",
"3276 1363 CURVE",
"3227 1437 LINE",
"3091 1297 OFFCURVE",
"2967 1146 OFFCURVE",
"2856 983 CURVE",
"2743 1122 LINE SMOOTH",
"2690 1189 OFFCURVE",
"2648 1222 OFFCURVE",
"2617 1222 CURVE SMOOTH",
"2590 1222 OFFCURVE",
"2538 1187 OFFCURVE",
"2498 1150 CURVE SMOOTH",
"2079 788 LINE",
"2117 736 LINE",
"2194 795 LINE",
"2234 550 OFFCURVE",
"2347 139 OFFCURVE",
"2414 28 CURVE SMOOTH",
"2437 -11 OFFCURVE",
"2458 -16 OFFCURVE",
"2497 -16 CURVE SMOOTH"
);
},
{
closed = 1;
nodes = (
"1952 1564 OFFCURVE",
"2029 1599 OFFCURVE",
"2127 1599 CURVE SMOOTH",
"2159 1599 OFFCURVE",
"2191 1596 OFFCURVE",
"2222 1589 CURVE",
"2237 1750 LINE",
"2214 1752 LINE",
"2191 1752 LINE SMOOTH",
"2060 1752 OFFCURVE",
"1926 1689 OFFCURVE",
"1830 1573 CURVE",
"1895 1494 LINE"
);
},
{
closed = 1;
nodes = (
"2521 1453 OFFCURVE",
"2598 1488 OFFCURVE",
"2696 1488 CURVE SMOOTH",
"2728 1488 OFFCURVE",
"2760 1485 OFFCURVE",
"2791 1478 CURVE",
"2806 1639 LINE",
"2783 1641 LINE",
"2760 1641 LINE SMOOTH",
"2629 1641 OFFCURVE",
"2495 1578 OFFCURVE",
"2399 1462 CURVE",
"2464 1383 LINE"
);
}
);
width = 3420;
}
);
note = uniAADE;
unicode = AADE;
},
{
glyphname = uniAADF;
lastChange = "2016-11-10 14:43:39 +0000";
layers = (
{
layerId = "BE16C792-0DFB-4FCD-B142-35321F01CEFF";
paths = (
{
closed = 1;
nodes = (
"1287 -20 OFFCURVE",
"1384 60 OFFCURVE",
"1384 164 CURVE SMOOTH",
"1384 269 OFFCURVE",
"1285 334 OFFCURVE",
"1134 334 CURVE SMOOTH",
"1079 334 OFFCURVE",
"1027 331 OFFCURVE",
"976 326 CURVE",
"964 389 OFFCURVE",
"956 473 OFFCURVE",
"953 580 CURVE",
"1095 608 OFFCURVE",
"1201 636 OFFCURVE",
"1272 665 CURVE SMOOTH",
"1413 721 OFFCURVE",
"1479 794 OFFCURVE",
"1479 890 CURVE SMOOTH",
"1479 1001 OFFCURVE",
"1316 1072 OFFCURVE",
"990 1102 CURVE",
"1004 1188 OFFCURVE",
"1020 1263 OFFCURVE",
"1037 1328 CURVE",
"981 1408 LINE",
"940 1382 OFFCURVE",
"886 1369 OFFCURVE",
"817 1369 CURVE SMOOTH",
"682 1369 OFFCURVE",
"611 1445 OFFCURVE",
"611 1585 CURVE SMOOTH",
"611 1665 OFFCURVE",
"635 1735 OFFCURVE",
"682 1795 CURVE SMOOTH",
"777 1915 OFFCURVE",
"975 2014 OFFCURVE",
"1298 2099 CURVE",
"1275 2160 LINE",
"1115 2137 OFFCURVE",
"970 2096 OFFCURVE",
"839 2037 CURVE SMOOTH",
"577 1920 OFFCURVE",
"428 1753 OFFCURVE",
"428 1573 CURVE SMOOTH",
"428 1510 OFFCURVE",
"444 1452 OFFCURVE",
"475 1400 CURVE SMOOTH",
"538 1295 OFFCURVE",
"657 1231 OFFCURVE",
"809 1231 CURVE SMOOTH",
"844 1231 OFFCURVE",
"876 1235 OFFCURVE",
"903 1243 CURVE",
"859 1111 LINE",
"772 1116 OFFCURVE",
"675 1118 OFFCURVE",
"570 1118 CURVE SMOOTH",
"330 1116 LINE",
"310 975 LINE",
"345 977 OFFCURVE",
"403 978 OFFCURVE",
"486 978 CURVE SMOOTH",
"606 978 OFFCURVE",
"718 975 OFFCURVE",
"823 969 CURVE",
"800 864 OFFCURVE",
"784 766 OFFCURVE",
"777 673 CURVE",
"626 642 OFFCURVE",
"513 612 OFFCURVE",
"437 581 CURVE SMOOTH",
"285 519 OFFCURVE",
"200 436 OFFCURVE",
"200 323 CURVE SMOOTH",
"200 204 OFFCURVE",
"321 124 OFFCURVE",
"476 124 CURVE SMOOTH",
"564 124 OFFCURVE",
"631 134 OFFCURVE",
"839 185 CURVE",
"902 48 OFFCURVE",
"1006 -20 OFFCURVE",
"1151 -20 CURVE SMOOTH"
);
},
{
closed = 1;
nodes = (
"414 264 OFFCURVE",
"380 289 OFFCURVE",
"380 338 CURVE SMOOTH",
"380 382 OFFCURVE",
"408 420 OFFCURVE",
"463 452 CURVE SMOOTH",
"518 484 OFFCURVE",
"621 515 OFFCURVE",
"772 545 CURVE",
"772 541 LINE SMOOTH",
"772 449 OFFCURVE",
"781 369 OFFCURVE",
"798 301 CURVE",
"690 282 OFFCURVE",
"591 264 OFFCURVE",
"483 264 CURVE SMOOTH"
);
},
{
closed = 1;
nodes = (
"1091 90 OFFCURVE",
"1041 132 OFFCURVE",
"1007 217 CURVE",
"1050 222 OFFCURVE",
"1089 224 OFFCURVE",
"1122 224 CURVE SMOOTH",
"1159 224 OFFCURVE",
"1187 218 OFFCURVE",
"1206 205 CURVE SMOOTH",
"1225 192 OFFCURVE",
"1234 179 OFFCURVE",
"1234 165 CURVE SMOOTH",
"1234 115 OFFCURVE",
"1208 90 OFFCURVE",
"1157 90 CURVE SMOOTH"
);
},
{
closed = 1;
nodes = (
"956 792 OFFCURVE",
"962 875 OFFCURVE",
"971 958 CURVE",
"1073 949 OFFCURVE",
"1153 936 OFFCURVE",
"1212 921 CURVE SMOOTH",
"1270 906 OFFCURVE",
"1299 887 OFFCURVE",
"1299 866 CURVE SMOOTH",
"1299 835 OFFCURVE",
"1275 807 OFFCURVE",
"1227 783 CURVE SMOOTH",
"1178 759 OFFCURVE",
"1087 734 OFFCURVE",
"953 708 CURVE"
);
}
